RobotoFlex_wdth25.ufo
<glyph name="quotedbl" format="2">
  <advance width="747"/>
  <unicode hex="0022"/>
  <outline>
    <contour>
      <point x="114" y="975" type="line"/>
      <point x="100" y="1322" type="line"/>
      <point x="100" y="1456" type="line"/>
      <point x="274" y="1456" type="line"/>
      <point x="274" y="1322" type="line"/>
      <point x="259" y="975" type="line"/>
    </contour>
    <contour>
      <point x="488" y="975" type="line"/>
      <point x="474" y="1322" type="line"/>
      <point x="474" y="1456" type="line"/>
      <point x="647" y="1456" type="line"/>
      <point x="647" y="1322" type="line"/>
      <point x="632" y="975" type="line"/>
    </contour>
  </outline>
</glyph>
<glyph name="plus" format="2">
	<unicode hex="002B"/>
	<advance width="990"/>
	<outline>
		<contour>
			<point x="66" y="594" type="line"/>
			<point x="66" y="754" type="line"/>
			<point x="924" y="754" type="line"/>
			<point x="924" y="594" type="line"/>
		</contour>
		<contour>
			<point x="409" y="218" type="line"/>
			<point x="409" y="1130" type="line"/>
			<point x="581" y="1130" type="line"/>
			<point x="581" y="218" type="line"/>
		</contour>
	</outline>
</glyph>
<glyph name="period" format="2">
  <advance width="570"/>
  <unicode hex="002E"/>
  <outline>
    <contour>
      <point x="160" y="101" type="qcurve" smooth="yes"/>
      <point x="160" y="152"/>
      <point x="225" y="224"/>
      <point x="286" y="224" type="qcurve" smooth="yes"/>
      <point x="346" y="224"/>
      <point x="410" y="152"/>
      <point x="410" y="100" type="qcurve" smooth="yes"/>
      <point x="410" y="50"/>
      <point x="346" y="-22"/>
      <point x="285" y="-22" type="qcurve" smooth="yes"/>
      <point x="225" y="-22"/>
      <point x="160" y="50"/>
    </contour>
  </outline>
</glyph>
<glyph name="slash" format="2">
  <advance width="480"/>
  <unicode hex="002F"/>
  <outline>
    <contour>
      <point x="-106" y="-125" type="line"/>
      <point x="408" y="1456" type="line"/>
      <point x="586" y="1456" type="line"/>
      <point x="72" y="-125" type="line"/>
    </contour>
  </outline>
</glyph>
<glyph name="one" format="2">
	<unicode hex="0031"/>
	<advance width="1038"/>
	<outline>
		<contour>
			<point x="484" y="0" type="line"/>
			<point x="484" y="1239" type="line"/>
			<point x="186" y="1113" type="line"/>
			<point x="186" y="1293" type="line"/>
			<point x="642" y="1476" type="line"/>
			<point x="668" y="1476" type="line"/>
			<point x="668" y="0" type="line"/>
		</contour>
	</outline>
</glyph>
<glyph name="less" format="2">
  <advance width="990"/>
  <unicode hex="003C"/>
  <outline>
    <contour>
      <point x="888" y="224" type="line"/>
      <point x="122" y="604" type="line"/>
      <point x="122" y="744" type="line"/>
      <point x="888" y="1121" type="line"/>
      <point x="888" y="938" type="line"/>
      <point x="309" y="674" type="line"/>
      <point x="888" y="407" type="line"/>
    </contour>
  </outline>
</glyph>
<glyph name="equal" format="2">
  <advance width="990"/>
  <unicode hex="003D"/>
  <outline>
    <contour>
      <point x="80" y="382" type="line"/>
      <point x="80" y="542" type="line"/>
      <point x="910" y="542" type="line"/>
      <point x="910" y="382" type="line"/>
    </contour>
    <contour>
      <point x="80" y="785" type="line"/>
      <point x="80" y="945" type="line"/>
      <point x="910" y="945" type="line"/>
      <point x="910" y="785" type="line"/>
    </contour>
  </outline>
</glyph>
<glyph name="greater" format="2">
	<unicode hex="003E"/>
	<advance width="990"/>
	<outline>
		<contour>
			<point x="102" y="224" type="line"/>
			<point x="102" y="407" type="line"/>
			<point x="681" y="671" type="line"/>
			<point x="102" y="938" type="line"/>
			<point x="102" y="1121" type="line"/>
			<point x="868" y="741" type="line"/>
			<point x="868" y="601" type="line"/>
		</contour>
	</outline>
</glyph>
<glyph name="A" format="2">
	<unicode hex="0041"/>
	<advance width="1087"/>
	<outline>
		<contour>
			<point x="0" y="0" type="line"/>
			<point x="446" y="1466" type="line"/>
			<point x="640" y="1466" type="line"/>
			<point x="1087" y="0" type="line"/>
			<point x="900" y="0" type="line"/>
			<point x="576" y="1108" type="line" smooth="yes"/>
			<point x="567" y="1142"/>
			<point x="552" y="1204"/>
			<point x="546" y="1236" type="qcurve"/>
			<point x="538" y="1236" type="line"/>
			<point x="532" y="1204"/>
			<point x="516" y="1142"/>
			<point x="506" y="1108" type="qcurve" smooth="yes"/>
			<point x="180" y="0" type="line"/>
		</contour>
		<contour>
			<point x="204" y="382" type="line"/>
			<point x="250" y="536" type="line"/>
			<point x="834" y="536" type="line"/>
			<point x="879" y="382" type="line"/>
		</contour>
	</outline>
	<anchor name="bottom" x="543.5" y="0"/>
	<anchor name="ogonek" x="960" y="0"/>
	<anchor name="top" x="543.5" y="1456"/>
</glyph>
<glyph name="B" format="2">
  <advance width="1124"/>
  <unicode hex="0042"/>
  <outline>
    <contour>
      <point x="170" y="0" type="line"/>
      <point x="170" y="1456" type="line"/>
      <point x="572" y="1456" type="line" smooth="yes"/>
      <point x="765" y="1456"/>
      <point x="986" y="1270"/>
      <point x="986" y="1071" type="qcurve" smooth="yes"/>
      <point x="986" y="950"/>
      <point x="880" y="796"/>
      <point x="800" y="768" type="qcurve"/>
      <point x="800" y="764" type="line"/>
      <point x="900" y="735"/>
      <point x="1024" y="560"/>
      <point x="1024" y="418" type="qcurve" smooth="yes"/>
      <point x="1024" y="220"/>
      <point x="793" y="0"/>
      <point x="602" y="0" type="qcurve" smooth="yes"/>
    </contour>
    <contour>
      <point x="350" y="153" type="line"/>
      <point x="602" y="153" type="line" smooth="yes"/>
      <point x="726" y="153"/>
      <point x="842" y="297"/>
      <point x="842" y="419" type="qcurve" smooth="yes"/>
      <point x="842" y="540"/>
      <point x="726" y="682"/>
      <point x="602" y="682" type="qcurve" smooth="yes"/>
      <point x="350" y="682" type="line"/>
    </contour>
    <contour>
      <point x="350" y="834" type="line"/>
      <point x="572" y="834" type="line" smooth="yes"/>
      <point x="695" y="834"/>
      <point x="804" y="959"/>
      <point x="804" y="1071" type="qcurve" smooth="yes"/>
      <point x="804" y="1183"/>
      <point x="695" y="1303"/>
      <point x="572" y="1303" type="qcurve" smooth="yes"/>
      <point x="350" y="1303" type="line"/>
    </contour>
  </outline>
</glyph>
<glyph name="C" format="2">
	<unicode hex="0043"/>
	<advance width="1199"/>
	<outline>
		<contour>
			<point x="115" y="682" type="qcurve" smooth="yes"/>
			<point x="115" y="774" type="line" smooth="yes"/>
			<point x="115" y="1138"/>
			<point x="401" y="1486"/>
			<point x="636" y="1486" type="qcurve" smooth="yes"/>
			<point x="858" y="1486"/>
			<point x="1108" y="1220"/>
			<point x="1108" y="1000" type="qcurve" smooth="yes"/>
			<point x="1108" y="990" type="line"/>
			<point x="924" y="990" type="line"/>
			<point x="924" y="1000" type="line" smooth="yes"/>
			<point x="924" y="1129"/>
			<point x="796" y="1327"/>
			<point x="636" y="1327" type="qcurve" smooth="yes"/>
			<point x="469" y="1327"/>
			<point x="300" y="1073"/>
			<point x="300" y="815" type="qcurve" smooth="yes"/>
			<point x="300" y="642" type="line" smooth="yes"/>
			<point x="300" y="395"/>
			<point x="483" y="129"/>
			<point x="635" y="129" type="qcurve" smooth="yes"/>
			<point x="779" y="129"/>
			<point x="918" y="334"/>
			<point x="924" y="456" type="qcurve"/>
			<point x="924" y="466" type="line"/>
			<point x="1108" y="466" type="line"/>
			<point x="1108" y="456" type="line" smooth="yes"/>
			<point x="1108" y="236"/>
			<point x="858" y="-30"/>
			<point x="636" y="-30" type="qcurve" smooth="yes"/>
			<point x="399" y="-30"/>
			<point x="115" y="323"/>
		</contour>
	</outline>
	<anchor name="bottom" x="635" y="0"/>
	<anchor name="top" x="635" y="1456"/>
</glyph>
<glyph name="D" format="2">
  <advance width="1224"/>
  <unicode hex="0044"/>
  <anchor x="566.0" y="0" name="bottom"/>
  <anchor x="612.0" y="728.0" name="center"/>
  <anchor x="566.0" y="1456" name="top"/>
  <outline>
    <contour>
      <point x="170" y="0" type="line"/>
      <point x="170" y="1456" type="line"/>
      <point x="534" y="1456" type="line" smooth="yes"/>
      <point x="780" y="1456"/>
      <point x="1108" y="1106"/>
      <point x="1108" y="774" type="qcurve" smooth="yes"/>
      <point x="1108" y="682" type="line" smooth="yes"/>
      <point x="1108" y="350"/>
      <point x="780" y="0"/>
      <point x="534" y="0" type="qcurve" smooth="yes"/>
    </contour>
    <contour>
      <point x="354" y="153" type="line"/>
      <point x="534" y="153" type="line" smooth="yes"/>
      <point x="712" y="153"/>
      <point x="922" y="414"/>
      <point x="922" y="682" type="qcurve" smooth="yes"/>
      <point x="922" y="774" type="line" smooth="yes"/>
      <point x="922" y="1042"/>
      <point x="712" y="1303"/>
      <point x="534" y="1303" type="qcurve" smooth="yes"/>
      <point x="354" y="1303" type="line"/>
    </contour>
  </outline>
</glyph>
<glyph name="E" format="2">
	<unicode hex="0045"/>
	<advance width="1032"/>
	<outline>
		<contour>
			<point x="170" y="0" type="line"/>
			<point x="170" y="1456" type="line"/>
			<point x="954" y="1456" type="line"/>
			<point x="954" y="1303" type="line"/>
			<point x="354" y="1303" type="line"/>
			<point x="354" y="828" type="line"/>
			<point x="862" y="828" type="line"/>
			<point x="862" y="674" type="line"/>
			<point x="354" y="674" type="line"/>
			<point x="354" y="153" type="line"/>
			<point x="964" y="153" type="line"/>
			<point x="964" y="0" type="line"/>
		</contour>
	</outline>
	<anchor name="bottom" x="566" y="0"/>
	<anchor name="ogonek" x="891" y="0"/>
	<anchor name="top" x="566" y="1456"/>
</glyph>
<glyph name="F" format="2">
	<unicode hex="0046"/>
	<advance width="1000"/>
	<outline>
		<contour>
			<point x="170" y="0" type="line"/>
			<point x="170" y="1456" type="line"/>
			<point x="942" y="1456" type="line"/>
			<point x="942" y="1303" type="line"/>
			<point x="354" y="1303" type="line"/>
			<point x="354" y="798" type="line"/>
			<point x="858" y="798" type="line"/>
			<point x="858" y="646" type="line"/>
			<point x="354" y="646" type="line"/>
			<point x="354" y="0" type="line"/>
		</contour>
	</outline>
	<anchor name="bottom" x="581" y="0"/>
	<anchor name="top" x="581" y="1456"/>
</glyph>
<glyph name="G" format="2">
	<unicode hex="0047"/>
	<advance width="1182"/>
	<outline>
		<contour>
			<point x="115" y="682" type="qcurve" smooth="yes"/>
			<point x="115" y="774" type="line" smooth="yes"/>
			<point x="115" y="1134"/>
			<point x="402" y="1486"/>
			<point x="632" y="1486" type="qcurve" smooth="yes"/>
			<point x="851" y="1486"/>
			<point x="1081" y="1239"/>
			<point x="1101" y="1040" type="qcurve" smooth="yes"/>
			<point x="1102" y="1030" type="line"/>
			<point x="918" y="1030" type="line"/>
			<point x="918" y="1040" type="line" smooth="yes"/>
			<point x="918" y="1162"/>
			<point x="772" y="1327"/>
			<point x="632" y="1327" type="qcurve" smooth="yes"/>
			<point x="469" y="1327"/>
			<point x="300" y="1080"/>
			<point x="300" y="814" type="qcurve" smooth="yes"/>
			<point x="300" y="642" type="line" smooth="yes"/>
			<point x="300" y="382"/>
			<point x="481" y="129"/>
			<point x="641" y="129" type="qcurve" smooth="yes"/>
			<point x="736" y="129"/>
			<point x="873" y="168"/>
			<point x="924" y="207" type="qcurve"/>
			<point x="924" y="572" type="line"/>
			<point x="642" y="572" type="line"/>
			<point x="642" y="726" type="line"/>
			<point x="1102" y="726" type="line"/>
			<point x="1102" y="139" type="line"/>
			<point x="1042" y="77"/>
			<point x="820" y="-30"/>
			<point x="636" y="-30" type="qcurve" smooth="yes"/>
			<point x="404" y="-30"/>
			<point x="115" y="298"/>
		</contour>
	</outline>
	<anchor name="bottom" x="631" y="0"/>
	<anchor name="top" x="631" y="1456"/>
</glyph>
<glyph name="H" format="2">
	<unicode hex="0048"/>
	<advance width="1302"/>
	<outline>
		<contour>
			<point x="170" y="0" type="line"/>
			<point x="170" y="1456" type="line"/>
			<point x="354" y="1456" type="line"/>
			<point x="354" y="828" type="line"/>
			<point x="948" y="828" type="line"/>
			<point x="948" y="1456" type="line"/>
			<point x="1132" y="1456" type="line"/>
			<point x="1132" y="0" type="line"/>
			<point x="948" y="0" type="line"/>
			<point x="948" y="674" type="line"/>
			<point x="354" y="674" type="line"/>
			<point x="354" y="0" type="line"/>
		</contour>
	</outline>
	<anchor name="bottom" x="651" y="0"/>
	<anchor name="center" x="651" y="1099"/>
	<anchor name="top" x="651" y="1456"/>
</glyph>
<glyph name="I" format="2">
  <advance width="534"/>
  <unicode hex="0049"/>
  <anchor x="267.0" y="0" name="bottom"/>
  <anchor x="278" y="0" name="ogonek"/>
  <anchor x="267.0" y="1456" name="top"/>
  <outline>
    <contour>
      <point x="175" y="0" type="line"/>
      <point x="175" y="1456" type="line"/>
      <point x="358" y="1456" type="line"/>
      <point x="358" y="0" type="line"/>
    </contour>
  </outline>
</glyph>
<glyph name="J" format="2">
	<unicode hex="004A"/>
	<advance width="964"/>
	<outline>
		<contour>
			<point x="25" y="400" type="qcurve" smooth="yes"/>
			<point x="25" y="410" type="line"/>
			<point x="209" y="410" type="line"/>
			<point x="209" y="370" type="line" smooth="yes"/>
			<point x="209" y="237"/>
			<point x="315" y="129"/>
			<point x="417" y="129" type="qcurve" smooth="yes"/>
			<point x="518" y="129"/>
			<point x="625" y="253"/>
			<point x="625" y="395" type="qcurve" smooth="yes"/>
			<point x="625" y="1456" type="line"/>
			<point x="808" y="1456" type="line"/>
			<point x="808" y="425" type="line" smooth="yes"/>
			<point x="808" y="195"/>
			<point x="597" y="-30"/>
			<point x="417" y="-30" type="qcurve" smooth="yes"/>
			<point x="236" y="-30"/>
			<point x="25" y="180"/>
		</contour>
	</outline>
	<anchor name="bottom" x="417" y="0"/>
	<anchor name="top" x="720" y="1456"/>
</glyph>
<glyph name="K" format="2">
  <advance width="1111"/>
  <unicode hex="004B"/>
  <anchor x="620" y="0" name="bottom"/>
  <anchor x="620" y="1456" name="top"/>
  <outline>
    <contour>
      <point x="170" y="0" type="line"/>
      <point x="170" y="1456" type="line"/>
      <point x="354" y="1456" type="line"/>
      <point x="354" y="758" type="line"/>
      <point x="899" y="1456" type="line"/>
      <point x="1105" y="1456" type="line"/>
      <point x="354" y="524" type="line"/>
      <point x="354" y="0" type="line"/>
    </contour>
    <contour>
      <point x="924" y="0" type="line"/>
      <point x="443" y="743" type="line"/>
      <point x="548" y="881" type="line"/>
      <point x="1131" y="0" type="line"/>
    </contour>
  </outline>
</glyph>
<glyph name="L" format="2">
  <advance width="952"/>
  <unicode hex="004C"/>
  <anchor x="564.0" y="0" name="bottom"/>
  <anchor x="699.0" y="728.0" name="center"/>
  <anchor x="319.0" y="1456" name="top"/>
  <anchor x="530" y="1052" name="topright"/>
  <outline>
    <contour>
      <point x="170" y="0" type="line"/>
      <point x="170" y="1456" type="line"/>
      <point x="354" y="1456" type="line"/>
      <point x="354" y="153" type="line"/>
      <point x="928" y="153" type="line"/>
      <point x="928" y="0" type="line"/>
    </contour>
  </outline>
</glyph>
<glyph name="O" format="2">
  <advance width="1274"/>
  <unicode hex="004F"/>
  <anchor x="637.0" y="0" name="bottom"/>
  <anchor x="637.0" y="728.0" name="center"/>
  <anchor x="749" y="0" name="ogonek"/>
  <anchor x="637.0" y="1456" name="top"/>
  <anchor x="843" y="1456" name="topright"/>
  <outline>
    <contour>
      <point x="115" y="682" type="qcurve" smooth="yes"/>
      <point x="115" y="774" type="line" smooth="yes"/>
      <point x="115" y="1130"/>
      <point x="404" y="1486"/>
      <point x="637" y="1486" type="qcurve" smooth="yes"/>
      <point x="870" y="1486"/>
      <point x="1158" y="1130"/>
      <point x="1158" y="774" type="qcurve" smooth="yes"/>
      <point x="1158" y="682" type="line" smooth="yes"/>
      <point x="1158" y="326"/>
      <point x="870" y="-30"/>
      <point x="637" y="-30" type="qcurve" smooth="yes"/>
      <point x="404" y="-30"/>
      <point x="115" y="326"/>
    </contour>
    <contour>
      <point x="300" y="652" type="line" smooth="yes"/>
      <point x="300" y="394"/>
      <point x="480" y="129"/>
      <point x="637" y="129" type="qcurve" smooth="yes"/>
      <point x="794" y="129"/>
      <point x="972" y="394"/>
      <point x="972" y="652" type="qcurve" smooth="yes"/>
      <point x="972" y="805" type="line" smooth="yes"/>
      <point x="972" y="1063"/>
      <point x="794" y="1327"/>
      <point x="637" y="1327" type="qcurve" smooth="yes"/>
      <point x="480" y="1327"/>
      <point x="300" y="1063"/>
      <point x="300" y="805" type="qcurve" smooth="yes"/>
    </contour>
  </outline>
</glyph>
<glyph name="Q" format="2">
	<unicode hex="0051"/>
	<advance width="1274"/>
	<outline>
		<contour>
			<point x="115" y="682" type="qcurve" smooth="yes"/>
			<point x="115" y="774" type="line" smooth="yes"/>
			<point x="115" y="1130"/>
			<point x="404" y="1486"/>
			<point x="637" y="1486" type="qcurve" smooth="yes"/>
			<point x="870" y="1486"/>
			<point x="1158" y="1130"/>
			<point x="1158" y="774" type="qcurve" smooth="yes"/>
			<point x="1158" y="682" type="line" smooth="yes"/>
			<point x="1158" y="326"/>
			<point x="870" y="-30"/>
			<point x="637" y="-30" type="qcurve" smooth="yes"/>
			<point x="404" y="-30"/>
			<point x="115" y="326"/>
		</contour>
		<contour>
			<point x="300" y="642" type="line" smooth="yes"/>
			<point x="300" y="384"/>
			<point x="480" y="129"/>
			<point x="637" y="129" type="qcurve" smooth="yes"/>
			<point x="794" y="129"/>
			<point x="972" y="384"/>
			<point x="972" y="642" type="qcurve" smooth="yes"/>
			<point x="972" y="814" type="line" smooth="yes"/>
			<point x="972" y="1072"/>
			<point x="794" y="1327"/>
			<point x="637" y="1327" type="qcurve" smooth="yes"/>
			<point x="480" y="1327"/>
			<point x="300" y="1072"/>
			<point x="300" y="814" type="qcurve" smooth="yes"/>
		</contour>
		<contour>
			<point x="1014" y="-248" type="line"/>
			<point x="672" y="27" type="line"/>
			<point x="792" y="148" type="line"/>
			<point x="1138" y="-122" type="line"/>
		</contour>
	</outline>
	<anchor name="bottom" x="637" y="0"/>
	<anchor name="top" x="637" y="1456"/>
</glyph>
<glyph name="T" format="2">
  <advance width="1022"/>
  <unicode hex="0054"/>
  <anchor x="511.0" y="0" name="bottom"/>
  <anchor x="511.0" y="728.0" name="center"/>
  <anchor x="511.0" y="1456" name="top"/>
  <outline>
    <contour>
      <point x="24" y="1303" type="line"/>
      <point x="24" y="1456" type="line"/>
      <point x="998" y="1456" type="line"/>
      <point x="998" y="1303" type="line"/>
      <point x="602" y="1303" type="line"/>
      <point x="602" y="0" type="line"/>
      <point x="419" y="0" type="line"/>
      <point x="419" y="1303" type="line"/>
    </contour>
  </outline>
</glyph>
<glyph name="U" format="2">
	<unicode hex="0055"/>
	<advance width="1218"/>
	<outline>
		<contour>
			<point x="155" y="470" type="qcurve" smooth="yes"/>
			<point x="155" y="1456" type="line"/>
			<point x="338" y="1456" type="line"/>
			<point x="338" y="430" type="line" smooth="yes"/>
			<point x="338" y="277"/>
			<point x="483" y="129"/>
			<point x="609" y="129" type="qcurve" smooth="yes"/>
			<point x="734" y="129"/>
			<point x="878" y="278"/>
			<point x="878" y="430" type="qcurve" smooth="yes"/>
			<point x="878" y="1456" type="line"/>
			<point x="1062" y="1456" type="line"/>
			<point x="1062" y="470" type="line" smooth="yes"/>
			<point x="1062" y="200"/>
			<point x="804" y="-30"/>
			<point x="609" y="-30" type="qcurve" smooth="yes"/>
			<point x="414" y="-30"/>
			<point x="155" y="200"/>
		</contour>
	</outline>
	<anchor name="bottom" x="609" y="0"/>
	<anchor name="ogonek" x="731" y="0"/>
	<anchor name="top" x="609" y="1456"/>
	<anchor name="topright" x="990" y="1456"/>
</glyph>
<glyph name="V" format="2">
	<unicode hex="0056"/>
	<advance width="1046"/>
	<outline>
		<contour>
			<point x="0" y="1456" type="line"/>
			<point x="190" y="1456" type="line"/>
			<point x="493" y="369" type="line" smooth="yes"/>
			<point x="502" y="336"/>
			<point x="516" y="274"/>
			<point x="521" y="241" type="qcurve"/>
			<point x="529" y="241" type="line"/>
			<point x="533" y="274"/>
			<point x="547" y="336"/>
			<point x="556" y="369" type="qcurve" smooth="yes"/>
			<point x="863" y="1456" type="line"/>
			<point x="1046" y="1456" type="line"/>
			<point x="616" y="-10" type="line"/>
			<point x="430" y="-10" type="line"/>
		</contour>
	</outline>
	<anchor name="bottom" x="523" y="0"/>
	<anchor name="top" x="523" y="1456"/>
</glyph>
<glyph name="Z" format="2">
  <advance width="988"/>
  <unicode hex="005A"/>
  <outline>
    <contour>
      <point x="36" y="0" type="line"/>
      <point x="36" y="135" type="line"/>
      <point x="716" y="1303" type="line"/>
      <point x="48" y="1303" type="line"/>
      <point x="48" y="1456" type="line"/>
      <point x="920" y="1456" type="line"/>
      <point x="920" y="1321" type="line"/>
      <point x="240" y="153" type="line"/>
      <point x="952" y="153" type="line"/>
      <point x="952" y="0" type="line"/>
    </contour>
  </outline>
</glyph>
<glyph name="grave" format="2">
	<unicode hex="0060"/>
	<advance width="986"/>
	<outline>
		<contour>
			<point x="577" y="1220" type="line"/>
			<point x="278" y="1495" type="line"/>
			<point x="431" y="1600" type="line"/>
			<point x="682" y="1299" type="line"/>
		</contour>
	</outline>
</glyph>
<glyph name="e" format="2">
	<unicode hex="0065"/>
	<advance width="952"/>
	<outline>
		<contour>
			<point x="85" y="510" type="qcurve" smooth="yes"/>
			<point x="85" y="542" type="line" smooth="yes"/>
			<point x="85" y="800"/>
			<point x="308" y="1082"/>
			<point x="491" y="1082" type="qcurve" smooth="yes"/>
			<point x="674" y="1082"/>
			<point x="872" y="820"/>
			<point x="872" y="560" type="qcurve" smooth="yes"/>
			<point x="872" y="486" type="line"/>
			<point x="184" y="486" type="line"/>
			<point x="184" y="630" type="line"/>
			<point x="692" y="630" type="line"/>
			<point x="692" y="651" type="line" smooth="yes"/>
			<point x="692" y="772"/>
			<point x="601" y="934"/>
			<point x="491" y="934" type="qcurve" smooth="yes"/>
			<point x="380" y="934"/>
			<point x="264" y="757"/>
			<point x="264" y="572" type="qcurve" smooth="yes"/>
			<point x="264" y="480" type="line" smooth="yes"/>
			<point x="264" y="303"/>
			<point x="379" y="118"/>
			<point x="507" y="118" type="qcurve" smooth="yes"/>
			<point x="596" y="118"/>
			<point x="708" y="206"/>
			<point x="746" y="265" type="qcurve"/>
			<point x="877" y="186" type="line"/>
			<point x="829" y="92"/>
			<point x="644" y="-30"/>
			<point x="517" y="-30" type="qcurve" smooth="yes"/>
			<point x="308" y="-30"/>
			<point x="85" y="252"/>
		</contour>
	</outline>
	<anchor name="bottom" x="509" y="0"/>
	<anchor name="ogonek" x="629" y="0"/>
	<anchor name="top" x="492" y="1052"/>
</glyph>
<glyph name="h" format="2">
	<unicode hex="0068"/>
	<advance width="1011"/>
	<outline>
		<contour>
			<point x="148" y="0" type="line"/>
			<point x="148" y="1536" type="line"/>
			<point x="326" y="1536" type="line"/>
			<point x="326" y="914" type="line"/>
			<point x="366" y="986"/>
			<point x="508" y="1072"/>
			<point x="608" y="1072" type="qcurve" smooth="yes"/>
			<point x="722" y="1072"/>
			<point x="873" y="900"/>
			<point x="873" y="724" type="qcurve" smooth="yes"/>
			<point x="873" y="0" type="line"/>
			<point x="695" y="0" type="line"/>
			<point x="695" y="726" type="line" smooth="yes"/>
			<point x="695" y="821"/>
			<point x="623" y="921"/>
			<point x="548" y="921" type="qcurve" smooth="yes"/>
			<point x="467" y="921"/>
			<point x="350" y="814"/>
			<point x="326" y="744" type="qcurve"/>
			<point x="326" y="0" type="line"/>
		</contour>
	</outline>
	<anchor name="bottom" x="505.5" y="0"/>
	<anchor name="center" x="306" y="1324"/>
	<anchor name="top" x="237" y="1537"/>
</glyph>
<glyph name="l" format="2">
	<unicode hex="006C"/>
	<advance width="490"/>
	<outline>
		<contour>
			<point x="156" y="0" type="line"/>
			<point x="156" y="1536" type="line"/>
			<point x="334" y="1536" type="line"/>
			<point x="334" y="0" type="line"/>
		</contour>
	</outline>
	<anchor name="bottom" x="245" y="0"/>
	<anchor name="center" x="245" y="728"/>
	<anchor name="top" x="245" y="1536"/>
	<anchor name="topright" x="264" y="1052"/>
</glyph>
<glyph name="n" format="2">
	<unicode hex="006E"/>
	<advance width="1011"/>
	<outline>
		<contour>
			<point x="148" y="0" type="line"/>
			<point x="148" y="1052" type="line"/>
			<point x="311" y="1052" type="line"/>
			<point x="318" y="932" type="line"/>
			<point x="322" y="932" type="line"/>
			<point x="368" y="998"/>
			<point x="504" y="1072"/>
			<point x="586" y="1072" type="qcurve" smooth="yes"/>
			<point x="718" y="1072"/>
			<point x="873" y="900"/>
			<point x="873" y="698" type="qcurve" smooth="yes"/>
			<point x="873" y="0" type="line"/>
			<point x="695" y="0" type="line"/>
			<point x="695" y="710" type="line" smooth="yes"/>
			<point x="695" y="820"/>
			<point x="615" y="921"/>
			<point x="530" y="921" type="qcurve" smooth="yes"/>
			<point x="453" y="921"/>
			<point x="348" y="828"/>
			<point x="326" y="774" type="qcurve"/>
			<point x="326" y="0" type="line"/>
		</contour>
	</outline>
	<anchor name="bottom" x="505.5" y="0"/>
	<anchor name="top" x="505.5" y="1052"/>
</glyph>
<glyph name="o" format="2">
  <advance width="1016"/>
  <unicode hex="006F"/>
  <anchor x="508.0" y="0" name="bottom"/>
  <anchor x="508.0" y="728.0" name="center"/>
  <anchor x="607" y="0" name="ogonek"/>
  <anchor x="508.0" y="1052" name="top"/>
  <anchor x="647" y="1052" name="topright"/>
  <outline>
    <contour>
      <point x="85" y="510" type="qcurve" smooth="yes"/>
      <point x="85" y="542" type="line" smooth="yes"/>
      <point x="85" y="800"/>
      <point x="315" y="1082"/>
      <point x="508" y="1082" type="qcurve" smooth="yes"/>
      <point x="701" y="1082"/>
      <point x="932" y="800"/>
      <point x="932" y="542" type="qcurve" smooth="yes"/>
      <point x="932" y="510" type="line" smooth="yes"/>
      <point x="932" y="252"/>
      <point x="701" y="-30"/>
      <point x="508" y="-30" type="qcurve" smooth="yes"/>
      <point x="315" y="-30"/>
      <point x="85" y="252"/>
    </contour>
    <contour>
      <point x="267" y="572" type="qcurve" smooth="yes"/>
      <point x="267" y="480" type="line" smooth="yes"/>
      <point x="267" y="315"/>
      <point x="388" y="118"/>
      <point x="508" y="118" type="qcurve" smooth="yes"/>
      <point x="628" y="118"/>
      <point x="750" y="315"/>
      <point x="750" y="480" type="qcurve" smooth="yes"/>
      <point x="750" y="572" type="line" smooth="yes"/>
      <point x="750" y="742"/>
      <point x="634" y="934"/>
      <point x="508" y="934" type="qcurve" smooth="yes"/>
      <point x="382" y="934"/>
      <point x="267" y="737"/>
    </contour>
  </outline>
</glyph>
<glyph name="p" format="2">
	<unicode hex="0070"/>
	<advance width="1032"/>
	<outline>
		<contour>
			<point x="148" y="-416" type="line"/>
			<point x="148" y="1052" type="line"/>
			<point x="311" y="1052" type="line"/>
			<point x="318" y="930" type="line"/>
			<point x="322" y="930" type="line"/>
			<point x="355" y="990"/>
			<point x="491" y="1072"/>
			<point x="581" y="1072" type="qcurve" smooth="yes"/>
			<point x="748" y="1072"/>
			<point x="947" y="772"/>
			<point x="947" y="542" type="qcurve" smooth="yes"/>
			<point x="947" y="510" type="line" smooth="yes"/>
			<point x="947" y="280"/>
			<point x="748" y="-20"/>
			<point x="581" y="-20" type="qcurve" smooth="yes"/>
			<point x="491" y="-20"/>
			<point x="364" y="43"/>
			<point x="326" y="102" type="qcurve"/>
			<point x="326" y="-416" type="line"/>
		</contour>
		<contour>
			<point x="326" y="276" type="line"/>
			<point x="346" y="230"/>
			<point x="450" y="128"/>
			<point x="538" y="128" type="qcurve" smooth="yes"/>
			<point x="652" y="128"/>
			<point x="765" y="318"/>
			<point x="765" y="480" type="qcurve" smooth="yes"/>
			<point x="765" y="572" type="line" smooth="yes"/>
			<point x="765" y="734"/>
			<point x="655" y="924"/>
			<point x="543" y="924" type="qcurve" smooth="yes"/>
			<point x="462" y="924"/>
			<point x="349" y="828"/>
			<point x="326" y="774" type="qcurve"/>
		</contour>
	</outline>
	<anchor name="bottom" x="516" y="0"/>
	<anchor name="top" x="516" y="1052"/>
</glyph>
<glyph name="u" format="2">
	<unicode hex="0075"/>
	<advance width="1011"/>
	<outline>
		<contour>
			<point x="138" y="354" type="qcurve" smooth="yes"/>
			<point x="138" y="1052" type="line"/>
			<point x="316" y="1052" type="line"/>
			<point x="316" y="352" type="line" smooth="yes"/>
			<point x="316" y="234"/>
			<point x="394" y="131"/>
			<point x="480" y="131" type="qcurve" smooth="yes"/>
			<point x="555" y="131"/>
			<point x="651" y="204"/>
			<point x="685" y="268" type="qcurve"/>
			<point x="685" y="1052" type="line"/>
			<point x="863" y="1052" type="line"/>
			<point x="863" y="0" type="line"/>
			<point x="700" y="0" type="line"/>
			<point x="694" y="100" type="line"/>
			<point x="688" y="100" type="line"/>
			<point x="644" y="47"/>
			<point x="515" y="-20"/>
			<point x="415" y="-20" type="qcurve" smooth="yes"/>
			<point x="294" y="-20"/>
			<point x="138" y="152"/>
		</contour>
	</outline>
	<anchor name="bottom" x="505.5" y="0"/>
	<anchor name="ogonek" x="756" y="0"/>
	<anchor name="top" x="505.5" y="1052"/>
	<anchor name="topright" x="779" y="1052"/>
</glyph>
<glyph name="v" format="2">
	<unicode hex="0076"/>
	<advance width="810"/>
	<outline>
		<contour>
			<point x="0" y="1052" type="line"/>
			<point x="180" y="1052" type="line"/>
			<point x="373" y="374" type="line" smooth="yes"/>
			<point x="384" y="334"/>
			<point x="400" y="264"/>
			<point x="405" y="224" type="qcurve"/>
			<point x="411" y="224" type="line"/>
			<point x="415" y="264"/>
			<point x="432" y="334"/>
			<point x="443" y="374" type="qcurve" smooth="yes"/>
			<point x="635" y="1052" type="line"/>
			<point x="810" y="1052" type="line"/>
			<point x="476" y="0" type="line"/>
			<point x="334" y="0" type="line"/>
		</contour>
	</outline>
	<anchor name="bottom" x="405" y="0"/>
	<anchor name="top" x="405" y="1052"/>
</glyph>
<glyph name="w" format="2">
  <advance width="1336"/>
  <unicode hex="0077"/>
  <outline>
    <contour>
      <point x="25" y="1052" type="line"/>
      <point x="198" y="1052" type="line"/>
      <point x="342" y="384" type="line" smooth="yes"/>
      <point x="351" y="344"/>
      <point x="365" y="274"/>
      <point x="370" y="234" type="qcurve"/>
      <point x="376" y="234" type="line"/>
      <point x="382" y="274"/>
      <point x="397" y="344"/>
      <point x="408" y="384" type="qcurve" smooth="yes"/>
      <point x="591" y="1052" type="line"/>
      <point x="752" y="1052" type="line"/>
      <point x="936" y="384" type="line" smooth="yes"/>
      <point x="947" y="344"/>
      <point x="961" y="274"/>
      <point x="967" y="234" type="qcurve"/>
      <point x="973" y="234" type="line"/>
      <point x="979" y="274"/>
      <point x="994" y="344"/>
      <point x="1002" y="384" type="qcurve" smooth="yes"/>
      <point x="1144" y="1052" type="line"/>
      <point x="1310" y="1052" type="line"/>
      <point x="1051" y="0" type="line"/>
      <point x="890" y="0" type="line"/>
      <point x="705" y="657" type="line" smooth="yes"/>
      <point x="694" y="697"/>
      <point x="675" y="777"/>
      <point x="669" y="817" type="qcurve"/>
      <point x="663" y="817" type="line"/>
      <point x="656" y="777"/>
      <point x="639" y="697"/>
      <point x="628" y="657" type="qcurve" smooth="yes"/>
      <point x="446" y="0" type="line"/>
      <point x="285" y="0" type="line"/>
    </contour>
  </outline>
</glyph>
<glyph name="x" format="2">
	<unicode hex="0078"/>
	<advance width="846"/>
	<outline>
		<contour>
			<point x="20" y="0" type="line"/>
			<point x="356" y="580" type="line"/>
			<point x="366" y="580" type="line"/>
			<point x="620" y="1052" type="line"/>
			<point x="809" y="1052" type="line"/>
			<point x="486" y="486" type="line"/>
			<point x="474" y="486" type="line"/>
			<point x="208" y="0" type="line"/>
		</contour>
		<contour>
			<point x="38" y="1052" type="line"/>
			<point x="228" y="1052" type="line"/>
			<point x="488" y="580" type="line"/>
			<point x="490" y="580" type="line"/>
			<point x="826" y="0" type="line"/>
			<point x="636" y="0" type="line"/>
			<point x="365" y="486" type="line"/>
			<point x="362" y="486" type="line"/>
		</contour>
	</outline>
	<anchor name="bottom" x="423" y="0"/>
	<anchor name="top" x="423" y="1052"/>
</glyph>
<glyph name="z" format="2">
	<unicode hex="007A"/>
	<advance width="803"/>
	<outline>
		<contour>
			<point x="55" y="0" type="line"/>
			<point x="55" y="133" type="line"/>
			<point x="527" y="904" type="line"/>
			<point x="62" y="904" type="line"/>
			<point x="62" y="1052" type="line"/>
			<point x="727" y="1052" type="line"/>
			<point x="727" y="922" type="line"/>
			<point x="253" y="148" type="line"/>
			<point x="753" y="148" type="line"/>
			<point x="753" y="0" type="line"/>
		</contour>
	</outline>
	<anchor name="bottom" x="401.5" y="0"/>
	<anchor name="top" x="401.5" y="1052"/>
</glyph>
<glyph name="bar" format="2">
	<unicode hex="007C"/>
	<advance width="584"/>
	<outline>
		<contour>
			<point x="210" y="-416" type="line"/>
			<point x="210" y="1456" type="line"/>
			<point x="374" y="1456" type="line"/>
			<point x="374" y="-416" type="line"/>
		</contour>
	</outline>
</glyph>
<glyph name="yen" format="2">
	<unicode hex="00A5"/>
	<advance width="974"/>
	<outline>
		<contour>
			<point x="59" y="311" type="line"/>
			<point x="59" y="470" type="line"/>
			<point x="923" y="470" type="line"/>
			<point x="923" y="311" type="line"/>
		</contour>
		<contour>
			<point x="59" y="621" type="line"/>
			<point x="59" y="775" type="line"/>
			<point x="391" y="775" type="line"/>
			<point x="444" y="669" type="line"/>
			<point x="553" y="669" type="line"/>
			<point x="601" y="775" type="line"/>
			<point x="923" y="775" type="line"/>
			<point x="923" y="621" type="line"/>
		</contour>
		<contour>
			<point x="402" y="0" type="line"/>
			<point x="402" y="548" type="line"/>
			<point x="-19" y="1456" type="line"/>
			<point x="190" y="1456" type="line"/>
			<point x="432" y="849" type="line" smooth="yes"/>
			<point x="444" y="819"/>
			<point x="479" y="716"/>
			<point x="486" y="679" type="qcurve"/>
			<point x="506" y="679" type="line"/>
			<point x="515" y="735"/>
			<point x="546" y="819"/>
			<point x="560" y="849" type="qcurve" smooth="yes"/>
			<point x="792" y="1456" type="line"/>
			<point x="993" y="1456" type="line"/>
			<point x="586" y="548" type="line"/>
			<point x="586" y="0" type="line"/>
		</contour>
	</outline>
</glyph>
<glyph name="section" format="2">
	<unicode hex="00A7"/>
	<advance width="1256"/>
	<outline>
		<contour>
			<point x="691" y="133" type="qcurve"/>
			<point x="691" y="252" type="line"/>
			<point x="784" y="252"/>
			<point x="904" y="371"/>
			<point x="904" y="463" type="qcurve"/>
			<point x="904" y="556"/>
			<point x="787" y="672"/>
			<point x="606" y="734" type="qcurve" smooth="yes"/>
			<point x="416" y="793"/>
			<point x="246" y="980"/>
			<point x="246" y="1129" type="qcurve" smooth="yes"/>
			<point x="246" y="1303"/>
			<point x="441" y="1490"/>
			<point x="623" y="1491" type="qcurve" smooth="yes"/>
			<point x="800" y="1492"/>
			<point x="990" y="1289"/>
			<point x="989" y="1100" type="qcurve"/>
			<point x="824" y="1100" type="line"/>
			<point x="825" y="1214"/>
			<point x="721" y="1337"/>
			<point x="623" y="1337" type="qcurve" smooth="yes"/>
			<point x="521" y="1337"/>
			<point x="411" y="1235"/>
			<point x="411" y="1140" type="qcurve" smooth="yes"/>
			<point x="411" y="1058"/>
			<point x="540" y="943"/>
			<point x="684" y="897" type="qcurve" smooth="yes"/>
			<point x="868" y="839"/>
			<point x="1085" y="652"/>
			<point x="1085" y="478" type="qcurve" smooth="yes"/>
			<point x="1085" y="327"/>
			<point x="863" y="133"/>
		</contour>
		<contour>
			<point x="547" y="894" type="qcurve"/>
			<point x="546" y="756" type="line"/>
			<point x="455" y="756"/>
			<point x="351" y="649"/>
			<point x="351" y="567" type="qcurve" smooth="yes"/>
			<point x="351" y="487"/>
			<point x="447" y="387"/>
			<point x="636" y="317" type="qcurve" smooth="yes"/>
			<point x="827" y="246"/>
			<point x="998" y="43"/>
			<point x="998" y="-113" type="qcurve" smooth="yes"/>
			<point x="998" y="-304"/>
			<point x="791" y="-509"/>
			<point x="599" y="-509" type="qcurve" smooth="yes"/>
			<point x="398" y="-509"/>
			<point x="181" y="-283"/>
			<point x="181" y="-72" type="qcurve"/>
			<point x="345" y="-70" type="line"/>
			<point x="345" y="-207"/>
			<point x="477" y="-355"/>
			<point x="599" y="-355" type="qcurve" smooth="yes"/>
			<point x="712" y="-355"/>
			<point x="834" y="-242"/>
			<point x="834" y="-136" type="qcurve" smooth="yes"/>
			<point x="834" y="-31"/>
			<point x="695" y="109"/>
			<point x="540" y="161" type="qcurve" smooth="yes"/>
			<point x="355" y="222"/>
			<point x="169" y="420"/>
			<point x="169" y="577" type="qcurve" smooth="yes"/>
			<point x="169" y="715"/>
			<point x="376" y="894"/>
		</contour>
	</outline>
	<guideline x="0" y="1658" angle="0" identifier="QzZ5gIiCyn"/>
	<guideline x="0" y="578" angle="0" identifier="9Hxjf2sdFw"/>
</glyph>
<glyph name="dieresis" format="2">
	<unicode hex="00A8"/>
	<advance width="1024"/>
	<outline>
		<contour>
			<point x="227" y="1326" type="qcurve" smooth="yes"/>
			<point x="227" y="1371"/>
			<point x="283" y="1433"/>
			<point x="336" y="1433" type="qcurve" smooth="yes"/>
			<point x="390" y="1433"/>
			<point x="446" y="1371"/>
			<point x="446" y="1326" type="qcurve" smooth="yes"/>
			<point x="446" y="1283"/>
			<point x="390" y="1222"/>
			<point x="336" y="1222" type="qcurve" smooth="yes"/>
			<point x="283" y="1222"/>
			<point x="227" y="1283"/>
		</contour>
		<contour>
			<point x="578" y="1324" type="qcurve" smooth="yes"/>
			<point x="578" y="1369"/>
			<point x="633" y="1431"/>
			<point x="687" y="1431" type="qcurve" smooth="yes"/>
			<point x="740" y="1431"/>
			<point x="797" y="1369"/>
			<point x="797" y="1324" type="qcurve" smooth="yes"/>
			<point x="797" y="1281"/>
			<point x="740" y="1220"/>
			<point x="687" y="1220" type="qcurve" smooth="yes"/>
			<point x="633" y="1220"/>
			<point x="578" y="1281"/>
		</contour>
	</outline>
</glyph>
<glyph name="copyright" format="2">
	<unicode hex="00A9"/>
	<advance width="1548"/>
	<outline>
		<contour>
			<point x="927" y="546" type="qcurve"/>
			<point x="1109" y="546" type="line"/>
			<point x="1109" y="382"/>
			<point x="928" y="205"/>
			<point x="760" y="205" type="qcurve" smooth="yes"/>
			<point x="594" y="205"/>
			<point x="416" y="443"/>
			<point x="416" y="664" type="qcurve" smooth="yes"/>
			<point x="416" y="703" type="line" smooth="yes"/>
			<point x="416" y="928"/>
			<point x="603" y="1170"/>
			<point x="777" y="1170" type="qcurve" smooth="yes"/>
			<point x="937" y="1170"/>
			<point x="1110" y="993"/>
			<point x="1110" y="829" type="qcurve"/>
			<point x="928" y="829" type="line"/>
			<point x="928" y="914"/>
			<point x="849" y="1006"/>
			<point x="776" y="1006" type="qcurve" smooth="yes"/>
			<point x="696" y="1006"/>
			<point x="609" y="872"/>
			<point x="609" y="747" type="qcurve" smooth="yes"/>
			<point x="609" y="621" type="line" smooth="yes"/>
			<point x="609" y="496"/>
			<point x="700" y="362"/>
			<point x="785" y="362" type="qcurve" smooth="yes"/>
			<point x="853" y="362"/>
			<point x="927" y="457"/>
		</contour>
		<contour>
			<point x="183" y="687" type="qcurve" smooth="yes"/>
			<point x="183" y="400"/>
			<point x="510" y="4"/>
			<point x="775" y="4" type="qcurve" smooth="yes"/>
			<point x="1039" y="4"/>
			<point x="1366" y="400"/>
			<point x="1366" y="687" type="qcurve" smooth="yes"/>
			<point x="1366" y="975"/>
			<point x="1039" y="1367"/>
			<point x="775" y="1367" type="qcurve" smooth="yes"/>
			<point x="510" y="1367"/>
			<point x="183" y="975"/>
		</contour>
		<contour>
			<point x="35" y="687" type="qcurve" smooth="yes"/>
			<point x="35" y="1039"/>
			<point x="448" y="1519"/>
			<point x="774" y="1519" type="qcurve" smooth="yes"/>
			<point x="1099" y="1519"/>
			<point x="1513" y="1039"/>
			<point x="1513" y="687" type="qcurve" smooth="yes"/>
			<point x="1513" y="337"/>
			<point x="1099" y="-147"/>
			<point x="774" y="-147" type="qcurve" smooth="yes"/>
			<point x="448" y="-147"/>
			<point x="35" y="337"/>
		</contour>
	</outline>
	<guideline x="0" y="901" angle="0" identifier="0Pjz0qKr8z"/>
	<guideline x="0" y="555" angle="0" identifier="sJo8BlDiJ7"/>
</glyph>
<glyph name="ordfeminine" format="2">
	<unicode hex="00AA"/>
	<advance width="805"/>
	<outline>
		<contour>
			<point x="505" y="862" type="line"/>
			<point x="505" y="821"/>
			<point x="525" y="736"/>
			<point x="548" y="706" type="qcurve"/>
			<point x="683" y="706" type="line"/>
			<point x="669" y="749"/>
			<point x="657" y="838"/>
			<point x="657" y="887" type="qcurve" smooth="yes"/>
			<point x="657" y="1201" type="line" smooth="yes"/>
			<point x="657" y="1334"/>
			<point x="525" y="1477"/>
			<point x="403" y="1477" type="qcurve" smooth="yes"/>
			<point x="278" y="1477"/>
			<point x="144" y="1365"/>
			<point x="144" y="1261" type="qcurve" smooth="yes"/>
			<point x="144" y="1234" type="line"/>
			<point x="299" y="1234" type="line"/>
			<point x="299" y="1247" type="line" smooth="yes"/>
			<point x="299" y="1295"/>
			<point x="354" y="1346"/>
			<point x="405" y="1346" type="qcurve" smooth="yes"/>
			<point x="453" y="1346"/>
			<point x="505" y="1271"/>
			<point x="505" y="1202" type="qcurve" smooth="yes"/>
		</contour>
		<contour>
			<point x="534" y="1149" type="line"/>
			<point x="416" y="1149" type="line" smooth="yes"/>
			<point x="273" y="1149"/>
			<point x="120" y="1029"/>
			<point x="120" y="918" type="qcurve" smooth="yes"/>
			<point x="120" y="809"/>
			<point x="227" y="692"/>
			<point x="326" y="692" type="qcurve" smooth="yes"/>
			<point x="427" y="692"/>
			<point x="532" y="788"/>
			<point x="540" y="837" type="qcurve"/>
			<point x="522" y="949" type="line"/>
			<point x="522" y="911"/>
			<point x="429" y="822"/>
			<point x="365" y="822" type="qcurve" smooth="yes"/>
			<point x="323" y="822"/>
			<point x="277" y="874"/>
			<point x="277" y="922" type="qcurve" smooth="yes"/>
			<point x="277" y="980"/>
			<point x="350" y="1042"/>
			<point x="417" y="1042" type="qcurve" smooth="yes"/>
			<point x="534" y="1042" type="line"/>
		</contour>
	</outline>
	<guideline x="0" y="1681" angle="0" identifier="3CJlALCfkl"/>
	<guideline x="0" y="909" angle="0" identifier="Zdl6NZVQAy"/>
</glyph>
<glyph name="logicalnot" format="2">
  <advance width="990"/>
  <unicode hex="00AC"/>
  <outline>
    <contour>
      <point x="888" y="781" type="line"/>
      <point x="888" y="356" type="line"/>
      <point x="718" y="356" type="line"/>
      <point x="718" y="621" type="line"/>
      <point x="68" y="621" type="line"/>
      <point x="68" y="781" type="line"/>
    </contour>
  </outline>
</glyph>
<glyph name="registered" format="2">
	<unicode hex="00AE"/>
	<advance width="1548"/>
	<outline>
		<contour>
			<point x="35" y="687" type="qcurve" smooth="yes"/>
			<point x="35" y="1039"/>
			<point x="448" y="1519"/>
			<point x="774" y="1519" type="qcurve" smooth="yes"/>
			<point x="1099" y="1519"/>
			<point x="1513" y="1039"/>
			<point x="1513" y="687" type="qcurve" smooth="yes"/>
			<point x="1513" y="337"/>
			<point x="1099" y="-147"/>
			<point x="774" y="-147" type="qcurve" smooth="yes"/>
			<point x="448" y="-147"/>
			<point x="35" y="337"/>
		</contour>
		<contour>
			<point x="183" y="687" type="qcurve" smooth="yes"/>
			<point x="183" y="400"/>
			<point x="510" y="4"/>
			<point x="775" y="4" type="qcurve" smooth="yes"/>
			<point x="1039" y="4"/>
			<point x="1366" y="400"/>
			<point x="1366" y="687" type="qcurve" smooth="yes"/>
			<point x="1366" y="975"/>
			<point x="1039" y="1367"/>
			<point x="775" y="1367" type="qcurve" smooth="yes"/>
			<point x="510" y="1367"/>
			<point x="183" y="975"/>
		</contour>
		<contour>
			<point x="802" y="597" type="line"/>
			<point x="661" y="597" type="line"/>
			<point x="661" y="225" type="line"/>
			<point x="496" y="225" type="line"/>
			<point x="496" y="1158" type="line"/>
			<point x="768" y="1158" type="line" smooth="yes"/>
			<point x="925" y="1158"/>
			<point x="1094" y="1012"/>
			<point x="1094" y="877" type="qcurve" smooth="yes"/>
			<point x="1094" y="770"/>
			<point x="1002" y="635"/>
			<point x="917" y="618" type="qcurve"/>
			<point x="948" y="595"/>
			<point x="976" y="561"/>
			<point x="990" y="530" type="qcurve" smooth="yes"/>
			<point x="1118" y="243" type="line"/>
			<point x="1118" y="225" type="line"/>
			<point x="939" y="225" type="line"/>
		</contour>
		<contour>
			<point x="769" y="1007" type="qcurve" smooth="yes"/>
			<point x="661" y="1007" type="line"/>
			<point x="661" y="738" type="line"/>
			<point x="794" y="738" type="line" smooth="yes"/>
			<point x="851" y="738"/>
			<point x="913" y="801"/>
			<point x="913" y="859" type="qcurve" smooth="yes"/>
			<point x="913" y="929"/>
			<point x="838" y="1006"/>
		</contour>
	</outline>
</glyph>
<glyph name="macron" format="2">
	<unicode hex="00AF"/>
	<advance width="1024"/>
	<outline>
		<contour>
			<point x="776" y="1372" type="line"/>
			<point x="776" y="1220" type="line"/>
			<point x="248" y="1220" type="line"/>
			<point x="248" y="1372" type="line"/>
		</contour>
	</outline>
</glyph>
<glyph name="plusminus" format="2">
	<unicode hex="00B1"/>
	<advance width="990"/>
	<outline>
		<contour>
			<point x="66" y="594" type="line"/>
			<point x="66" y="754" type="line"/>
			<point x="924" y="754" type="line"/>
			<point x="924" y="594" type="line"/>
		</contour>
		<contour>
			<point x="409" y="219" type="line"/>
			<point x="409" y="1131" type="line"/>
			<point x="581" y="1131" type="line"/>
			<point x="581" y="219" type="line"/>
		</contour>
		<contour>
			<point x="66" y="1" type="line"/>
			<point x="66" y="161" type="line"/>
			<point x="924" y="161" type="line"/>
			<point x="924" y="1" type="line"/>
		</contour>
	</outline>
</glyph>
<glyph name="micro" format="2">
	<unicode hex="00B5"/>
	<advance width="1072"/>
	<outline>
		<contour>
			<point x="240" y="1052" type="line"/>
			<point x="418" y="1052" type="line"/>
			<point x="286" y="371" type="line" smooth="yes"/>
			<point x="261" y="247"/>
			<point x="314" y="136"/>
			<point x="397" y="136" type="qcurve" smooth="yes"/>
			<point x="463" y="136"/>
			<point x="580" y="217"/>
			<point x="643" y="308" type="qcurve"/>
			<point x="787" y="1052" type="line"/>
			<point x="973" y="1052" type="line"/>
			<point x="769" y="0" type="line"/>
			<point x="601" y="0" type="line"/>
			<point x="619" y="135" type="line"/>
			<point x="613" y="135" type="line"/>
			<point x="552" y="63"/>
			<point x="412" y="-20"/>
			<point x="338" y="-20" type="qcurve" smooth="yes"/>
			<point x="285" y="-20"/>
			<point x="229" y="18"/>
			<point x="222" y="42" type="qcurve"/>
			<point x="134" y="-416" type="line"/>
			<point x="-44" y="-416" type="line"/>
		</contour>
	</outline>
</glyph>
<glyph name="paragraph" format="2">
	<unicode hex="00B6"/>
	<advance width="1058"/>
	<outline>
		<contour>
			<point x="590" y="-146" type="line"/>
			<point x="414" y="-146" type="line"/>
			<point x="414" y="716" type="line"/>
			<point x="327" y="716" type="line" smooth="yes"/>
			<point x="210" y="716"/>
			<point x="60" y="924"/>
			<point x="60" y="1086" type="qcurve" smooth="yes"/>
			<point x="60" y="1248"/>
			<point x="210" y="1456"/>
			<point x="327" y="1456" type="qcurve" smooth="yes"/>
			<point x="590" y="1456" type="line"/>
		</contour>
		<contour>
			<point x="732" y="1459" type="line"/>
			<point x="908" y="1459" type="line"/>
			<point x="908" y="-146" type="line"/>
			<point x="732" y="-146" type="line"/>
		</contour>
	</outline>
	<guideline x="0" y="901" angle="0" identifier="27539Lsr1A"/>
	<guideline x="0" y="555" angle="0" identifier="e34wUdCmXR"/>
</glyph>
<glyph name="onesuperior" format="2">
	<unicode hex="00B9"/>
	<advance width="661"/>
	<outline>
		<contour>
			<point x="123" y="1211" type="line"/>
			<point x="123" y="1370" type="line"/>
			<point x="407" y="1486" type="line"/>
			<point x="451" y="1486" type="line"/>
			<point x="451" y="697" type="line"/>
			<point x="289" y="697" type="line"/>
			<point x="289" y="1278" type="line"/>
		</contour>
	</outline>
</glyph>
<glyph name="ordmasculine" format="2">
	<unicode hex="00BA"/>
	<advance width="864"/>
	<outline>
		<contour>
			<point x="120" y="1043" type="qcurve"/>
			<point x="120" y="1124" type="line"/>
			<point x="120" y="1294"/>
			<point x="282" y="1477"/>
			<point x="432" y="1477" type="qcurve" smooth="yes"/>
			<point x="582" y="1477"/>
			<point x="744" y="1294"/>
			<point x="744" y="1124" type="qcurve"/>
			<point x="744" y="1043" type="line"/>
			<point x="744" y="873"/>
			<point x="583" y="691"/>
			<point x="434" y="691" type="qcurve" smooth="yes"/>
			<point x="283" y="691"/>
			<point x="120" y="873"/>
		</contour>
		<contour>
			<point x="283" y="1124" type="qcurve"/>
			<point x="283" y="1043" type="line"/>
			<point x="283" y="940"/>
			<point x="361" y="830"/>
			<point x="434" y="830" type="qcurve" smooth="yes"/>
			<point x="505" y="830"/>
			<point x="582" y="940"/>
			<point x="582" y="1043" type="qcurve"/>
			<point x="582" y="1124" type="line"/>
			<point x="582" y="1226"/>
			<point x="504" y="1336"/>
			<point x="432" y="1336" type="qcurve" smooth="yes"/>
			<point x="360" y="1336"/>
			<point x="283" y="1226"/>
		</contour>
	</outline>
	<guideline x="0" y="1975" angle="0" identifier="Jnt0R9CyOf"/>
</glyph>
<glyph name="questiondown" format="2">
	<unicode hex="00BF"/>
	<advance width="952"/>
	<outline>
		<contour>
			<point x="636" y="1053" type="qcurve" smooth="yes"/>
			<point x="636" y="1005"/>
			<point x="574" y="936"/>
			<point x="517" y="936" type="qcurve" smooth="yes"/>
			<point x="459" y="936"/>
			<point x="397" y="1005"/>
			<point x="397" y="1053" type="qcurve" smooth="yes"/>
			<point x="397" y="1101"/>
			<point x="458" y="1170"/>
			<point x="516" y="1170" type="qcurve" smooth="yes"/>
			<point x="574" y="1170"/>
			<point x="636" y="1101"/>
		</contour>
		<contour>
			<point x="844" y="53" type="line"/>
			<point x="844" y="33" type="line" smooth="yes"/>
			<point x="844" y="-139"/>
			<point x="656" y="-328"/>
			<point x="493" y="-328" type="qcurve" smooth="yes"/>
			<point x="330" y="-328"/>
			<point x="147" y="-130"/>
			<point x="147" y="46" type="qcurve" smooth="yes"/>
			<point x="147" y="183"/>
			<point x="277" y="389"/>
			<point x="340" y="454" type="qcurve" smooth="yes"/>
			<point x="409" y="526"/>
			<point x="436" y="660"/>
			<point x="436" y="728" type="qcurve" smooth="yes"/>
			<point x="436" y="738" type="line"/>
			<point x="614" y="738" type="line"/>
			<point x="614" y="728" type="line" smooth="yes"/>
			<point x="614" y="605"/>
			<point x="566" y="462"/>
			<point x="478" y="362" type="qcurve" smooth="yes"/>
			<point x="408" y="283"/>
			<point x="325" y="147"/>
			<point x="325" y="46" type="qcurve" smooth="yes"/>
			<point x="325" y="-60"/>
			<point x="408" y="-171"/>
			<point x="493" y="-171" type="qcurve" smooth="yes"/>
			<point x="578" y="-171"/>
			<point x="667" y="-69"/>
			<point x="667" y="33" type="qcurve" smooth="yes"/>
			<point x="667" y="53" type="line"/>
		</contour>
	</outline>
	<guideline x="0" y="-181" angle="0" identifier="apukwP5ffL"/>
	<guideline x="0" y="921" angle="0" identifier="5ZPZZL8Rim"/>
</glyph>
<glyph name="AE" format="2">
	<unicode hex="00C6"/>
	<advance width="1692"/>
	<outline>
		<contour>
			<point x="272" y="363" type="line"/>
			<point x="372" y="517" type="line"/>
			<point x="935" y="517" type="line"/>
			<point x="935" y="363" type="line"/>
		</contour>
		<contour>
			<point x="0" y="0" type="line"/>
			<point x="762" y="1456" type="line"/>
			<point x="1614" y="1456" type="line"/>
			<point x="1614" y="1303" type="line"/>
			<point x="1014" y="1303" type="line"/>
			<point x="1014" y="828" type="line"/>
			<point x="1522" y="828" type="line"/>
			<point x="1522" y="674" type="line"/>
			<point x="1014" y="674" type="line"/>
			<point x="1014" y="153" type="line"/>
			<point x="1624" y="153" type="line"/>
			<point x="1624" y="0" type="line"/>
			<point x="830" y="0" type="line"/>
			<point x="830" y="1258" type="line"/>
			<point x="182" y="0" type="line"/>
		</contour>
	</outline>
	<anchor name="top" x="921" y="1456"/>
</glyph>
<glyph name="multiply" format="2">
	<unicode hex="00D7"/>
	<advance width="990"/>
	<outline>
		<contour>
			<point x="205" y="270" type="line"/>
			<point x="103" y="376" type="line"/>
			<point x="791" y="1071" type="line"/>
			<point x="893" y="964" type="line"/>
		</contour>
		<contour>
			<point x="784" y="271" type="line"/>
			<point x="107" y="954" type="line"/>
			<point x="217" y="1069" type="line"/>
			<point x="894" y="385" type="line"/>
		</contour>
	</outline>
</glyph>
<glyph name="germandbls" format="2">
	<unicode hex="00DF"/>
	<advance width="1178"/>
	<outline>
		<contour>
			<point name="hr00" x="327" y="1092" type="qcurve"/>
			<point x="327" y="0" type="line"/>
			<point x="148" y="0" type="line"/>
			<point x="148" y="1092" type="line" smooth="yes"/>
			<point x="148" y="1295"/>
			<point x="356" y="1534"/>
			<point x="555" y="1534" type="qcurve" smooth="yes"/>
			<point x="719" y="1534"/>
			<point x="897" y="1361"/>
			<point x="897" y="1215" type="qcurve" smooth="yes"/>
			<point x="897" y="1127"/>
			<point x="857" y="1016"/>
			<point x="820" y="973" type="qcurve" smooth="yes"/>
			<point x="788" y="935"/>
			<point x="734" y="859"/>
			<point x="734" y="830" type="qcurve" smooth="yes"/>
			<point x="734" y="782"/>
			<point x="852" y="681"/>
			<point x="933" y="619" type="qcurve" smooth="yes"/>
			<point x="1011" y="560"/>
			<point x="1098" y="411"/>
			<point x="1098" y="282" type="qcurve" smooth="yes"/>
			<point x="1098" y="136"/>
			<point x="919" y="-20"/>
			<point x="753" y="-20" type="qcurve" smooth="yes"/>
			<point x="598" y="-20"/>
			<point x="432" y="134"/>
			<point x="432" y="278" type="qcurve" smooth="yes"/>
			<point x="432" y="304" type="line"/>
			<point x="595" y="304" type="line"/>
			<point x="595" y="295" type="line" smooth="yes"/>
			<point x="595" y="216"/>
			<point x="678" y="131"/>
			<point x="755" y="131" type="qcurve" smooth="yes"/>
			<point x="836" y="131"/>
			<point x="923" y="220"/>
			<point x="923" y="302" type="qcurve" smooth="yes"/>
			<point x="923" y="371"/>
			<point x="844" y="466"/>
			<point x="787" y="512" type="qcurve" smooth="yes"/>
			<point x="715" y="569"/>
			<point x="563" y="706"/>
			<point x="563" y="797" type="qcurve" smooth="yes"/>
			<point x="563" y="871"/>
			<point x="636" y="982"/>
			<point x="668" y="1026" type="qcurve" smooth="yes"/>
			<point x="697" y="1066"/>
			<point x="722" y="1149"/>
			<point x="722" y="1204" type="qcurve" smooth="yes"/>
			<point x="722" y="1293"/>
			<point x="633" y="1383"/>
			<point x="551" y="1383" type="qcurve" smooth="yes"/>
			<point x="448" y="1383"/>
			<point x="327" y="1241"/>
		</contour>
	</outline>
</glyph>
<glyph name="ae" format="2">
	<unicode hex="00E6"/>
	<advance width="1499"/>
	<outline>
		<contour>
			<point x="268" y="308" type="qcurve" smooth="yes"/>
			<point x="268" y="212"/>
			<point x="350" y="124"/>
			<point x="429" y="124" type="qcurve" smooth="yes"/>
			<point x="513" y="124"/>
			<point x="656" y="243"/>
			<point x="656" y="344" type="qcurve" smooth="yes"/>
			<point x="656" y="518" type="line"/>
			<point x="491" y="518" type="line" smooth="yes"/>
			<point x="383" y="518"/>
			<point x="268" y="418"/>
		</contour>
		<contour>
			<point x="90" y="308" type="qcurve" smooth="yes"/>
			<point x="90" y="473"/>
			<point x="296" y="646"/>
			<point x="474" y="646" type="qcurve" smooth="yes"/>
			<point x="656" y="646" type="line"/>
			<point x="656" y="720" type="line" smooth="yes"/>
			<point x="656" y="817"/>
			<point x="582" y="938"/>
			<point x="491" y="938" type="qcurve" smooth="yes"/>
			<point x="400" y="938"/>
			<point x="321" y="837"/>
			<point x="321" y="770" type="qcurve" smooth="yes"/>
			<point x="321" y="765" type="line"/>
			<point x="144" y="765" type="line"/>
			<point x="144" y="770" type="line" smooth="yes"/>
			<point x="144" y="905"/>
			<point x="334" y="1082"/>
			<point x="495" y="1082" type="qcurve" smooth="yes"/>
			<point x="593" y="1082"/>
			<point x="737" y="1021"/>
			<point x="778" y="956" type="qcurve"/>
			<point x="831" y="1017"/>
			<point x="975" y="1082"/>
			<point x="1062" y="1082" type="qcurve" smooth="yes"/>
			<point x="1245" y="1082"/>
			<point x="1443" y="820"/>
			<point x="1443" y="560" type="qcurve" smooth="yes"/>
			<point x="1443" y="486" type="line"/>
			<point x="755" y="486" type="line"/>
			<point x="755" y="630" type="line"/>
			<point x="1263" y="630" type="line"/>
			<point x="1263" y="651" type="line" smooth="yes"/>
			<point x="1263" y="772"/>
			<point x="1172" y="934"/>
			<point x="1062" y="934" type="qcurve" smooth="yes"/>
			<point x="951" y="934"/>
			<point x="835" y="757"/>
			<point x="835" y="572" type="qcurve" smooth="yes"/>
			<point x="835" y="480" type="line" smooth="yes"/>
			<point x="835" y="303"/>
			<point x="950" y="118"/>
			<point x="1078" y="118" type="qcurve" smooth="yes"/>
			<point x="1167" y="118"/>
			<point x="1279" y="206"/>
			<point x="1317" y="265" type="qcurve"/>
			<point x="1448" y="186" type="line"/>
			<point x="1400" y="92"/>
			<point x="1215" y="-30"/>
			<point x="1088" y="-30" type="qcurve" smooth="yes"/>
			<point x="966" y="-30"/>
			<point x="786" y="68"/>
			<point x="733" y="161" type="qcurve"/>
			<point x="679" y="73"/>
			<point x="506" y="-20"/>
			<point x="397" y="-20" type="qcurve" smooth="yes"/>
			<point x="268" y="-20"/>
			<point x="90" y="139"/>
		</contour>
	</outline>
	<anchor name="top" x="779" y="1052"/>
</glyph>
<glyph name="divide" format="2">
	<unicode hex="00F7"/>
	<advance width="990"/>
	<outline>
		<contour>
			<point x="336" y="1065" type="qcurve" smooth="yes"/>
			<point x="336" y="1118"/>
			<point x="399" y="1188"/>
			<point x="461" y="1188" type="qcurve" smooth="yes"/>
			<point x="522" y="1188"/>
			<point x="587" y="1118"/>
			<point x="587" y="1065" type="qcurve" smooth="yes"/>
			<point x="587" y="1014"/>
			<point x="522" y="945"/>
			<point x="461" y="945" type="qcurve" smooth="yes"/>
			<point x="399" y="945"/>
			<point x="336" y="1014"/>
		</contour>
		<contour>
			<point x="336" y="288" type="qcurve" smooth="yes"/>
			<point x="336" y="340"/>
			<point x="399" y="411"/>
			<point x="461" y="411" type="qcurve" smooth="yes"/>
			<point x="522" y="411"/>
			<point x="587" y="340"/>
			<point x="587" y="288" type="qcurve" smooth="yes"/>
			<point x="587" y="237"/>
			<point x="522" y="167"/>
			<point x="461" y="167" type="qcurve" smooth="yes"/>
			<point x="399" y="167"/>
			<point x="336" y="237"/>
		</contour>
		<contour>
			<point x="57" y="588" type="line"/>
			<point x="57" y="768" type="line"/>
			<point x="867" y="768" type="line"/>
			<point x="867" y="588" type="line"/>
		</contour>
	</outline>
</glyph>
<glyph name="idotless" format="2">
  <advance width="492"/>
  <unicode hex="0131"/>
  <outline>
    <contour>
      <point x="157" y="0" type="line"/>
      <point x="157" y="1052" type="line"/>
      <point x="335" y="1052" type="line"/>
      <point x="335" y="0" type="line"/>
    </contour>
  </outline>
</glyph>
<glyph name="oe" format="2">
	<unicode hex="0153"/>
	<advance width="1594"/>
	<outline>
		<contour>
			<point x="267" y="572" type="qcurve" smooth="yes"/>
			<point x="267" y="480" type="line" smooth="yes"/>
			<point x="267" y="315"/>
			<point x="388" y="118"/>
			<point x="508" y="118" type="qcurve" smooth="yes"/>
			<point x="628" y="118"/>
			<point x="750" y="315"/>
			<point x="750" y="480" type="qcurve" smooth="yes"/>
			<point x="750" y="572" type="line" smooth="yes"/>
			<point x="750" y="742"/>
			<point x="634" y="934"/>
			<point x="508" y="934" type="qcurve" smooth="yes"/>
			<point x="382" y="934"/>
			<point x="267" y="737"/>
		</contour>
		<contour>
			<point x="839" y="909" type="qcurve"/>
			<point x="892" y="993"/>
			<point x="1055" y="1082"/>
			<point x="1157" y="1082" type="qcurve" smooth="yes"/>
			<point x="1340" y="1082"/>
			<point x="1538" y="820"/>
			<point x="1538" y="560" type="qcurve" smooth="yes"/>
			<point x="1538" y="486" type="line"/>
			<point x="850" y="486" type="line"/>
			<point x="850" y="630" type="line"/>
			<point x="1358" y="630" type="line"/>
			<point x="1358" y="651" type="line" smooth="yes"/>
			<point x="1358" y="772"/>
			<point x="1267" y="934"/>
			<point x="1157" y="934" type="qcurve" smooth="yes"/>
			<point x="1046" y="934"/>
			<point x="930" y="757"/>
			<point x="930" y="572" type="qcurve" smooth="yes"/>
			<point x="930" y="480" type="line" smooth="yes"/>
			<point x="930" y="303"/>
			<point x="1045" y="118"/>
			<point x="1173" y="118" type="qcurve" smooth="yes"/>
			<point x="1262" y="118"/>
			<point x="1374" y="206"/>
			<point x="1412" y="265" type="qcurve"/>
			<point x="1543" y="186" type="line"/>
			<point x="1495" y="92"/>
			<point x="1310" y="-30"/>
			<point x="1183" y="-30" type="qcurve" smooth="yes"/>
			<point x="1067" y="-30"/>
			<point x="893" y="58"/>
			<point x="839" y="142" type="qcurve"/>
			<point x="784" y="58"/>
			<point x="615" y="-30"/>
			<point x="508" y="-30" type="qcurve" smooth="yes"/>
			<point x="315" y="-30"/>
			<point x="85" y="252"/>
			<point x="85" y="510" type="qcurve" smooth="yes"/>
			<point x="85" y="542" type="line" smooth="yes"/>
			<point x="85" y="800"/>
			<point x="315" y="1082"/>
			<point x="508" y="1082" type="qcurve" smooth="yes"/>
			<point x="615" y="1082"/>
			<point x="785" y="993"/>
		</contour>
	</outline>
</glyph>
<glyph name="Schwa" format="2">
	<unicode hex="018F"/>
	<advance width="1306"/>
	<outline>
		<contour>
			<point x="64" y="1199" type="line"/>
			<point x="160" y="1353"/>
			<point x="437" y="1519"/>
			<point x="599" y="1519" type="qcurve" smooth="yes"/>
			<point x="932" y="1519"/>
			<point x="1226" y="1094"/>
			<point x="1226" y="789" type="qcurve" smooth="yes"/>
			<point x="1226" y="445"/>
			<point x="912" y="-30"/>
			<point x="622" y="-30" type="qcurve" smooth="yes"/>
			<point x="371" y="-30"/>
			<point x="102" y="285"/>
			<point x="102" y="578" type="qcurve" smooth="yes"/>
			<point x="102" y="686" type="line"/>
			<point x="1088" y="686" type="line"/>
			<point x="1088" y="554" type="line"/>
			<point x="595" y="562" type="line"/>
			<point x="298" y="556" type="line"/>
			<point x="298" y="481" type="line" smooth="yes"/>
			<point x="298" y="296"/>
			<point x="471" y="97"/>
			<point x="632" y="97" type="qcurve" smooth="yes"/>
			<point x="842" y="97"/>
			<point x="1037" y="462"/>
			<point x="1035" y="749" type="qcurve" smooth="yes"/>
			<point x="1033" y="1047"/>
			<point x="790" y="1375"/>
			<point x="581" y="1375" type="qcurve" smooth="yes"/>
			<point x="444" y="1375"/>
			<point x="225" y="1246"/>
			<point x="157" y="1126" type="qcurve"/>
		</contour>
	</outline>
</glyph>
<glyph name="florin" format="2">
	<unicode hex="0192"/>
	<advance width="945"/>
	<outline>
		<contour>
			<point x="788" y="878" type="line"/>
			<point x="788" y="744" type="line"/>
			<point x="515" y="744" type="line"/>
			<point x="515" y="111" type="line" smooth="yes"/>
			<point x="515" y="-178"/>
			<point x="320" y="-437"/>
			<point x="103" y="-437" type="qcurve" smooth="yes"/>
			<point x="72" y="-437"/>
			<point x="19" y="-430"/>
			<point x="-9" y="-420" type="qcurve"/>
			<point x="5" y="-271" type="line"/>
			<point x="20" y="-277"/>
			<point x="89" y="-284"/>
			<point x="103" y="-284" type="qcurve" smooth="yes"/>
			<point x="219" y="-284"/>
			<point x="326" y="-97"/>
			<point x="330" y="111" type="qcurve" smooth="yes"/>
			<point x="330" y="744" type="line"/>
			<point x="129" y="744" type="line"/>
			<point x="129" y="878" type="line"/>
			<point x="330" y="878" type="line"/>
			<point x="330" y="1126" type="line" smooth="yes"/>
			<point x="330" y="1301"/>
			<point x="491" y="1487"/>
			<point x="648" y="1487" type="qcurve" smooth="yes"/>
			<point x="719" y="1487"/>
			<point x="820" y="1452"/>
			<point x="883" y="1404" type="qcurve"/>
			<point x="802" y="1259" type="line"/>
			<point x="758" y="1294"/>
			<point x="694" y="1320"/>
			<point x="652" y="1320" type="qcurve" smooth="yes"/>
			<point x="582" y="1320"/>
			<point x="511" y="1224"/>
			<point x="515" y="1126" type="qcurve" smooth="yes"/>
			<point x="515" y="878" type="line"/>
		</contour>
	</outline>
</glyph>
<glyph name="schwa" format="2">
	<unicode hex="0259"/>
	<advance width="952"/>
	<outline>
		<contour>
			<point x="867" y="542" type="qcurve" smooth="yes"/>
			<point x="867" y="510" type="line" smooth="yes"/>
			<point x="867" y="252"/>
			<point x="644" y="-30"/>
			<point x="461" y="-30" type="qcurve" smooth="yes"/>
			<point x="278" y="-30"/>
			<point x="80" y="232"/>
			<point x="80" y="492" type="qcurve" smooth="yes"/>
			<point x="80" y="566" type="line"/>
			<point x="768" y="566" type="line"/>
			<point x="768" y="422" type="line"/>
			<point x="260" y="422" type="line"/>
			<point x="260" y="401" type="line" smooth="yes"/>
			<point x="260" y="280"/>
			<point x="351" y="118"/>
			<point x="461" y="118" type="qcurve" smooth="yes"/>
			<point x="572" y="118"/>
			<point x="688" y="295"/>
			<point x="688" y="480" type="qcurve" smooth="yes"/>
			<point x="688" y="572" type="line" smooth="yes"/>
			<point x="688" y="749"/>
			<point x="573" y="934"/>
			<point x="445" y="934" type="qcurve" smooth="yes"/>
			<point x="356" y="934"/>
			<point x="244" y="846"/>
			<point x="206" y="787" type="qcurve"/>
			<point x="75" y="866" type="line"/>
			<point x="123" y="960"/>
			<point x="308" y="1082"/>
			<point x="435" y="1082" type="qcurve" smooth="yes"/>
			<point x="644" y="1082"/>
			<point x="867" y="800"/>
		</contour>
	</outline>
</glyph>
<glyph name="commaaccentturned" format="2">
	<unicode hex="02BB"/>
	<advance width="1024"/>
	<outline>
		<contour>
			<point x="673.06" y="1663" type="line"/>
			<point x="644.06" y="1559"/>
			<point x="608.06" y="1419"/>
			<point x="585.06" y="1291" type="qcurve"/>
			<point x="383.06" y="1289" type="line"/>
			<point x="510.06" y="1666" type="line"/>
		</contour>
	</outline>
</glyph>
<glyph name="circumflex" format="2">
  <advance width="1024"/>
  <unicode hex="02C6"/>
  <outline>
    <contour>
      <point x="568.0" y="1533.0" type="line"/>
      <point x="816.0" y="1220.0" type="line"/>
      <point x="662.0" y="1220.0" type="line"/>
      <point x="512.0" y="1379.0" type="line"/>
      <point x="363.0" y="1220.0" type="line"/>
      <point x="211.0" y="1220.0" type="line"/>
      <point x="456.0" y="1533.0" type="line"/>
    </contour>
  </outline>
</glyph>
<glyph name="dotaccent" format="2">
  <advance width="1024"/>
  <unicode hex="02D9"/>
  <outline>
    <contour>
      <point x="406" y="1352" type="qcurve" smooth="yes"/>
      <point x="406" y="1396"/>
      <point x="461" y="1456"/>
      <point x="512" y="1456" type="qcurve" smooth="yes"/>
      <point x="563" y="1456"/>
      <point x="618" y="1396"/>
      <point x="618" y="1352" type="qcurve" smooth="yes"/>
      <point x="618" y="1308"/>
      <point x="563" y="1248"/>
      <point x="512" y="1248" type="qcurve" smooth="yes"/>
      <point x="461" y="1248"/>
      <point x="406" y="1308"/>
    </contour>
  </outline>
</glyph>
<glyph name="ogonek" format="2">
  <advance width="1024"/>
  <unicode hex="02DB"/>
  <outline>
    <contour>
      <point x="533.0" y="71.0" type="qcurve"/>
      <point x="607.0" y="14.0" type="line"/>
      <point x="543.0" y="-34.0"/>
      <point x="436.0" y="-143.0"/>
      <point x="436.0" y="-208.0" type="qcurve" smooth="yes"/>
      <point x="436.0" y="-241.0"/>
      <point x="471.0" y="-281.0"/>
      <point x="514.0" y="-281.0" type="qcurve" smooth="yes"/>
      <point x="547.0" y="-281.0"/>
      <point x="599.0" y="-262.0"/>
      <point x="614.0" y="-254.0" type="qcurve"/>
      <point x="628.0" y="-376.0" type="line"/>
      <point x="603.0" y="-391.0"/>
      <point x="526.0" y="-420.0"/>
      <point x="467.0" y="-420.0" type="qcurve" smooth="yes"/>
      <point x="386.0" y="-420.0"/>
      <point x="275.0" y="-322.0"/>
      <point x="275.0" y="-229.0" type="qcurve" smooth="yes"/>
      <point x="275.0" y="-149.0"/>
      <point x="397.0" y="8.0"/>
    </contour>
  </outline>
</glyph>
<glyph name="hungarumlaut" format="2">
	<unicode hex="02DD"/>
	<advance width="1024"/>
	<outline>
		<contour>
			<point x="342" y="1290" type="line"/>
			<point x="564" y="1584" type="line"/>
			<point x="696" y="1479" type="line"/>
			<point x="421" y="1204" type="line"/>
		</contour>
		<contour>
			<point x="628" y="1290" type="line"/>
			<point x="850" y="1584" type="line"/>
			<point x="982" y="1479" type="line"/>
			<point x="706" y="1204" type="line"/>
		</contour>
	</outline>
	<guideline x="0" y="901" angle="0" identifier="1emCWSQy5G"/>
	<guideline x="0" y="555" angle="0" identifier="s1MFYmxmed"/>
</glyph>
<glyph name="dotbelowcomb" format="2">
  <advance width="1024"/>
  <unicode hex="0323"/>
  <anchor x="512" y="0" name="_bottom"/>
  <anchor x="512" y="-407" name="bottom"/>
  <outline>
    <contour>
      <point x="406" y="-303" type="qcurve" smooth="yes"/>
      <point x="406" y="-259"/>
      <point x="461" y="-199"/>
      <point x="512" y="-199" type="qcurve" smooth="yes"/>
      <point x="563" y="-199"/>
      <point x="618" y="-259"/>
      <point x="618" y="-303" type="qcurve" smooth="yes"/>
      <point x="618" y="-347"/>
      <point x="563" y="-407"/>
      <point x="512" y="-407" type="qcurve" smooth="yes"/>
      <point x="461" y="-407"/>
      <point x="406" y="-347"/>
    </contour>
  </outline>
</glyph>
<glyph name="dieresisbelowcomb" format="2">
	<unicode hex="0324"/>
	<advance width="1024"/>
	<outline>
		<contour>
			<point x="273" y="-321" type="qcurve" smooth="yes"/>
			<point x="273" y="-276"/>
			<point x="329" y="-214"/>
			<point x="382" y="-214" type="qcurve" smooth="yes"/>
			<point x="436" y="-214"/>
			<point x="492" y="-276"/>
			<point x="492" y="-321" type="qcurve" smooth="yes"/>
			<point x="492" y="-364"/>
			<point x="436" y="-425"/>
			<point x="382" y="-425" type="qcurve" smooth="yes"/>
			<point x="329" y="-425"/>
			<point x="273" y="-364"/>
		</contour>
		<contour>
			<point x="624" y="-323" type="qcurve" smooth="yes"/>
			<point x="624" y="-278"/>
			<point x="679" y="-216"/>
			<point x="733" y="-216" type="qcurve" smooth="yes"/>
			<point x="786" y="-216"/>
			<point x="843" y="-278"/>
			<point x="843" y="-323" type="qcurve" smooth="yes"/>
			<point x="843" y="-366"/>
			<point x="786" y="-427"/>
			<point x="733" y="-427" type="qcurve" smooth="yes"/>
			<point x="679" y="-427"/>
			<point x="624" y="-366"/>
		</contour>
	</outline>
	<anchor name="_bottom" x="512" y="0"/>
	<anchor name="bottom" x="512" y="-427"/>
</glyph>
<glyph name="commaaccentcomb" format="2">
  <advance width="1024"/>
  <unicode hex="0326"/>
  <anchor x="512.0" y="0" name="_bottom"/>
  <anchor x="512.0" y="-600.0" name="bottom"/>
  <outline>
    <contour>
      <point x="375" y="-597" type="line"/>
      <point x="404" y="-493"/>
      <point x="440" y="-353"/>
      <point x="463" y="-225" type="qcurve"/>
      <point x="665" y="-223" type="line"/>
      <point x="538" y="-600" type="line"/>
    </contour>
  </outline>
</glyph>
<glyph name="brevebelowcomb" format="2">
	<unicode hex="032E"/>
	<advance width="1024"/>
	<outline>
		<contour>
			<point x="754" y="-143" type="qcurve"/>
			<point x="849" y="-197" type="line"/>
			<point x="814" y="-296"/>
			<point x="639" y="-463"/>
			<point x="513" y="-463" type="qcurve" smooth="yes"/>
			<point x="400" y="-463"/>
			<point x="219" y="-310"/>
			<point x="177" y="-196" type="qcurve"/>
			<point x="281" y="-143" type="line"/>
			<point x="316" y="-200"/>
			<point x="435" y="-299"/>
			<point x="514" y="-299" type="qcurve" smooth="yes"/>
			<point x="598" y="-299"/>
			<point x="718" y="-204"/>
		</contour>
	</outline>
	<anchor name="_bottom" x="512" y="0"/>
	<anchor name="bottom" x="512" y="-463"/>
</glyph>
<glyph name="macronbelowcomb" format="2">
	<unicode hex="0331"/>
	<advance width="1024"/>
	<outline>
		<contour>
			<point x="248" y="-255" type="line"/>
			<point x="248" y="-103" type="line"/>
			<point x="776" y="-103" type="line"/>
			<point x="776" y="-255" type="line"/>
		</contour>
	</outline>
</glyph>
<glyph name="numeralsign" format="2">
	<unicode hex="0374"/>
	<advance width="578"/>
	<outline>
		<contour>
			<point x="237" y="1073" type="line"/>
			<point x="114" y="1103" type="line"/>
			<point x="203" y="1556" type="line"/>
			<point x="388" y="1537" type="line"/>
		</contour>
	</outline>
</glyph>
<glyph name="lownumeralsign" format="2">
	<unicode hex="0375"/>
	<advance width="578"/>
	<outline>
		<contour>
			<point x="265" y="285" type="line"/>
			<point x="388" y="255" type="line"/>
			<point x="299" y="-198" type="line"/>
			<point x="114" y="-179" type="line"/>
		</contour>
	</outline>
</glyph>
<glyph name="tonos" format="2">
	<unicode hex="0384"/>
	<advance width="888"/>
	<outline>
		<contour>
			<point x="478" y="1218" type="line"/>
			<point x="355" y="1248" type="line"/>
			<point x="428" y="1620" type="line"/>
			<point x="613" y="1601" type="line"/>
		</contour>
	</outline>
</glyph>
<glyph name="Delta" format="2">
	<unicode hex="0394"/>
	<advance width="1099"/>
	<outline>
		<contour>
			<point x="20" y="0" type="line"/>
			<point x="20" y="107" type="line"/>
			<point x="452" y="1466" type="line"/>
			<point x="646" y="1466" type="line"/>
			<point x="1079" y="107" type="line"/>
			<point x="1079" y="0" type="line"/>
		</contour>
		<contour>
			<point x="214" y="154" type="line"/>
			<point x="878" y="154" type="line"/>
			<point x="582" y="1108" type="line" smooth="yes"/>
			<point x="571" y="1142"/>
			<point x="558" y="1204"/>
			<point x="552" y="1236" type="qcurve"/>
			<point x="544" y="1236" type="line"/>
			<point x="538" y="1204"/>
			<point x="522" y="1142"/>
			<point x="512" y="1108" type="qcurve" smooth="yes"/>
		</contour>
	</outline>
</glyph>
<glyph name="Theta" format="2">
	<unicode hex="0398"/>
	<advance width="1274"/>
	<outline>
		<contour>
			<point x="637" y="-30" type="qcurve" smooth="yes"/>
			<point x="404" y="-30"/>
			<point x="115" y="326"/>
			<point x="115" y="682" type="qcurve" smooth="yes"/>
			<point x="115" y="774" type="line" smooth="yes"/>
			<point x="115" y="1130"/>
			<point x="404" y="1486"/>
			<point x="637" y="1486" type="qcurve" smooth="yes"/>
			<point x="870" y="1486"/>
			<point x="1158" y="1130"/>
			<point x="1158" y="774" type="qcurve" smooth="yes"/>
			<point x="1158" y="682" type="line" smooth="yes"/>
			<point x="1158" y="326"/>
			<point x="870" y="-30"/>
		</contour>
		<contour>
			<point x="637" y="129" type="qcurve" smooth="yes"/>
			<point x="794" y="129"/>
			<point x="972" y="394"/>
			<point x="972" y="652" type="qcurve" smooth="yes"/>
			<point x="972" y="805" type="line" smooth="yes"/>
			<point x="972" y="1063"/>
			<point x="794" y="1327"/>
			<point x="637" y="1327" type="qcurve" smooth="yes"/>
			<point x="480" y="1327"/>
			<point x="300" y="1063"/>
			<point x="300" y="805" type="qcurve" smooth="yes"/>
			<point x="300" y="652" type="line" smooth="yes"/>
			<point x="300" y="394"/>
			<point x="480" y="129"/>
		</contour>
		<contour>
			<point x="405" y="659" type="line"/>
			<point x="405" y="827" type="line"/>
			<point x="867" y="827" type="line"/>
			<point x="867" y="659" type="line"/>
		</contour>
	</outline>
</glyph>
<glyph name="Lambda" format="2">
	<unicode hex="039B"/>
	<advance width="1047"/>
	<outline>
		<contour>
			<point x="0" y="0" type="line"/>
			<point x="426" y="1466" type="line"/>
			<point x="620" y="1466" type="line"/>
			<point x="1047" y="0" type="line"/>
			<point x="860" y="0" type="line"/>
			<point x="559" y="1108" type="line" smooth="yes"/>
			<point x="550" y="1142"/>
			<point x="532" y="1204"/>
			<point x="526" y="1236" type="qcurve"/>
			<point x="518" y="1236" type="line"/>
			<point x="512" y="1204"/>
			<point x="492" y="1142"/>
			<point x="483" y="1108" type="qcurve" smooth="yes"/>
			<point x="180" y="0" type="line"/>
		</contour>
	</outline>
</glyph>
<glyph name="Xi" format="2">
	<unicode hex="039E"/>
	<advance width="1020"/>
	<outline>
		<contour>
			<point x="68" y="0" type="line"/>
			<point x="68" y="173" type="line"/>
			<point x="952" y="173" type="line"/>
			<point x="952" y="0" type="line"/>
		</contour>
		<contour>
			<point x="170" y="656" type="line"/>
			<point x="170" y="830" type="line"/>
			<point x="850" y="830" type="line"/>
			<point x="850" y="656" type="line"/>
		</contour>
		<contour>
			<point x="68" y="1283" type="line"/>
			<point x="68" y="1456" type="line"/>
			<point x="952" y="1456" type="line"/>
			<point x="952" y="1283" type="line"/>
		</contour>
	</outline>
</glyph>
<glyph name="Sigma" format="2">
	<unicode hex="03A3"/>
	<advance width="996"/>
	<outline>
		<contour>
			<point x="36" y="0" type="line"/>
			<point x="36" y="125" type="line"/>
			<point x="398" y="748" type="line"/>
			<point x="410" y="702" type="line"/>
			<point x="50" y="1321" type="line"/>
			<point x="50" y="1456" type="line"/>
			<point x="926" y="1456" type="line"/>
			<point x="926" y="1303" type="line"/>
			<point x="227" y="1303" type="line"/>
			<point x="253" y="1322" type="line"/>
			<point x="582" y="756" type="line"/>
			<point x="582" y="726" type="line"/>
			<point x="236" y="135" type="line"/>
			<point x="236" y="153" type="line"/>
			<point x="960" y="153" type="line"/>
			<point x="960" y="0" type="line"/>
		</contour>
	</outline>
</glyph>
<glyph name="Phi" format="2">
	<unicode hex="03A6"/>
	<advance width="1474"/>
	<outline>
		<contour>
			<point x="829" y="1476" type="line"/>
			<point x="829" y="1283" type="line"/>
			<point x="837" y="1283" type="line" smooth="yes"/>
			<point x="1093" y="1283"/>
			<point x="1379" y="991"/>
			<point x="1379" y="738" type="qcurve" smooth="yes"/>
			<point x="1379" y="485"/>
			<point x="1093" y="194"/>
			<point x="837" y="194" type="qcurve" smooth="yes"/>
			<point x="829" y="194" type="line"/>
			<point x="829" y="-20" type="line"/>
			<point x="645" y="-20" type="line"/>
			<point x="645" y="194" type="line"/>
			<point x="637" y="194" type="line" smooth="yes"/>
			<point x="382" y="194"/>
			<point x="95" y="486"/>
			<point x="95" y="739" type="qcurve" smooth="yes"/>
			<point x="95" y="992"/>
			<point x="382" y="1283"/>
			<point x="637" y="1283" type="qcurve" smooth="yes"/>
			<point x="645" y="1283" type="line"/>
			<point x="645" y="1476" type="line"/>
		</contour>
		<contour>
			<point x="837" y="1132" type="qcurve" smooth="yes"/>
			<point x="829" y="1132" type="line"/>
			<point x="829" y="345" type="line"/>
			<point x="837" y="345" type="line" smooth="yes"/>
			<point x="1023" y="345"/>
			<point x="1198" y="545"/>
			<point x="1198" y="736" type="qcurve" smooth="yes"/>
			<point x="1198" y="925"/>
			<point x="1023" y="1132"/>
		</contour>
		<contour>
			<point x="637" y="1132" type="line" smooth="yes"/>
			<point x="451" y="1132"/>
			<point x="276" y="932"/>
			<point x="276" y="741" type="qcurve" smooth="yes"/>
			<point x="276" y="552"/>
			<point x="451" y="345"/>
			<point x="637" y="345" type="qcurve" smooth="yes"/>
			<point x="645" y="345" type="line"/>
			<point x="645" y="1132" type="line"/>
		</contour>
	</outline>
</glyph>
<glyph name="Psi" format="2">
	<unicode hex="03A8"/>
	<advance width="1519"/>
	<outline>
		<contour>
			<point x="667" y="0" type="line"/>
			<point x="667" y="1456" type="line"/>
			<point x="850" y="1456" type="line"/>
			<point x="850" y="0" type="line"/>
		</contour>
		<contour>
			<point x="727" y="361" type="line"/>
			<point x="699" y="361" type="line" smooth="yes"/>
			<point x="423" y="361"/>
			<point x="155" y="635"/>
			<point x="155" y="928" type="qcurve" smooth="yes"/>
			<point x="155" y="1456" type="line"/>
			<point x="338" y="1456" type="line"/>
			<point x="338" y="926" type="line" smooth="yes"/>
			<point x="338" y="670"/>
			<point x="547" y="520"/>
			<point x="709" y="520" type="qcurve" smooth="yes"/>
			<point x="727" y="520" type="line"/>
		</contour>
		<contour>
			<point x="791" y="361" type="line"/>
			<point x="791" y="520" type="line"/>
			<point x="809" y="520" type="line" smooth="yes"/>
			<point x="972" y="520"/>
			<point x="1180" y="670"/>
			<point x="1180" y="926" type="qcurve" smooth="yes"/>
			<point x="1180" y="1456" type="line"/>
			<point x="1363" y="1456" type="line"/>
			<point x="1363" y="928" type="line" smooth="yes"/>
			<point x="1363" y="635"/>
			<point x="1095" y="361"/>
			<point x="819" y="361" type="qcurve" smooth="yes"/>
		</contour>
	</outline>
</glyph>
<glyph name="Omega" format="2">
	<unicode hex="03A9"/>
	<advance width="1123"/>
	<outline>
		<contour>
			<point x="24" y="0" type="line"/>
			<point x="24" y="153" type="line"/>
			<point x="312" y="153" type="line"/>
			<point x="312" y="323" type="line"/>
			<point x="176" y="385"/>
			<point x="24" y="636"/>
			<point x="24" y="845" type="qcurve"/>
			<point x="24" y="901" type="line"/>
			<point x="24" y="1181"/>
			<point x="317" y="1486"/>
			<point x="561" y="1486" type="qcurve"/>
			<point x="806" y="1486"/>
			<point x="1099" y="1181"/>
			<point x="1099" y="901" type="qcurve"/>
			<point x="1099" y="845" type="line"/>
			<point x="1099" y="636"/>
			<point x="946" y="385"/>
			<point x="810" y="323" type="qcurve"/>
			<point x="810" y="153" type="line"/>
			<point x="1099" y="153" type="line"/>
			<point x="1099" y="0" type="line"/>
			<point x="646" y="0" type="line"/>
			<point x="646" y="437" type="line"/>
			<point x="782" y="468"/>
			<point x="913" y="694"/>
			<point x="913" y="845" type="qcurve"/>
			<point x="913" y="901" type="line"/>
			<point x="913" y="1105"/>
			<point x="734" y="1327"/>
			<point x="561" y="1327" type="qcurve"/>
			<point x="388" y="1327"/>
			<point x="209" y="1105"/>
			<point x="209" y="901" type="qcurve"/>
			<point x="209" y="845" type="line"/>
			<point x="209" y="694"/>
			<point x="339" y="468"/>
			<point x="476" y="437" type="qcurve"/>
			<point x="476" y="0" type="line"/>
		</contour>
	</outline>
</glyph>
<glyph name="alpha" format="2">
	<unicode hex="03B1"/>
	<advance width="1073"/>
	<outline>
		<contour>
			<point x="452" y="-20" type="qcurve" smooth="yes"/>
			<point x="283" y="-20"/>
			<point x="85" y="280"/>
			<point x="85" y="510" type="qcurve" smooth="yes"/>
			<point x="85" y="542" type="line" smooth="yes"/>
			<point x="85" y="771"/>
			<point x="283" y="1072"/>
			<point x="450" y="1072" type="qcurve" smooth="yes"/>
			<point x="537" y="1072"/>
			<point x="673" y="995"/>
			<point x="710" y="930" type="qcurve"/>
			<point x="714" y="930" type="line"/>
			<point x="721" y="1052" type="line"/>
			<point x="884" y="1052" type="line"/>
			<point x="884" y="242" type="line" smooth="yes"/>
			<point x="884" y="163"/>
			<point x="923" y="125"/>
			<point x="959" y="125" type="qcurve" smooth="yes"/>
			<point x="975" y="125"/>
			<point x="1008" y="133"/>
			<point x="1023" y="140" type="qcurve"/>
			<point x="1023" y="-3" type="line"/>
			<point x="1007" y="-13"/>
			<point x="938" y="-30"/>
			<point x="910" y="-30" type="qcurve"/>
			<point x="832" y="-30"/>
			<point x="741" y="38"/>
			<point x="722" y="125" type="qcurve"/>
			<point x="718" y="125" type="line"/>
			<point x="691" y="63"/>
			<point x="549" y="-20"/>
		</contour>
		<contour>
			<point x="495" y="128" type="qcurve" smooth="yes"/>
			<point x="568" y="128"/>
			<point x="680" y="220"/>
			<point x="706" y="290" type="qcurve"/>
			<point x="706" y="774" type="line"/>
			<point x="683" y="831"/>
			<point x="582" y="924"/>
			<point x="502" y="924" type="qcurve" smooth="yes"/>
			<point x="387" y="924"/>
			<point x="267" y="745"/>
			<point x="267" y="572" type="qcurve"/>
			<point x="267" y="490" type="line" smooth="yes"/>
			<point x="267" y="316"/>
			<point x="378" y="128"/>
		</contour>
	</outline>
</glyph>
<glyph name="beta" format="2">
	<unicode hex="03B2"/>
	<advance width="1052"/>
	<outline>
		<contour>
			<point x="148" y="-416" type="line"/>
			<point x="148" y="1058" type="line" smooth="yes"/>
			<point x="148" y="1311"/>
			<point x="356" y="1556"/>
			<point x="522" y="1556" type="qcurve" smooth="yes"/>
			<point x="694" y="1556"/>
			<point x="878" y="1358"/>
			<point x="878" y="1165" type="qcurve" smooth="yes"/>
			<point x="878" y="1019"/>
			<point x="753" y="837"/>
			<point x="660" y="824" type="qcurve"/>
			<point x="660" y="850" type="line"/>
			<point x="823" y="824"/>
			<point x="967" y="617"/>
			<point x="967" y="463" type="qcurve" smooth="yes"/>
			<point x="967" y="247"/>
			<point x="749" y="-20"/>
			<point x="585" y="-20" type="qcurve" smooth="yes"/>
			<point x="494" y="-20"/>
			<point x="368" y="39"/>
			<point x="326" y="102" type="qcurve"/>
			<point x="326" y="-416" type="line"/>
		</contour>
		<contour>
			<point x="547" y="128" type="qcurve"/>
			<point x="675" y="128"/>
			<point x="785" y="295"/>
			<point x="785" y="452" type="qcurve" smooth="yes"/>
			<point x="785.3086853027" y="621.6913146973"/>
			<point x="642" y="764"/>
			<point x="501" y="764" type="qcurve" smooth="yes"/>
			<point x="430" y="764" type="line"/>
			<point x="430" y="902" type="line"/>
			<point x="502" y="902" type="line" smooth="yes"/>
			<point x="606" y="902"/>
			<point x="711" y="1036"/>
			<point x="711" y="1156" type="qcurve" smooth="yes"/>
			<point x="711" y="1278"/>
			<point x="602" y="1408"/>
			<point x="519" y="1408" type="qcurve" smooth="yes"/>
			<point x="425" y="1408"/>
			<point x="326" y="1265"/>
			<point x="326" y="1095" type="qcurve" smooth="yes"/>
			<point x="326" y="276" type="line"/>
			<point x="355" y="216"/>
			<point x="457" y="128"/>
		</contour>
	</outline>
</glyph>
<glyph name="gamma" format="2">
	<unicode hex="03B3"/>
	<advance width="810"/>
	<outline>
		<contour>
			<point x="315" y="-366" type="line"/>
			<point x="315" y="56" type="line"/>
			<point x="0" y="1052" type="line"/>
			<point x="180" y="1052" type="line"/>
			<point x="372" y="375" type="line" smooth="yes"/>
			<point x="388" y="320"/>
			<point x="403" y="238"/>
			<point x="404" y="220" type="qcurve"/>
			<point x="409" y="220" type="line"/>
			<point x="410" y="238"/>
			<point x="427" y="320"/>
			<point x="443" y="375" type="qcurve" smooth="yes"/>
			<point x="635" y="1052" type="line"/>
			<point x="810" y="1052" type="line"/>
			<point x="493" y="56" type="line"/>
			<point x="493" y="-366" type="line"/>
		</contour>
	</outline>
</glyph>
<glyph name="delta" format="2">
	<unicode hex="03B4"/>
	<advance width="996"/>
	<outline>
		<contour>
			<point x="495" y="-30" type="qcurve" smooth="yes"/>
			<point x="312" y="-30"/>
			<point x="85" y="225"/>
			<point x="85" y="456" type="qcurve" smooth="yes"/>
			<point x="85" y="477" type="line" smooth="yes"/>
			<point x="85" y="669"/>
			<point x="293" y="954"/>
			<point x="503" y="981" type="qcurve"/>
			<point x="621" y="905" type="line"/>
			<point x="422" y="887"/>
			<point x="265" y="670"/>
			<point x="265" y="478" type="qcurve" smooth="yes"/>
			<point x="265" y="456" type="line" smooth="yes"/>
			<point x="265" y="288"/>
			<point x="385" y="119"/>
			<point x="496" y="119" type="qcurve" smooth="yes"/>
			<point x="609" y="119"/>
			<point x="731" y="319"/>
			<point x="731" y="457" type="qcurve" smooth="yes"/>
			<point x="731" y="489" type="line" smooth="yes"/>
			<point x="731" y="654"/>
			<point x="629" y="827"/>
			<point x="474" y="910" type="qcurve"/>
			<point x="330" y="997"/>
			<point x="239" y="1140"/>
			<point x="240" y="1246" type="qcurve"/>
			<point x="239" y="1377"/>
			<point x="421" y="1556"/>
			<point x="585" y="1556" type="qcurve"/>
			<point x="671" y="1556"/>
			<point x="806" y="1516"/>
			<point x="846" y="1487" type="qcurve"/>
			<point x="817" y="1331" type="line"/>
			<point x="778" y="1363"/>
			<point x="654" y="1408"/>
			<point x="585" y="1408" type="qcurve"/>
			<point x="491" y="1408"/>
			<point x="401" y="1321"/>
			<point x="401" y="1250" type="qcurve"/>
			<point x="401" y="1185"/>
			<point x="470" y="1100"/>
			<point x="615" y="1007" type="qcurve" smooth="yes"/>
			<point x="770" y="908"/>
			<point x="912" y="649"/>
			<point x="912" y="491" type="qcurve" smooth="yes"/>
			<point x="912" y="459" type="line" smooth="yes"/>
			<point x="912" y="238"/>
			<point x="684" y="-30"/>
		</contour>
	</outline>
</glyph>
<glyph name="epsilon" format="2">
	<unicode hex="03B5"/>
	<advance width="890"/>
	<outline>
		<contour>
			<point x="443" y="-30" type="qcurve"/>
			<point x="258" y="-30"/>
			<point x="66" y="143"/>
			<point x="66" y="276" type="qcurve"/>
			<point x="66" y="400"/>
			<point x="197" y="527"/>
			<point x="304" y="536" type="qcurve"/>
			<point x="304" y="514" type="line"/>
			<point x="213" y="531"/>
			<point x="106" y="658"/>
			<point x="106" y="756" type="qcurve"/>
			<point x="106" y="904"/>
			<point x="303" y="1081"/>
			<point x="470" y="1081" type="qcurve" smooth="yes"/>
			<point x="663" y="1081"/>
			<point x="846" y="863"/>
			<point x="845" y="710" type="qcurve"/>
			<point x="674" y="710" type="line"/>
			<point x="674" y="807"/>
			<point x="585" y="933"/>
			<point x="470" y="933" type="qcurve" smooth="yes"/>
			<point x="384" y="933"/>
			<point x="288" y="836"/>
			<point x="288" y="755" type="qcurve"/>
			<point x="288" y="680"/>
			<point x="362" y="597"/>
			<point x="455" y="597" type="qcurve" smooth="yes"/>
			<point x="595" y="597" type="line"/>
			<point x="595" y="459" type="line"/>
			<point x="455" y="459" type="line" smooth="yes"/>
			<point x="336" y="459"/>
			<point x="248" y="369"/>
			<point x="248" y="296" type="qcurve" smooth="yes"/>
			<point x="248" y="203"/>
			<point x="356" y="118"/>
			<point x="453" y="118" type="qcurve"/>
			<point x="572" y="118"/>
			<point x="673" y="241"/>
			<point x="673" y="342" type="qcurve"/>
			<point x="845" y="342" type="line"/>
			<point x="845" y="182"/>
			<point x="642" y="-30"/>
		</contour>
	</outline>
	<guideline x="282" y="589" angle="90" identifier="TiC6SUqFCh"/>
</glyph>
<glyph name="zeta" format="2">
	<unicode hex="03B6"/>
	<advance width="671"/>
	<outline>
		<contour>
			<point x="496" y="-348" type="line"/>
			<point x="521" y="-282"/>
			<point x="542" y="-184"/>
			<point x="542" y="-142" type="qcurve" smooth="yes"/>
			<point x="542" y="-75"/>
			<point x="488" y="-20"/>
			<point x="431" y="-4" type="qcurve" smooth="yes"/>
			<point x="335" y="23" type="line" smooth="yes"/>
			<point x="200" y="61"/>
			<point x="45" y="207"/>
			<point x="45" y="342" type="qcurve"/>
			<point x="45" y="444"/>
			<point x="127.8241872807" y="682.6893221242"/>
			<point x="301" y="998" type="qcurve" smooth="yes"/>
			<point x="530" y="1414" type="line"/>
			<point x="546" y="1388" type="line"/>
			<point x="50" y="1388" type="line"/>
			<point x="50" y="1536" type="line"/>
			<point x="706" y="1536" type="line"/>
			<point x="706" y="1399" type="line"/>
			<point x="443" y="916" type="line" smooth="yes"/>
			<point x="341" y="729"/>
			<point x="227" y="468"/>
			<point x="227" y="353" type="qcurve" smooth="yes"/>
			<point x="227" y="296"/>
			<point x="302" y="204"/>
			<point x="409" y="174" type="qcurve" smooth="yes"/>
			<point x="504" y="147" type="line" smooth="yes"/>
			<point x="623" y="113"/>
			<point x="714" y="10"/>
			<point x="714" y="-84" type="qcurve" smooth="yes"/>
			<point x="714" y="-150"/>
			<point x="689" y="-277"/>
			<point x="661" y="-348" type="qcurve"/>
		</contour>
	</outline>
</glyph>
<glyph name="theta" format="2">
	<unicode hex="03B8"/>
	<advance width="997"/>
	<outline>
		<contour>
			<point x="500" y="-30" type="qcurve" smooth="yes"/>
			<point x="318" y="-30"/>
			<point x="95" y="264"/>
			<point x="95" y="634" type="qcurve"/>
			<point x="95" y="902" type="line"/>
			<point x="95" y="1262"/>
			<point x="317" y="1556"/>
			<point x="498" y="1556" type="qcurve" smooth="yes"/>
			<point x="682" y="1556"/>
			<point x="903" y="1262"/>
			<point x="903" y="902" type="qcurve"/>
			<point x="903" y="634" type="line"/>
			<point x="903" y="264"/>
			<point x="684" y="-30"/>
		</contour>
		<contour>
			<point x="500" y="118" type="qcurve" smooth="yes"/>
			<point x="602" y="118"/>
			<point x="722" y="319"/>
			<point x="722" y="593" type="qcurve"/>
			<point x="722" y="937" type="line" smooth="yes"/>
			<point x="722" y="1212"/>
			<point x="610" y="1408"/>
			<point x="498" y="1408" type="qcurve" smooth="yes"/>
			<point x="389" y="1408"/>
			<point x="276" y="1212"/>
			<point x="276" y="937" type="qcurve" smooth="yes"/>
			<point x="276" y="593" type="line" smooth="yes"/>
			<point x="276" y="319"/>
			<point x="401" y="118"/>
		</contour>
		<contour>
			<point x="186" y="686" type="line"/>
			<point x="186" y="824" type="line"/>
			<point x="813" y="824" type="line"/>
			<point x="813" y="686" type="line"/>
		</contour>
	</outline>
</glyph>
<glyph name="iota" format="2">
	<unicode hex="03B9"/>
	<advance width="548"/>
	<outline>
		<contour>
			<point x="362" y="-30" type="qcurve" smooth="yes"/>
			<point x="260" y="-30"/>
			<point x="138" y="110"/>
			<point x="138" y="260" type="qcurve" smooth="yes"/>
			<point x="138" y="1052" type="line"/>
			<point x="316" y="1052" type="line"/>
			<point x="316" y="253" type="line" smooth="yes"/>
			<point x="316" y="177"/>
			<point x="360" y="125"/>
			<point x="409" y="125" type="qcurve" smooth="yes"/>
			<point x="432" y="125"/>
			<point x="475" y="134"/>
			<point x="498" y="142" type="qcurve"/>
			<point x="498" y="0" type="line"/>
			<point x="476" y="-12"/>
			<point x="405" y="-30"/>
		</contour>
	</outline>
</glyph>
<glyph name="kappa" format="2">
	<unicode hex="03BA"/>
	<advance width="897"/>
	<outline>
		<contour>
			<point x="148" y="0" type="line"/>
			<point x="148" y="1052" type="line"/>
			<point x="326" y="1052" type="line"/>
			<point x="326" y="610" type="line"/>
			<point x="402" y="610" type="line"/>
			<point x="687" y="1052" type="line"/>
			<point x="875" y="1052" type="line"/>
			<point x="543" y="546" type="line"/>
			<point x="912" y="0" type="line"/>
			<point x="712" y="0" type="line"/>
			<point x="401" y="465" type="line"/>
			<point x="326" y="465" type="line"/>
			<point x="326" y="0" type="line"/>
		</contour>
	</outline>
</glyph>
<glyph name="lambda" format="2">
	<unicode hex="03BB"/>
	<advance width="828"/>
	<outline>
		<contour>
			<point x="15" y="0" type="line"/>
			<point x="356" y="1029" type="line"/>
			<point x="332" y="1110" type="line" smooth="yes"/>
			<point x="281" y="1277"/>
			<point x="187" y="1405"/>
			<point x="109" y="1405" type="qcurve"/>
			<point x="83" y="1405"/>
			<point x="37" y="1397"/>
			<point x="15" y="1389" type="qcurve"/>
			<point x="15" y="1536" type="line"/>
			<point x="39" y="1546"/>
			<point x="92" y="1556"/>
			<point x="132" y="1556" type="qcurve" smooth="yes"/>
			<point x="261" y="1556"/>
			<point x="403" y="1397"/>
			<point x="448" y="1252" type="qcurve" smooth="yes"/>
			<point x="838" y="0" type="line"/>
			<point x="649" y="0" type="line"/>
			<point x="472" y="657" type="line" smooth="yes"/>
			<point x="461" y="698"/>
			<point x="449" y="755"/>
			<point x="439" y="806" type="qcurve"/>
			<point x="434" y="806" type="line"/>
			<point x="423" y="754"/>
			<point x="410" y="706"/>
			<point x="395" y="657" type="qcurve" smooth="yes"/>
			<point x="200" y="0" type="line"/>
		</contour>
	</outline>
</glyph>
<glyph name="mu" format="2">
	<unicode hex="03BC"/>
	<advance width="1062"/>
	<outline>
		<contour>
			<point x="148" y="-416" type="line"/>
			<point x="148" y="1052" type="line"/>
			<point x="326" y="1052" type="line"/>
			<point x="326" y="249" type="line"/>
			<point x="350" y="184"/>
			<point x="450" y="130"/>
			<point x="504" y="130" type="qcurve" smooth="yes"/>
			<point x="599" y="130"/>
			<point x="695" y="237"/>
			<point x="695" y="347" type="qcurve" smooth="yes"/>
			<point x="695" y="1053" type="line"/>
			<point x="873" y="1053" type="line"/>
			<point x="873" y="242" type="line" smooth="yes"/>
			<point x="873" y="163"/>
			<point x="912" y="125"/>
			<point x="946" y="125" type="qcurve" smooth="yes"/>
			<point x="964" y="125"/>
			<point x="998" y="133"/>
			<point x="1012" y="140" type="qcurve"/>
			<point x="1012" y="-3" type="line"/>
			<point x="996" y="-13"/>
			<point x="926" y="-30"/>
			<point x="893" y="-30" type="qcurve" smooth="yes"/>
			<point x="825" y="-30"/>
			<point x="731" y="35"/>
			<point x="711" y="125" type="qcurve"/>
			<point x="707" y="125" type="line"/>
			<point x="679" y="74"/>
			<point x="574" y="-21"/>
			<point x="503" y="-21" type="qcurve" smooth="yes"/>
			<point x="444" y="-21"/>
			<point x="356" y="28"/>
			<point x="326" y="70" type="qcurve"/>
			<point x="326" y="-416" type="line"/>
		</contour>
	</outline>
</glyph>
<glyph name="xi" format="2">
	<unicode hex="03BE"/>
	<advance width="745"/>
	<outline>
		<contour>
			<point x="546" y="-348" type="line"/>
			<point x="570" y="-285"/>
			<point x="592" y="-184"/>
			<point x="592" y="-132" type="qcurve"/>
			<point x="592" y="-81"/>
			<point x="545" y="-22"/>
			<point x="477" y="-3" type="qcurve" smooth="yes"/>
			<point x="409" y="15" type="line" smooth="yes"/>
			<point x="246" y="60"/>
			<point x="85" y="244"/>
			<point x="85" y="406" type="qcurve"/>
			<point x="90" y="551"/>
			<point x="242" y="742"/>
			<point x="373" y="771" type="qcurve"/>
			<point x="373" y="753" type="line"/>
			<point x="262" y="784"/>
			<point x="134" y="943"/>
			<point x="134" y="1071" type="qcurve" smooth="yes"/>
			<point x="134" y="1184"/>
			<point x="263" y="1352"/>
			<point x="422" y="1395" type="qcurve"/>
			<point x="422" y="1388" type="line"/>
			<point x="90" y="1388" type="line"/>
			<point x="90" y="1536" type="line"/>
			<point x="728" y="1536" type="line"/>
			<point x="728" y="1388" type="line"/>
			<point x="543" y="1372"/>
			<point x="308" y="1228"/>
			<point x="308" y="1072" type="qcurve" smooth="yes"/>
			<point x="308" y="977"/>
			<point x="429" y="844"/>
			<point x="560" y="844" type="qcurve" smooth="yes"/>
			<point x="668" y="844" type="line"/>
			<point x="668" y="696" type="line"/>
			<point x="560" y="696" type="line" smooth="yes"/>
			<point x="405" y="696"/>
			<point x="267" y="550"/>
			<point x="267" y="419" type="qcurve" smooth="yes"/>
			<point x="267" y="297"/>
			<point x="399" y="190"/>
			<point x="489" y="165" type="qcurve" smooth="yes"/>
			<point x="549" y="148" type="line" smooth="yes"/>
			<point x="680" y="111"/>
			<point x="764" y="6"/>
			<point x="764" y="-84" type="qcurve" smooth="yes"/>
			<point x="764" y="-158"/>
			<point x="737" y="-284"/>
			<point x="711" y="-348" type="qcurve"/>
		</contour>
	</outline>
</glyph>
<glyph name="pi" format="2">
	<unicode hex="03C0"/>
	<advance width="1017"/>
	<outline>
		<contour>
			<point x="30" y="904" type="line"/>
			<point x="30" y="1052" type="line"/>
			<point x="995" y="1052" type="line"/>
			<point x="995" y="904" type="line"/>
		</contour>
		<contour>
			<point x="163" y="0" type="line"/>
			<point x="163" y="973" type="line"/>
			<point x="341" y="973" type="line"/>
			<point x="341" y="0" type="line"/>
		</contour>
		<contour>
			<point x="900" y="-20" type="qcurve" smooth="yes"/>
			<point x="787" y="-20"/>
			<point x="690" y="83"/>
			<point x="690" y="220" type="qcurve"/>
			<point x="690" y="973" type="line"/>
			<point x="868" y="973" type="line"/>
			<point x="868" y="239" type="line" smooth="yes"/>
			<point x="868" y="168"/>
			<point x="908" y="131"/>
			<point x="940" y="131" type="qcurve" smooth="yes"/>
			<point x="961" y="131"/>
			<point x="998" y="141"/>
			<point x="1007" y="146" type="qcurve"/>
			<point x="1007" y="1" type="line"/>
			<point x="990" y="-8"/>
			<point x="926" y="-20"/>
		</contour>
	</outline>
</glyph>
<glyph name="rho" format="2">
	<unicode hex="03C1"/>
	<advance width="1012"/>
	<outline>
		<contour>
			<point x="128" y="-416" type="line"/>
			<point x="128" y="541" type="line" smooth="yes"/>
			<point x="128" y="788"/>
			<point x="341" y="1072"/>
			<point x="527" y="1072" type="qcurve" smooth="yes"/>
			<point x="728" y="1072"/>
			<point x="927" y="779"/>
			<point x="927" y="552" type="qcurve" smooth="yes"/>
			<point x="927" y="507" type="line" smooth="yes"/>
			<point x="927" y="278"/>
			<point x="728" y="-20"/>
			<point x="562" y="-20" type="qcurve"/>
			<point x="473" y="-20"/>
			<point x="345" y="42"/>
			<point x="306" y="102" type="qcurve"/>
			<point x="306" y="-416" type="line"/>
		</contour>
		<contour>
			<point x="519" y="128" type="qcurve" smooth="yes"/>
			<point x="630" y="128"/>
			<point x="745" y="314"/>
			<point x="745" y="487" type="qcurve" smooth="yes"/>
			<point x="745" y="562" type="line" smooth="yes"/>
			<point x="745" y="740"/>
			<point x="632" y="924"/>
			<point x="520" y="924" type="qcurve" smooth="yes"/>
			<point x="417" y="924"/>
			<point x="306" y="750"/>
			<point x="306" y="546" type="qcurve"/>
			<point x="306" y="276" type="line"/>
			<point x="329" y="225"/>
			<point x="433" y="128"/>
		</contour>
	</outline>
</glyph>
<glyph name="finalsigma" format="2">
	<unicode hex="03C2"/>
	<advance width="899"/>
	<outline>
		<contour>
			<point x="536" y="-348" type="line"/>
			<point x="561" y="-282"/>
			<point x="582" y="-184"/>
			<point x="582" y="-142" type="qcurve"/>
			<point x="582" y="-75"/>
			<point x="528" y="-20"/>
			<point x="471" y="-4" type="qcurve" smooth="yes"/>
			<point x="375" y="23" type="line" smooth="yes"/>
			<point x="232" y="63"/>
			<point x="85" y="247"/>
			<point x="85" y="485" type="qcurve" smooth="yes"/>
			<point x="85" y="542" type="line" smooth="yes"/>
			<point x="85" y="805"/>
			<point x="307" y="1082"/>
			<point x="500" y="1082" type="qcurve" smooth="yes"/>
			<point x="679" y="1082"/>
			<point x="864" y="863"/>
			<point x="864" y="714" type="qcurve" smooth="yes"/>
			<point x="864" y="710" type="line"/>
			<point x="692" y="710" type="line"/>
			<point x="692" y="715" type="line" smooth="yes"/>
			<point x="692" y="800"/>
			<point x="611" y="933"/>
			<point x="498" y="933" type="qcurve" smooth="yes"/>
			<point x="381" y="933"/>
			<point x="267" y="736"/>
			<point x="267" y="532" type="qcurve" smooth="yes"/>
			<point x="267" y="483" type="line" smooth="yes"/>
			<point x="267" y="336"/>
			<point x="342" y="204"/>
			<point x="449" y="174" type="qcurve" smooth="yes"/>
			<point x="544" y="147" type="line" smooth="yes"/>
			<point x="663" y="113"/>
			<point x="754" y="10"/>
			<point x="754" y="-84" type="qcurve" smooth="yes"/>
			<point x="754" y="-150"/>
			<point x="729" y="-277"/>
			<point x="701" y="-348" type="qcurve"/>
		</contour>
	</outline>
</glyph>
<glyph name="sigma" format="2">
	<unicode hex="03C3"/>
	<advance width="1061"/>
	<outline>
		<contour>
			<point x="509" y="-30" type="qcurve" smooth="yes"/>
			<point x="316" y="-30"/>
			<point x="85" y="240"/>
			<point x="85" y="481" type="qcurve" smooth="yes"/>
			<point x="85" y="512" type="line" smooth="yes"/>
			<point x="85" y="754"/>
			<point x="354" y="1052"/>
			<point x="586" y="1052" type="qcurve"/>
			<point x="1011" y="1052" type="line"/>
			<point x="1011" y="904" type="line"/>
			<point x="729" y="904" type="line"/>
			<point x="729" y="913" type="line"/>
			<point x="825" y="870"/>
			<point x="932" y="685"/>
			<point x="932" y="526" type="qcurve" smooth="yes"/>
			<point x="932" y="495" type="line" smooth="yes"/>
			<point x="932" y="254"/>
			<point x="702" y="-30"/>
		</contour>
		<contour>
			<point x="509" y="118" type="qcurve" smooth="yes"/>
			<point x="629" y="118"/>
			<point x="751" y="316"/>
			<point x="751" y="495" type="qcurve" smooth="yes"/>
			<point x="751" y="526" type="line" smooth="yes"/>
			<point x="751" y="699"/>
			<point x="644" y="885"/>
			<point x="589" y="902" type="qcurve"/>
			<point x="428" y="902"/>
			<point x="266" y="692"/>
			<point x="266" y="522" type="qcurve" smooth="yes"/>
			<point x="266" y="491" type="line" smooth="yes"/>
			<point x="266" y="312"/>
			<point x="388" y="118"/>
		</contour>
	</outline>
</glyph>
<glyph name="tau" format="2">
	<unicode hex="03C4"/>
	<advance width="718"/>
	<outline>
		<contour>
			<point x="30" y="904" type="line"/>
			<point x="30" y="1052" type="line"/>
			<point x="698" y="1052" type="line"/>
			<point x="698" y="904" type="line"/>
		</contour>
		<contour>
			<point x="494" y="-30" type="qcurve" smooth="yes"/>
			<point x="392" y="-30"/>
			<point x="270" y="110"/>
			<point x="270" y="260" type="qcurve" smooth="yes"/>
			<point x="270" y="973" type="line"/>
			<point x="448" y="973" type="line"/>
			<point x="448" y="253" type="line" smooth="yes"/>
			<point x="448" y="177"/>
			<point x="492" y="125"/>
			<point x="541" y="125" type="qcurve" smooth="yes"/>
			<point x="564" y="125"/>
			<point x="607" y="134"/>
			<point x="630" y="142" type="qcurve"/>
			<point x="630" y="0" type="line"/>
			<point x="608" y="-12"/>
			<point x="537" y="-30"/>
		</contour>
	</outline>
</glyph>
<glyph name="upsilon" format="2">
	<unicode hex="03C5"/>
	<advance width="1001"/>
	<outline>
		<contour>
			<point x="501" y="-20" type="qcurve" smooth="yes"/>
			<point x="309" y="-20"/>
			<point x="138" y="181"/>
			<point x="138" y="383" type="qcurve" smooth="yes"/>
			<point x="138" y="1052" type="line"/>
			<point x="316" y="1052" type="line"/>
			<point x="316" y="378" type="line" smooth="yes"/>
			<point x="316" y="250"/>
			<point x="407" y="131"/>
			<point x="501" y="131" type="qcurve" smooth="yes"/>
			<point x="596" y="131"/>
			<point x="687" y="250"/>
			<point x="685" y="378" type="qcurve" smooth="yes"/>
			<point x="685" y="1052" type="line"/>
			<point x="863" y="1052" type="line"/>
			<point x="863" y="383" type="line" smooth="yes"/>
			<point x="863" y="181"/>
			<point x="694" y="-20"/>
		</contour>
	</outline>
</glyph>
<glyph name="chi" format="2">
	<unicode hex="03C7"/>
	<advance width="901"/>
	<outline>
		<contour>
			<point x="700" y="-416" type="line"/>
			<point x="421" y="270" type="line"/>
			<point x="403" y="270" type="line"/>
			<point x="53" y="1052" type="line"/>
			<point x="243" y="1052" type="line"/>
			<point x="515" y="418" type="line"/>
			<point x="535" y="418" type="line"/>
			<point x="890" y="-416" type="line"/>
		</contour>
		<contour>
			<point x="21" y="-416" type="line"/>
			<point x="413" y="438" type="line"/>
			<point x="425" y="438" type="line"/>
			<point x="679" y="1052" type="line"/>
			<point x="867" y="1052" type="line"/>
			<point x="516" y="283" type="line"/>
			<point x="505" y="283" type="line"/>
			<point x="209" y="-416" type="line"/>
		</contour>
	</outline>
</glyph>
<glyph name="psi" format="2">
	<unicode hex="03C8"/>
	<advance width="1314"/>
	<outline>
		<contour>
			<point x="606" y="-416" type="line"/>
			<point x="606" y="-20" type="line"/>
			<point x="396" y="-10"/>
			<point x="138" y="237"/>
			<point x="138" y="480" type="qcurve" smooth="yes"/>
			<point x="138" y="1052" type="line"/>
			<point x="316" y="1052" type="line"/>
			<point x="316" y="490" type="line" smooth="yes"/>
			<point x="316" y="322"/>
			<point x="465" y="141"/>
			<point x="606" y="131" type="qcurve"/>
			<point x="606" y="1536" type="line"/>
			<point x="784" y="1536" type="line"/>
			<point x="784" y="131" type="line"/>
			<point x="926" y="141"/>
			<point x="1075" y="322"/>
			<point x="1075" y="490" type="qcurve" smooth="yes"/>
			<point x="1075" y="1052" type="line"/>
			<point x="1254" y="1052" type="line"/>
			<point x="1254" y="480" type="line" smooth="yes"/>
			<point x="1254" y="237"/>
			<point x="995" y="-10"/>
			<point x="784" y="-20" type="qcurve"/>
			<point x="784" y="-416" type="line"/>
		</contour>
	</outline>
</glyph>
<glyph name="omega" format="2">
	<unicode hex="03C9"/>
	<advance width="1439"/>
	<outline>
		<contour>
			<point x="444" y="-30" type="qcurve" smooth="yes"/>
			<point x="279" y="-30"/>
			<point x="95" y="219"/>
			<point x="95" y="483" type="qcurve" smooth="yes"/>
			<point x="95" y="678"/>
			<point x="195" y="964"/>
			<point x="275" y="1052" type="qcurve"/>
			<point x="458" y="1052" type="line"/>
			<point x="365" y="939"/>
			<point x="277" y="645"/>
			<point x="277" y="481" type="qcurve" smooth="yes"/>
			<point x="277" y="291"/>
			<point x="365" y="122"/>
			<point x="458" y="122" type="qcurve"/>
			<point x="544" y="122"/>
			<point x="630" y="266"/>
			<point x="630" y="378" type="qcurve" smooth="yes"/>
			<point x="630" y="722" type="line"/>
			<point x="808" y="722" type="line"/>
			<point x="808" y="378" type="line" smooth="yes"/>
			<point x="808" y="268"/>
			<point x="893" y="122"/>
			<point x="983" y="122" type="qcurve" smooth="yes"/>
			<point x="1071" y="122"/>
			<point x="1160" y="287"/>
			<point x="1160" y="481" type="qcurve"/>
			<point x="1160" y="645"/>
			<point x="1073" y="939"/>
			<point x="979" y="1052" type="qcurve"/>
			<point x="1163" y="1052" type="line"/>
			<point x="1246" y="959"/>
			<point x="1344" y="677"/>
			<point x="1344" y="493" type="qcurve"/>
			<point x="1344" y="215"/>
			<point x="1157" y="-30"/>
			<point x="993" y="-30" type="qcurve" smooth="yes"/>
			<point x="895" y="-30"/>
			<point x="738" y="104"/>
			<point x="711" y="232" type="qcurve"/>
			<point x="726" y="232" type="line"/>
			<point x="699" y="104"/>
			<point x="544" y="-30"/>
		</contour>
	</outline>
</glyph>
<glyph name="Kaisymbol" format="2">
	<unicode hex="03CF"/>
	<advance width="1111"/>
	<outline>
		<contour>
			<point x="499" y="-590" type="line"/>
			<point x="389" y="-466" type="line"/>
			<point x="914" y="16" type="line"/>
			<point x="482" y="683" type="line"/>
			<point x="354" y="524" type="line"/>
			<point x="354" y="0" type="line"/>
			<point x="170" y="0" type="line"/>
			<point x="170" y="1456" type="line"/>
			<point x="354" y="1456" type="line"/>
			<point x="354" y="758" type="line"/>
			<point x="899" y="1456" type="line"/>
			<point x="1105" y="1456" type="line"/>
			<point x="590" y="817" type="line"/>
			<point x="1131" y="0" type="line"/>
		</contour>
	</outline>
</glyph>
<glyph name="kaisymbol" format="2">
	<unicode hex="03D7"/>
	<advance width="1072"/>
	<outline>
		<contour>
			<point x="343" y="-590" type="line"/>
			<point x="215" y="-474" type="line"/>
			<point x="697" y="23" type="line"/>
			<point x="401" y="465" type="line"/>
			<point x="326" y="465" type="line"/>
			<point x="326" y="0" type="line"/>
			<point x="148" y="0" type="line"/>
			<point x="148" y="1052" type="line"/>
			<point x="326" y="1052" type="line"/>
			<point x="326" y="610" type="line"/>
			<point x="402" y="610" type="line"/>
			<point x="687" y="1052" type="line"/>
			<point x="875" y="1052" type="line"/>
			<point x="543" y="546" type="line"/>
			<point x="911" y="0" type="line"/>
		</contour>
	</outline>
</glyph>
<glyph name="Yi" format="2">
  <advance width="534"/>
  <unicode hex="0407"/>
  <outline>
    <contour>
      <point x="175" y="0" type="line"/>
      <point x="175" y="1456" type="line"/>
      <point x="358" y="1456" type="line"/>
      <point x="358" y="0" type="line"/>
    </contour>
    <contour>
      <point x="-79" y="1787" type="qcurve" smooth="yes"/>
      <point x="-79" y="1842"/>
      <point x="-19" y="1901"/>
      <point x="37" y="1901" type="qcurve" smooth="yes"/>
      <point x="90" y="1901"/>
      <point x="153" y="1838"/>
      <point x="153" y="1787" type="qcurve" smooth="yes"/>
      <point x="153" y="1733"/>
      <point x="94" y="1674"/>
      <point x="37" y="1674" type="qcurve" smooth="yes"/>
      <point x="-16" y="1674"/>
      <point x="-79" y="1736"/>
    </contour>
    <contour>
      <point x="381" y="1787" type="qcurve" smooth="yes"/>
      <point x="381" y="1842"/>
      <point x="441" y="1901"/>
      <point x="497" y="1901" type="qcurve" smooth="yes"/>
      <point x="550" y="1901"/>
      <point x="613" y="1838"/>
      <point x="613" y="1787" type="qcurve" smooth="yes"/>
      <point x="613" y="1733"/>
      <point x="554" y="1674"/>
      <point x="497" y="1674" type="qcurve" smooth="yes"/>
      <point x="444" y="1674"/>
      <point x="381" y="1736"/>
    </contour>
  </outline>
</glyph>
<glyph name="Ze" format="2">
	<unicode hex="0417"/>
	<advance width="1124"/>
	<outline>
		<contour>
			<point x="532" y="129" type="qcurve" smooth="yes"/>
			<point x="688" y="129"/>
			<point x="842" y="287"/>
			<point x="842" y="419" type="qcurve" smooth="yes"/>
			<point x="842" y="532"/>
			<point x="709" y="680"/>
			<point x="533" y="680" type="qcurve" smooth="yes"/>
			<point x="390" y="680" type="line"/>
			<point x="390" y="834" type="line"/>
			<point x="535" y="834" type="line" smooth="yes"/>
			<point x="672" y="834"/>
			<point x="804" y="967"/>
			<point x="804" y="1083" type="qcurve" smooth="yes"/>
			<point x="804" y="1194"/>
			<point x="678.3529411765" y="1327"/>
			<point x="537" y="1327" type="qcurve" smooth="yes"/>
			<point x="383" y="1327"/>
			<point x="259" y="1120"/>
			<point x="259" y="1010" type="qcurve" smooth="yes"/>
			<point x="259" y="1000" type="line"/>
			<point x="75" y="1000" type="line"/>
			<point x="75" y="1010" type="line" smooth="yes"/>
			<point x="75" y="1225"/>
			<point x="320" y="1486"/>
			<point x="537" y="1486" type="qcurve" smooth="yes"/>
			<point x="747" y="1486"/>
			<point x="986" y="1282"/>
			<point x="986" y="1092" type="qcurve" smooth="yes"/>
			<point x="986" y="962"/>
			<point x="866" y="800"/>
			<point x="758" y="767" type="qcurve"/>
			<point x="758" y="763" type="line"/>
			<point x="889" y="731"/>
			<point x="1024" y="559.5895953757"/>
			<point x="1024" y="418" type="qcurve" smooth="yes"/>
			<point x="1024" y="205.7894736842"/>
			<point x="749" y="-30"/>
			<point x="534" y="-30" type="qcurve" smooth="yes"/>
			<point x="300" y="-30"/>
			<point x="50" y="231"/>
			<point x="50" y="446" type="qcurve" smooth="yes"/>
			<point x="50" y="456" type="line"/>
			<point x="234" y="456" type="line"/>
			<point x="234" y="446" type="line"/>
			<point x="240" y="328"/>
			<point x="379" y="129"/>
		</contour>
	</outline>
	<guideline x="1147" y="753" angle="90" identifier="qy0fqRyXD3"/>
</glyph>
<glyph name="El" format="2">
	<unicode hex="041B"/>
	<advance width="1292"/>
	<outline>
		<contour>
			<point x="293" y="1456" type="line"/>
			<point x="1122" y="1456" type="line"/>
			<point x="1122" y="0" type="line"/>
			<point x="938" y="0" type="line"/>
			<point x="938" y="1302" type="line"/>
			<point x="457" y="1302" type="line"/>
			<point x="420" y="542" type="line" smooth="yes"/>
			<point x="407" y="264"/>
			<point x="280" y="-17"/>
			<point x="104" y="-17" type="qcurve" smooth="yes"/>
			<point x="83" y="-17"/>
			<point x="35" y="-10"/>
			<point x="10" y="0" type="qcurve"/>
			<point x="10" y="167" type="line"/>
			<point x="31" y="159"/>
			<point x="65" y="154"/>
			<point x="83" y="154" type="qcurve" smooth="yes"/>
			<point x="171" y="154"/>
			<point x="240" y="345"/>
			<point x="251" y="575" type="qcurve" smooth="yes"/>
		</contour>
	</outline>
</glyph>
<glyph name="Tse" format="2">
	<unicode hex="0426"/>
	<advance width="1302"/>
	<outline>
		<contour>
			<point x="1110" y="-290" type="line"/>
			<point x="1110" y="0" type="line"/>
			<point x="170" y="0" type="line"/>
			<point x="170" y="1456" type="line"/>
			<point x="354" y="1456" type="line"/>
			<point x="354" y="154" type="line"/>
			<point x="938" y="154" type="line"/>
			<point x="938" y="1456" type="line"/>
			<point x="1122" y="1456" type="line"/>
			<point x="1122" y="154" type="line"/>
			<point x="1282" y="154" type="line"/>
			<point x="1282" y="-290" type="line"/>
		</contour>
	</outline>
</glyph>
<glyph name="Yu" format="2">
	<unicode hex="042E"/>
	<advance width="1734"/>
	<outline>
		<contour>
			<point x="170" y="0" type="line"/>
			<point x="170" y="1456" type="line"/>
			<point x="354" y="1456" type="line"/>
			<point x="354" y="828" type="line"/>
			<point x="688" y="828" type="line"/>
			<point x="688" y="674" type="line"/>
			<point x="354" y="674" type="line"/>
			<point x="354" y="0" type="line"/>
		</contour>
		<contour>
			<point x="595" y="682" type="qcurve" smooth="yes"/>
			<point x="595" y="774" type="line" smooth="yes"/>
			<point x="595" y="1130"/>
			<point x="878" y="1486"/>
			<point x="1107" y="1486" type="qcurve" smooth="yes"/>
			<point x="1336" y="1486"/>
			<point x="1618" y="1130"/>
			<point x="1618" y="774" type="qcurve" smooth="yes"/>
			<point x="1618" y="682" type="line" smooth="yes"/>
			<point x="1618" y="326"/>
			<point x="1336" y="-30"/>
			<point x="1107" y="-30" type="qcurve" smooth="yes"/>
			<point x="878" y="-30"/>
			<point x="595" y="326"/>
		</contour>
		<contour>
			<point x="780" y="652" type="line" smooth="yes"/>
			<point x="780" y="394"/>
			<point x="955" y="129"/>
			<point x="1107" y="129" type="qcurve" smooth="yes"/>
			<point x="1259" y="129"/>
			<point x="1432" y="394"/>
			<point x="1432" y="652" type="qcurve" smooth="yes"/>
			<point x="1432" y="805" type="line" smooth="yes"/>
			<point x="1432" y="1063"/>
			<point x="1259" y="1327"/>
			<point x="1107" y="1327" type="qcurve" smooth="yes"/>
			<point x="955" y="1327"/>
			<point x="780" y="1063"/>
			<point x="780" y="805" type="qcurve" smooth="yes"/>
		</contour>
	</outline>
	<guideline x="732" y="785" angle="90" identifier="6nH5tb4DEh"/>
	<guideline x="699" y="875" angle="90" identifier="bieyWZkgaa"/>
</glyph>
<glyph name="icyr" format="2">
	<unicode hex="0438"/>
	<advance width="1037"/>
	<outline>
		<contour>
			<point x="148" y="0" type="line"/>
			<point x="148" y="1052" type="line"/>
			<point x="326" y="1052" type="line"/>
			<point x="326" y="433" type="line" smooth="yes"/>
			<point x="326" y="403"/>
			<point x="325" y="328"/>
			<point x="324" y="298" type="qcurve"/>
			<point x="331" y="298" type="line"/>
			<point x="344" y="322"/>
			<point x="370" y="381"/>
			<point x="386" y="413" type="qcurve" smooth="yes"/>
			<point x="711" y="1052" type="line"/>
			<point x="889" y="1052" type="line"/>
			<point x="889" y="0" type="line"/>
			<point x="711" y="0" type="line"/>
			<point x="711" y="619" type="line" smooth="yes"/>
			<point x="711" y="649"/>
			<point x="712" y="724"/>
			<point x="713" y="754" type="qcurve"/>
			<point x="706" y="754" type="line"/>
			<point x="693" y="730"/>
			<point x="667" y="671"/>
			<point x="651" y="639" type="qcurve" smooth="yes"/>
			<point x="326" y="0" type="line"/>
		</contour>
	</outline>
</glyph>
<glyph name="el" format="2">
	<unicode hex="043B"/>
	<advance width="1016"/>
	<outline>
		<contour>
			<point x="362" y="907" type="line"/>
			<point x="347" y="396" type="line" smooth="yes"/>
			<point x="342" y="225"/>
			<point x="254" y="-18"/>
			<point x="108" y="-18" type="qcurve" smooth="yes"/>
			<point x="71" y="-18"/>
			<point x="28" y="-8"/>
			<point x="10" y="0" type="qcurve"/>
			<point x="10" y="156" type="line"/>
			<point x="26" y="149"/>
			<point x="51" y="143"/>
			<point x="73" y="143" type="qcurve" smooth="yes"/>
			<point x="133" y="143"/>
			<point x="179.8150632819" y="290.7063820937"/>
			<point x="183" y="400" type="qcurve" smooth="yes"/>
			<point x="202" y="1052" type="line"/>
			<point x="868" y="1052" type="line"/>
			<point x="868" y="0" type="line"/>
			<point x="690" y="0" type="line"/>
			<point x="690" y="907" type="line"/>
		</contour>
	</outline>
</glyph>
<glyph name="te" format="2">
	<unicode hex="0442"/>
	<advance width="846"/>
	<outline>
		<contour>
			<point x="50" y="907" type="line"/>
			<point x="50" y="1052" type="line"/>
			<point x="796" y="1052" type="line"/>
			<point x="796" y="907" type="line"/>
			<point x="512" y="907" type="line"/>
			<point x="512" y="0" type="line"/>
			<point x="334" y="0" type="line"/>
			<point x="334" y="907" type="line"/>
		</contour>
	</outline>
</glyph>
<glyph name="ya" format="2">
	<unicode hex="044F"/>
	<advance width="1040"/>
	<outline>
		<contour>
			<point x="306" y="0" type="line"/>
			<point x="102" y="0" type="line"/>
			<point x="388" y="454" type="line"/>
			<point x="573" y="437" type="line"/>
		</contour>
		<contour>
			<point x="714" y="0" type="line"/>
			<point x="714" y="380" type="line"/>
			<point x="518" y="380" type="line"/>
			<point x="520" y="386" type="line"/>
			<point x="341" y="394"/>
			<point x="148" y="569"/>
			<point x="148" y="714" type="qcurve" smooth="yes"/>
			<point x="148" y="868"/>
			<point x="358" y="1052"/>
			<point x="552" y="1052" type="qcurve" smooth="yes"/>
			<point x="892" y="1052" type="line"/>
			<point x="892" y="0" type="line"/>
		</contour>
		<contour>
			<point x="552" y="525" type="qcurve" smooth="yes"/>
			<point x="714" y="525" type="line"/>
			<point x="714" y="907" type="line"/>
			<point x="552" y="907" type="line" smooth="yes"/>
			<point x="427" y="907"/>
			<point x="326" y="798"/>
			<point x="326" y="714" type="qcurve" smooth="yes"/>
			<point x="326" y="631"/>
			<point x="427" y="525"/>
		</contour>
	</outline>
</glyph>
<glyph name="yi" format="2">
	<unicode hex="0457"/>
	<advance width="500"/>
	<outline>
		<contour>
			<point x="22" y="1372" type="qcurve" smooth="yes"/>
			<point x="22" y="1416"/>
			<point x="77" y="1476"/>
			<point x="128" y="1476" type="qcurve" smooth="yes"/>
			<point x="179" y="1476"/>
			<point x="234" y="1416"/>
			<point x="234" y="1372" type="qcurve" smooth="yes"/>
			<point x="234" y="1328"/>
			<point x="179" y="1268"/>
			<point x="128" y="1268" type="qcurve" smooth="yes"/>
			<point x="77" y="1268"/>
			<point x="22" y="1328"/>
		</contour>
		<contour>
			<point x="157" y="1052" type="line"/>
			<point x="343" y="1052" type="line"/>
			<point x="343" y="0" type="line"/>
			<point x="157" y="0" type="line"/>
		</contour>
		<contour>
			<point x="266" y="1372" type="qcurve" smooth="yes"/>
			<point x="266" y="1416"/>
			<point x="321" y="1476"/>
			<point x="372" y="1476" type="qcurve" smooth="yes"/>
			<point x="423" y="1476"/>
			<point x="478" y="1416"/>
			<point x="478" y="1372" type="qcurve" smooth="yes"/>
			<point x="478" y="1328"/>
			<point x="423" y="1268"/>
			<point x="372" y="1268" type="qcurve" smooth="yes"/>
			<point x="321" y="1268"/>
			<point x="266" y="1328"/>
		</contour>
	</outline>
</glyph>
<glyph name="zhedescender" format="2">
	<unicode hex="0497"/>
	<advance width="1262"/>
	<outline>
		<contour>
			<point x="1064" y="0" type="line"/>
			<point x="775" y="477" type="line"/>
			<point x="888" y="603" type="line"/>
			<point x="1206" y="84" type="line"/>
			<point x="1206" y="0" type="line"/>
		</contour>
		<contour>
			<point x="708" y="1052" type="line"/>
			<point x="708" y="0" type="line"/>
			<point x="530" y="0" type="line"/>
			<point x="530" y="1052" type="line"/>
		</contour>
		<contour>
			<point x="619" y="610" type="line"/>
			<point x="784" y="610" type="line"/>
			<point x="1039" y="1052" type="line"/>
			<point x="1220" y="1052" type="line"/>
			<point x="873" y="465" type="line"/>
			<point x="619" y="465" type="line"/>
		</contour>
		<contour>
			<point x="1064" y="145" type="line"/>
			<point x="1277" y="145" type="line"/>
			<point x="1277" y="-270" type="line"/>
			<point x="1109" y="-270" type="line"/>
			<point x="1109" y="0" type="line"/>
			<point x="1064" y="0" type="line"/>
		</contour>
		<contour>
			<point x="174" y="0" type="line"/>
			<point x="-15" y="0" type="line"/>
			<point x="354" y="603" type="line"/>
			<point x="463" y="477" type="line"/>
		</contour>
		<contour>
			<point x="619" y="610" type="line"/>
			<point x="619" y="465" type="line"/>
			<point x="365" y="465" type="line"/>
			<point x="18" y="1052" type="line"/>
			<point x="199" y="1052" type="line"/>
			<point x="454" y="610" type="line"/>
		</contour>
	</outline>
</glyph>
<glyph name="Endescender" format="2">
	<unicode hex="04A2"/>
	<advance width="1312"/>
	<outline>
		<contour>
			<point x="170" y="0" type="line"/>
			<point x="170" y="1456" type="line"/>
			<point x="354" y="1456" type="line"/>
			<point x="354" y="828" type="line"/>
			<point x="948" y="828" type="line"/>
			<point x="948" y="1456" type="line"/>
			<point x="1132" y="1456" type="line"/>
			<point x="1132" y="154" type="line"/>
			<point x="1292" y="154" type="line"/>
			<point x="1292" y="-290" type="line"/>
			<point x="1120" y="-290" type="line"/>
			<point x="1120" y="0" type="line"/>
			<point x="948" y="0" type="line"/>
			<point x="948" y="674" type="line"/>
			<point x="354" y="674" type="line"/>
			<point x="354" y="0" type="line"/>
		</contour>
	</outline>
</glyph>
<glyph name="ustraight" format="2">
	<unicode hex="04AF"/>
	<advance width="810"/>
	<outline>
		<contour>
			<point x="316" y="-416" type="line"/>
			<point x="316" y="0" type="line"/>
			<point x="0" y="1052" type="line"/>
			<point x="180" y="1052" type="line"/>
			<point x="373" y="364" type="line" smooth="yes"/>
			<point x="384" y="324"/>
			<point x="400" y="254"/>
			<point x="405" y="214" type="qcurve"/>
			<point x="411" y="214" type="line"/>
			<point x="415" y="254"/>
			<point x="432" y="324"/>
			<point x="443" y="364" type="qcurve" smooth="yes"/>
			<point x="635" y="1052" type="line"/>
			<point x="810" y="1052" type="line"/>
			<point x="494" y="0" type="line"/>
			<point x="494" y="-416" type="line"/>
		</contour>
	</outline>
</glyph>
<glyph name="Hadescender" format="2">
	<unicode hex="04B2"/>
	<advance width="1069"/>
	<outline>
		<contour>
			<point x="818" y="154" type="line"/>
			<point x="1059" y="154" type="line"/>
			<point x="1059" y="-290" type="line"/>
			<point x="887" y="-290" type="line"/>
			<point x="887" y="0" type="line"/>
			<point x="818" y="0" type="line"/>
		</contour>
		<contour>
			<point x="25" y="0" type="line"/>
			<point x="458" y="804" type="line"/>
			<point x="470" y="804" type="line"/>
			<point x="801" y="1456" type="line"/>
			<point x="993" y="1456" type="line"/>
			<point x="580" y="672" type="line"/>
			<point x="570" y="672" type="line"/>
			<point x="217" y="0" type="line"/>
		</contour>
		<contour>
			<point x="46" y="1456" type="line"/>
			<point x="241" y="1456" type="line"/>
			<point x="573" y="804" type="line"/>
			<point x="581" y="804" type="line"/>
			<point x="1014" y="0" type="line"/>
			<point x="818" y="0" type="line"/>
			<point x="466" y="672" type="line"/>
			<point x="458" y="672" type="line"/>
		</contour>
	</outline>
</glyph>
<glyph name="cheverticalstroke-cy" format="2">
	<unicode hex="04B9"/>
	<advance width="1035"/>
	<outline>
		<contour>
			<point x="589" y="852" type="line"/>
			<point x="589" y="200" type="line"/>
			<point x="437" y="200" type="line"/>
			<point x="437" y="852" type="line"/>
		</contour>
		<contour>
			<point x="308" y="773" type="line" smooth="yes"/>
			<point x="308" y="640"/>
			<point x="403" y="542"/>
			<point x="522" y="542" type="qcurve" smooth="yes"/>
			<point x="603" y="542"/>
			<point x="717" y="555"/>
			<point x="798" y="576" type="qcurve"/>
			<point x="798" y="430" type="line"/>
			<point x="717" y="414"/>
			<point x="594" y="396"/>
			<point x="501" y="396" type="qcurve" smooth="yes"/>
			<point x="302" y="396"/>
			<point x="130" y="576"/>
			<point x="130" y="773" type="qcurve" smooth="yes"/>
			<point x="130" y="1052" type="line"/>
			<point x="308" y="1052" type="line"/>
		</contour>
		<contour>
			<point x="709" y="0" type="line"/>
			<point x="709" y="1052" type="line"/>
			<point x="887" y="1052" type="line"/>
			<point x="887" y="0" type="line"/>
		</contour>
	</outline>
	<guideline x="855" y="515" angle="90" identifier="9XtohpIQWo"/>
	<guideline x="764" y="563" angle="90" identifier="WciRnTgNVG"/>
</glyph>
<glyph name="Shha" format="2">
	<unicode hex="04BA"/>
	<advance width="1262"/>
	<outline>
		<contour>
			<point x="930" y="369" type="line" smooth="yes"/>
			<point x="930" y="590"/>
			<point x="762" y="726"/>
			<point x="602" y="726" type="qcurve" smooth="yes"/>
			<point x="499" y="726"/>
			<point x="339" y="706"/>
			<point x="262" y="689" type="qcurve"/>
			<point x="262" y="843" type="line"/>
			<point x="365" y="861"/>
			<point x="508" y="880"/>
			<point x="604" y="880" type="qcurve" smooth="yes"/>
			<point x="853" y="880"/>
			<point x="1112" y="652"/>
			<point x="1112" y="369" type="qcurve" smooth="yes"/>
			<point x="1112" y="0" type="line"/>
			<point x="930" y="0" type="line"/>
		</contour>
		<contour>
			<point x="170" y="0" type="line"/>
			<point x="170" y="1456" type="line"/>
			<point x="354" y="1456" type="line"/>
			<point x="354" y="0" type="line"/>
		</contour>
	</outline>
</glyph>
<glyph name="Schwacyr" format="2">
	<unicode hex="04D8"/>
	<advance width="1254"/>
	<outline>
		<contour>
			<point x="208" y="788" type="line"/>
			<point x="1045" y="788" type="line"/>
			<point x="1045" y="634" type="line"/>
			<point x="208" y="634" type="line"/>
		</contour>
		<contour>
			<point x="952" y="805" type="line" smooth="yes"/>
			<point x="952" y="1068"/>
			<point x="781" y="1327"/>
			<point x="612" y="1327" type="qcurve" smooth="yes"/>
			<point x="458" y="1327"/>
			<point x="334" y="1132"/>
			<point x="334" y="1010" type="qcurve" smooth="yes"/>
			<point x="334" y="1000" type="line"/>
			<point x="150" y="1000" type="line"/>
			<point x="150" y="1010" type="line" smooth="yes"/>
			<point x="150" y="1225"/>
			<point x="395" y="1486"/>
			<point x="612" y="1486" type="qcurve" smooth="yes"/>
			<point x="849" y="1486"/>
			<point x="1138" y="1137"/>
			<point x="1138" y="774" type="qcurve" smooth="yes"/>
			<point x="1138" y="682" type="line" smooth="yes"/>
			<point x="1138" y="326"/>
			<point x="856" y="-30"/>
			<point x="627" y="-30" type="qcurve" smooth="yes"/>
			<point x="398" y="-30"/>
			<point x="115" y="326"/>
			<point x="115" y="682" type="qcurve" smooth="yes"/>
			<point x="115" y="788" type="line"/>
			<point x="300" y="788" type="line"/>
			<point x="300" y="652" type="line" smooth="yes"/>
			<point x="300" y="394"/>
			<point x="475" y="129"/>
			<point x="627" y="129" type="qcurve" smooth="yes"/>
			<point x="779" y="129"/>
			<point x="952" y="394"/>
			<point x="952" y="652" type="qcurve" smooth="yes"/>
		</contour>
	</outline>
	<guideline x="212" y="786" angle="90" identifier="UtNSclIhRG"/>
	<guideline x="1248" y="730" angle="90" identifier="hwb5F7EShy"/>
	<guideline x="208" y="874" angle="90" identifier="u5B3WTWmJZ"/>
	<guideline x="1065" y="752" angle="90" identifier="xxdgq9EtYV"/>
</glyph>
<glyph name="Obarcyr" format="2">
	<unicode hex="04E8"/>
	<advance width="1274"/>
	<outline>
		<contour>
			<point x="208" y="828" type="line"/>
			<point x="1065" y="828" type="line"/>
			<point x="1065" y="674" type="line"/>
			<point x="208" y="674" type="line"/>
		</contour>
		<contour>
			<point x="115" y="682" type="qcurve" smooth="yes"/>
			<point x="115" y="774" type="line" smooth="yes"/>
			<point x="115" y="1130"/>
			<point x="404" y="1486"/>
			<point x="637" y="1486" type="qcurve" smooth="yes"/>
			<point x="870" y="1486"/>
			<point x="1158" y="1130"/>
			<point x="1158" y="774" type="qcurve" smooth="yes"/>
			<point x="1158" y="682" type="line" smooth="yes"/>
			<point x="1158" y="326"/>
			<point x="870" y="-30"/>
			<point x="637" y="-30" type="qcurve" smooth="yes"/>
			<point x="404" y="-30"/>
			<point x="115" y="326"/>
		</contour>
		<contour>
			<point x="290" y="652" type="line" smooth="yes"/>
			<point x="290" y="384"/>
			<point x="480" y="125"/>
			<point x="637" y="125" type="qcurve" smooth="yes"/>
			<point x="794" y="125"/>
			<point x="982" y="384"/>
			<point x="982" y="652" type="qcurve" smooth="yes"/>
			<point x="982" y="805" type="line" smooth="yes"/>
			<point x="982" y="1073"/>
			<point x="794" y="1331"/>
			<point x="637" y="1331" type="qcurve" smooth="yes"/>
			<point x="480" y="1331"/>
			<point x="290" y="1073"/>
			<point x="290" y="805" type="qcurve" smooth="yes"/>
		</contour>
	</outline>
	<guideline x="212" y="786" angle="90" identifier="UtNSclIhRG"/>
	<guideline x="1248" y="730" angle="90" identifier="hwb5F7EShy"/>
	<guideline x="208" y="874" angle="90" identifier="u5B3WTWmJZ"/>
	<guideline x="1065" y="752" angle="90" identifier="xxdgq9EtYV"/>
</glyph>
<glyph name="hastroke-cy" format="2">
	<unicode hex="04FF"/>
	<advance width="846"/>
	<outline>
		<contour>
			<point x="126" y="465" type="line"/>
			<point x="126" y="610" type="line"/>
			<point x="720" y="610" type="line"/>
			<point x="720" y="465" type="line"/>
		</contour>
		<contour>
			<point x="20" y="0" type="line"/>
			<point x="356" y="580" type="line"/>
			<point x="376" y="580" type="line"/>
			<point x="620" y="1052" type="line"/>
			<point x="809" y="1052" type="line"/>
			<point x="486" y="486" type="line"/>
			<point x="464" y="486" type="line"/>
			<point x="208" y="0" type="line"/>
		</contour>
		<contour>
			<point x="38" y="1052" type="line"/>
			<point x="228" y="1052" type="line"/>
			<point x="478" y="580" type="line"/>
			<point x="490" y="580" type="line"/>
			<point x="826" y="0" type="line"/>
			<point x="636" y="0" type="line"/>
			<point x="375" y="486" type="line"/>
			<point x="362" y="486" type="line"/>
		</contour>
	</outline>
</glyph>
<glyph name="Germandbls" format="2">
	<unicode hex="1E9E"/>
	<advance width="1359"/>
	<outline>
		<contour>
			<point x="188" y="1066" type="line" smooth="yes"/>
			<point x="188" y="1280"/>
			<point x="392" y="1510"/>
			<point x="581" y="1510" type="qcurve" smooth="yes"/>
			<point x="758" y="1510"/>
			<point x="949" y="1372"/>
			<point x="949" y="1244" type="qcurve" smooth="yes"/>
			<point x="949" y="1142"/>
			<point x="866" y="1010"/>
			<point x="806" y="966" type="qcurve" smooth="yes"/>
			<point x="761" y="933"/>
			<point x="720" y="888"/>
			<point x="720" y="871" type="qcurve" smooth="yes"/>
			<point x="720" y="838"/>
			<point x="821" y="785"/>
			<point x="956" y="736" type="qcurve" smooth="yes"/>
			<point x="1149" y="666"/>
			<point x="1279" y="486"/>
			<point x="1279" y="336" type="qcurve" smooth="yes"/>
			<point x="1279" y="160"/>
			<point x="1067" y="-30"/>
			<point x="870" y="-30" type="qcurve" smooth="yes"/>
			<point x="670" y="-30"/>
			<point x="455" y="161"/>
			<point x="455" y="338" type="qcurve" smooth="yes"/>
			<point x="455" y="350" type="line"/>
			<point x="658" y="350" type="line"/>
			<point x="658" y="338" type="line" smooth="yes"/>
			<point x="658" y="240"/>
			<point x="762" y="135"/>
			<point x="859" y="135" type="qcurve" smooth="yes"/>
			<point x="966" y="135"/>
			<point x="1082" y="236"/>
			<point x="1082" y="330" type="qcurve" smooth="yes"/>
			<point x="1082" y="427"/>
			<point x="990" y="521"/>
			<point x="819" y="584" type="qcurve" smooth="yes"/>
			<point x="644" y="648"/>
			<point x="514" y="763"/>
			<point x="514" y="841" type="qcurve" smooth="yes"/>
			<point x="514" y="906"/>
			<point x="575" y="1008"/>
			<point x="642" y="1056" type="qcurve" smooth="yes"/>
			<point x="712" y="1106"/>
			<point x="774" y="1172"/>
			<point x="774" y="1229" type="qcurve" smooth="yes"/>
			<point x="774" y="1286"/>
			<point x="677" y="1348"/>
			<point x="587" y="1348" type="qcurve" smooth="yes"/>
			<point x="482" y="1348"/>
			<point x="370" y="1186"/>
			<point x="370" y="1036" type="qcurve" smooth="yes"/>
			<point x="370" y="355" type="line" smooth="yes"/>
			<point x="370" y="184"/>
			<point x="213" y="-16"/>
			<point x="78" y="-16" type="qcurve" smooth="yes"/>
			<point x="65" y="-16"/>
			<point x="38" y="-14"/>
			<point x="25" y="-12" type="qcurve"/>
			<point x="23" y="172" type="line"/>
			<point x="32" y="169"/>
			<point x="51" y="167"/>
			<point x="60" y="167" type="qcurve" smooth="yes"/>
			<point x="120" y="167"/>
			<point x="188" y="264"/>
			<point x="188" y="355" type="qcurve" smooth="yes"/>
		</contour>
	</outline>
</glyph>
<glyph name="endash" format="2">
	<unicode hex="2013"/>
	<advance width="944"/>
	<outline>
		<contour>
			<point x="0" y="532" type="line"/>
			<point x="0" y="700" type="line"/>
			<point x="944" y="700" type="line"/>
			<point x="944" y="532" type="line"/>
		</contour>
	</outline>
</glyph>
<glyph name="emdash" format="2">
	<unicode hex="2014"/>
	<advance width="1968"/>
	<outline>
		<contour>
			<point x="260" y="532" type="line"/>
			<point x="260" y="700" type="line"/>
			<point x="1708" y="700" type="line"/>
			<point x="1708" y="532" type="line"/>
		</contour>
	</outline>
</glyph>
<glyph name="horizontalbar" format="2">
	<unicode hex="2015"/>
	<advance width="525"/>
	<outline>
		<contour>
			<point x="20" y="626" type="line"/>
			<point x="20" y="792" type="line"/>
			<point x="525" y="792" type="line"/>
			<point x="525" y="626" type="line"/>
		</contour>
	</outline>
</glyph>
<glyph name="minute" format="2">
	<unicode hex="2032"/>
	<advance width="545"/>
	<outline>
		<contour>
			<point x="88" y="939" type="line"/>
			<point x="270" y="1578" type="line"/>
			<point x="479" y="1507" type="line" smooth="yes"/>
			<point x="231" y="884" type="line"/>
		</contour>
	</outline>
</glyph>
<glyph name="second" format="2">
	<unicode hex="2033"/>
	<advance width="945"/>
	<outline>
		<contour>
			<point x="88" y="939" type="line"/>
			<point x="270" y="1578" type="line"/>
			<point x="479" y="1507" type="line" smooth="yes"/>
			<point x="231" y="884" type="line"/>
		</contour>
		<contour>
			<point x="488" y="939" type="line"/>
			<point x="670" y="1578" type="line"/>
			<point x="879" y="1507" type="line" smooth="yes"/>
			<point x="631" y="884" type="line"/>
		</contour>
	</outline>
</glyph>
<glyph name="fraction" format="2">
	<unicode hex="2044"/>
	<advance width="342"/>
	<outline>
		<contour>
			<point x="649" y="1416" type="line"/>
			<point x="-165" y="-43" type="line"/>
			<point x="-294" y="41" type="line"/>
			<point x="516" y="1494" type="line"/>
		</contour>
	</outline>
	<guideline x="0" y="901" angle="0" identifier="tcCoNUQTdD"/>
	<guideline x="0" y="555" angle="0" identifier="0lx51aIE0d"/>
</glyph>
<glyph name="foursuperior" format="2">
	<unicode hex="2074"/>
	<advance width="681"/>
	<outline>
		<contour>
			<point x="61" y="880" type="line"/>
			<point x="54" y="982" type="line"/>
			<point x="362" y="1496" type="line"/>
			<point x="486" y="1496" type="line"/>
			<point x="358" y="1270" type="line"/>
			<point x="212" y="1010" type="line"/>
			<point x="630" y="1010" type="line"/>
			<point x="630" y="880" type="line"/>
		</contour>
		<contour>
			<point x="522" y="1496" type="line"/>
			<point x="522" y="697" type="line"/>
			<point x="365" y="697" type="line"/>
			<point x="365" y="1496" type="line"/>
		</contour>
	</outline>
</glyph>
<glyph name="coloncurrency" format="2">
	<unicode hex="20A1"/>
	<advance width="1158"/>
	<outline>
		<contour>
			<point x="952" y="1570" type="line"/>
			<point x="921" y="1380" type="line"/>
			<point x="908" y="1357" type="line"/>
			<point x="724" y="40" type="line"/>
			<point x="730" y="15" type="line"/>
			<point x="710" y="-125" type="line"/>
			<point x="551" y="-125" type="line"/>
			<point x="570" y="12" type="line"/>
			<point x="584" y="38" type="line"/>
			<point x="781" y="1417" type="line"/>
			<point x="774" y="1437" type="line"/>
			<point x="794" y="1570" type="line"/>
		</contour>
		<contour>
			<point x="700" y="1570" type="line"/>
			<point x="683" y="1451" type="line"/>
			<point x="670" y="1430" type="line"/>
			<point x="475" y="66" type="line"/>
			<point x="481" y="39" type="line"/>
			<point x="458" y="-125" type="line"/>
			<point x="299" y="-125" type="line"/>
			<point x="334" y="122" type="line"/>
			<point x="348" y="148" type="line"/>
			<point x="532" y="1432" type="line"/>
			<point x="525" y="1455" type="line"/>
			<point x="542" y="1570" type="line"/>
		</contour>
		<contour>
			<point x="115" y="682" type="qcurve" smooth="yes"/>
			<point x="115" y="774" type="line" smooth="yes"/>
			<point x="115" y="1138"/>
			<point x="401" y="1486"/>
			<point x="636" y="1486" type="qcurve" smooth="yes"/>
			<point x="858" y="1486"/>
			<point x="1108" y="1220"/>
			<point x="1108" y="1000" type="qcurve" smooth="yes"/>
			<point x="1108" y="990" type="line"/>
			<point x="924" y="990" type="line"/>
			<point x="924" y="1000" type="line" smooth="yes"/>
			<point x="924" y="1129"/>
			<point x="796" y="1327"/>
			<point x="636" y="1327" type="qcurve" smooth="yes"/>
			<point x="469" y="1327"/>
			<point x="300" y="1073"/>
			<point x="300" y="815" type="qcurve" smooth="yes"/>
			<point x="300" y="642" type="line" smooth="yes"/>
			<point x="300" y="395"/>
			<point x="483" y="129"/>
			<point x="635" y="129" type="qcurve" smooth="yes"/>
			<point x="779" y="129"/>
			<point x="918" y="334"/>
			<point x="924" y="456" type="qcurve"/>
			<point x="924" y="466" type="line"/>
			<point x="1108" y="466" type="line"/>
			<point x="1108" y="456" type="line" smooth="yes"/>
			<point x="1108" y="236"/>
			<point x="858" y="-30"/>
			<point x="636" y="-30" type="qcurve" smooth="yes"/>
			<point x="399" y="-30"/>
			<point x="115" y="323"/>
		</contour>
	</outline>
	<guideline x="0" y="1570" angle="0" identifier="0DwZ2nfhdf"/>
</glyph>
<glyph name="franc" format="2">
	<unicode hex="20A3"/>
	<advance width="1000"/>
	<outline>
		<contour>
			<point x="170" y="0" type="line"/>
			<point x="170" y="1456" type="line"/>
			<point x="942" y="1456" type="line"/>
			<point x="942" y="1303" type="line"/>
			<point x="354" y="1303" type="line"/>
			<point x="354" y="858" type="line"/>
			<point x="858" y="858" type="line"/>
			<point x="858" y="706" type="line"/>
			<point x="354" y="706" type="line"/>
			<point x="354" y="0" type="line"/>
		</contour>
		<contour>
			<point x="20" y="300" type="line"/>
			<point x="20" y="450" type="line"/>
			<point x="685" y="450" type="line"/>
			<point x="685" y="300" type="line"/>
		</contour>
	</outline>
</glyph>
<glyph name="lira" format="2">
	<unicode hex="20A4"/>
	<advance width="933"/>
	<outline>
		<contour>
			<point x="928" y="0" type="line"/>
			<point x="36" y="0" type="line"/>
			<point x="36" y="160" type="line"/>
			<point x="92" y="160" type="line" smooth="yes"/>
			<point x="184" y="160"/>
			<point x="264" y="324"/>
			<point x="250" y="467" type="qcurve" smooth="yes"/>
			<point x="195" y="1039" type="line" smooth="yes"/>
			<point x="175" y="1250"/>
			<point x="349" y="1476"/>
			<point x="531" y="1476" type="qcurve" smooth="yes"/>
			<point x="701" y="1476"/>
			<point x="884" y="1283"/>
			<point x="884" y="1103" type="qcurve" smooth="yes"/>
			<point x="884" y="1087" type="line"/>
			<point x="692" y="1087" type="line"/>
			<point x="692" y="1103" type="line" smooth="yes"/>
			<point x="692" y="1202"/>
			<point x="610" y="1309"/>
			<point x="533" y="1309" type="qcurve" smooth="yes"/>
			<point x="448" y="1309"/>
			<point x="371" y="1169"/>
			<point x="383" y="1039" type="qcurve" smooth="yes"/>
			<point x="434" y="508" type="line" smooth="yes"/>
			<point x="447" y="372"/>
			<point x="392" y="207"/>
			<point x="322" y="166" type="qcurve"/>
			<point x="928" y="166" type="line"/>
		</contour>
		<contour>
			<point x="724" y="439" type="line"/>
			<point x="52" y="439" type="line"/>
			<point x="52" y="576" type="line"/>
			<point x="724" y="576" type="line"/>
		</contour>
		<contour>
			<point x="724" y="769" type="line"/>
			<point x="52" y="769" type="line"/>
			<point x="52" y="906" type="line"/>
			<point x="724" y="906" type="line"/>
		</contour>
	</outline>
</glyph>
<glyph name="naira" format="2">
	<unicode hex="20A6"/>
	<advance width="918"/>
	<outline>
		<contour>
			<point x="-21" y="854" type="line"/>
			<point x="-21" y="983" type="line"/>
			<point x="151" y="983" type="line"/>
			<point x="151" y="973" type="line"/>
			<point x="767" y="973" type="line"/>
			<point x="767" y="983" type="line"/>
			<point x="939" y="985" type="line"/>
			<point x="939" y="856" type="line"/>
			<point x="767" y="854" type="line"/>
			<point x="767" y="859" type="line"/>
			<point x="151" y="859" type="line"/>
			<point x="151" y="854" type="line"/>
		</contour>
		<contour>
			<point x="-21" y="544" type="line"/>
			<point x="-21" y="673" type="line"/>
			<point x="151" y="673" type="line"/>
			<point x="151" y="668" type="line"/>
			<point x="767" y="668" type="line"/>
			<point x="767" y="673" type="line"/>
			<point x="939" y="675" type="line"/>
			<point x="939" y="546" type="line"/>
			<point x="767" y="544" type="line"/>
			<point x="767" y="554" type="line"/>
			<point x="151" y="554" type="line"/>
			<point x="151" y="544" type="line"/>
		</contour>
		<contour>
			<point x="826" y="1456" type="line"/>
			<point x="826" y="0" type="line"/>
			<point x="645" y="0" type="line"/>
			<point x="254" y="1112" type="line"/>
			<point x="232" y="1223" type="line"/>
			<point x="220" y="1223" type="line"/>
			<point x="233" y="1095" type="line"/>
			<point x="233" y="0" type="line"/>
			<point x="83" y="0" type="line"/>
			<point x="83" y="1456" type="line"/>
			<point x="269" y="1456" type="line"/>
			<point x="643" y="377" type="line"/>
			<point x="672" y="257" type="line"/>
			<point x="686" y="260" type="line"/>
			<point x="676" y="381" type="line"/>
			<point x="676" y="1456" type="line"/>
		</contour>
	</outline>
</glyph>
<glyph name="won" format="2">
	<unicode hex="20A9"/>
	<advance width="1736"/>
	<outline>
		<contour>
			<point x="48" y="884" type="line"/>
			<point x="48" y="1013" type="line"/>
			<point x="306" y="1013" type="line"/>
			<point x="306" y="1003" type="line"/>
			<point x="1432" y="1003" type="line"/>
			<point x="1432" y="1013" type="line"/>
			<point x="1688" y="1015" type="line"/>
			<point x="1688" y="886" type="line"/>
			<point x="1432" y="884" type="line"/>
			<point x="1432" y="889" type="line"/>
			<point x="306" y="889" type="line"/>
			<point x="306" y="884" type="line"/>
		</contour>
		<contour>
			<point x="79" y="524" type="line"/>
			<point x="79" y="653" type="line"/>
			<point x="377" y="653" type="line"/>
			<point x="377" y="648" type="line"/>
			<point x="1353" y="648" type="line"/>
			<point x="1353" y="653" type="line"/>
			<point x="1649" y="655" type="line"/>
			<point x="1649" y="526" type="line"/>
			<point x="1353" y="524" type="line"/>
			<point x="1353" y="534" type="line"/>
			<point x="377" y="534" type="line"/>
			<point x="377" y="524" type="line"/>
		</contour>
		<contour>
			<point x="453" y="-10" type="line"/>
			<point x="115" y="1456" type="line"/>
			<point x="289" y="1456" type="line"/>
			<point x="518" y="378" type="line"/>
			<point x="536" y="250" type="line"/>
			<point x="542" y="250" type="line"/>
			<point x="560" y="378" type="line" smooth="yes"/>
			<point x="758" y="1456" type="line"/>
			<point x="956" y="1456" type="line"/>
			<point x="1184" y="378" type="line"/>
			<point x="1202" y="250" type="line"/>
			<point x="1208" y="250" type="line"/>
			<point x="1226" y="378" type="line" smooth="yes"/>
			<point x="1425" y="1456" type="line"/>
			<point x="1587" y="1456" type="line"/>
			<point x="1289" y="-10" type="line"/>
			<point x="1111" y="-10" type="line"/>
			<point x="885" y="1100" type="line"/>
			<point x="864" y="1228" type="line"/>
			<point x="858" y="1228" type="line"/>
			<point x="837" y="1100" type="line" smooth="yes"/>
			<point x="631" y="-10" type="line"/>
		</contour>
	</outline>
</glyph>
<glyph name="Euro" format="2">
	<unicode hex="20AC"/>
	<advance width="981"/>
	<outline>
		<contour>
			<point x="724" y="983" type="line"/>
			<point x="727" y="831" type="line"/>
			<point x="22" y="831" type="line"/>
			<point x="22" y="983" type="line"/>
		</contour>
		<contour>
			<point x="727" y="657" type="line"/>
			<point x="727" y="506" type="line"/>
			<point x="22" y="506" type="line"/>
			<point x="22" y="657" type="line"/>
		</contour>
		<contour>
			<point x="163" y="544" type="qcurve" smooth="yes"/>
			<point x="163" y="903" type="line" smooth="yes"/>
			<point x="163" y="1183"/>
			<point x="397" y="1484"/>
			<point x="614" y="1484" type="qcurve" smooth="yes"/>
			<point x="706" y="1484"/>
			<point x="874" y="1408"/>
			<point x="938" y="1337" type="qcurve"/>
			<point x="836" y="1223" type="line"/>
			<point x="787" y="1276"/>
			<point x="680" y="1333"/>
			<point x="628" y="1333" type="qcurve" smooth="yes"/>
			<point x="490" y="1333"/>
			<point x="342" y="1112"/>
			<point x="342" y="906" type="qcurve" smooth="yes"/>
			<point x="342" y="541" type="line" smooth="yes"/>
			<point x="342" y="340"/>
			<point x="501" y="123"/>
			<point x="649" y="123" type="qcurve" smooth="yes"/>
			<point x="693" y="123"/>
			<point x="801" y="179"/>
			<point x="858" y="232" type="qcurve"/>
			<point x="951" y="126" type="line"/>
			<point x="890" y="51"/>
			<point x="716" y="-30"/>
			<point x="616" y="-30" type="qcurve" smooth="yes"/>
			<point x="398" y="-30"/>
			<point x="163" y="267"/>
		</contour>
	</outline>
</glyph>
<glyph name="uni20B1" format="2">
	<unicode hex="20B1"/>
	<advance width="984"/>
	<outline>
		<contour>
			<point x="404" y="421" type="qcurve" smooth="yes"/>
			<point x="187" y="421" type="line"/>
			<point x="187" y="577" type="line"/>
			<point x="402" y="577" type="line" smooth="yes"/>
			<point x="556" y="577"/>
			<point x="668" y="759"/>
			<point x="668" y="945" type="qcurve" smooth="yes"/>
			<point x="668" y="1131"/>
			<point x="556" y="1300"/>
			<point x="402" y="1300" type="qcurve" smooth="yes"/>
			<point x="277" y="1300" type="line"/>
			<point x="277" y="0" type="line"/>
			<point x="89" y="0" type="line"/>
			<point x="89" y="1456" type="line"/>
			<point x="405" y="1456" type="line" smooth="yes"/>
			<point x="640" y="1456"/>
			<point x="854" y="1203"/>
			<point x="854" y="955" type="qcurve" smooth="yes"/>
			<point x="854" y="725"/>
			<point x="639" y="421"/>
		</contour>
		<contour>
			<point x="-1" y="984" type="line"/>
			<point x="-1" y="1133" type="line"/>
			<point x="181" y="1133" type="line"/>
			<point x="181" y="1108" type="line"/>
			<point x="787" y="1108" type="line"/>
			<point x="787" y="1133" type="line"/>
			<point x="979" y="1135" type="line"/>
			<point x="979" y="986" type="line"/>
			<point x="807" y="984" type="line"/>
			<point x="807" y="999" type="line"/>
			<point x="181" y="999" type="line"/>
			<point x="181" y="984" type="line"/>
		</contour>
		<contour>
			<point x="-1" y="714" type="line"/>
			<point x="-1" y="863" type="line"/>
			<point x="181" y="863" type="line"/>
			<point x="181" y="848" type="line"/>
			<point x="807" y="848" type="line"/>
			<point x="807" y="863" type="line"/>
			<point x="979" y="865" type="line"/>
			<point x="979" y="716" type="line"/>
			<point x="767" y="714" type="line"/>
			<point x="767" y="738" type="line"/>
			<point x="181" y="738" type="line"/>
			<point x="181" y="714" type="line"/>
		</contour>
	</outline>
</glyph>
<glyph name="hryvnia" format="2">
	<unicode hex="20B4"/>
	<advance width="1085"/>
	<outline>
		<contour>
			<point x="1045" y="647" type="line"/>
			<point x="40" y="647" type="line"/>
			<point x="40" y="496" type="line"/>
			<point x="1045" y="496" type="line"/>
		</contour>
		<contour>
			<point x="1042" y="973" type="line"/>
			<point x="40" y="973" type="line"/>
			<point x="40" y="821" type="line"/>
			<point x="1045" y="821" type="line"/>
		</contour>
		<contour>
			<point x="824" y="400" type="line"/>
			<point x="824" y="378" type="line" smooth="yes"/>
			<point x="824" y="253"/>
			<point x="682" y="129"/>
			<point x="554" y="129" type="qcurve" smooth="yes"/>
			<point x="426" y="129"/>
			<point x="290" y="262"/>
			<point x="290" y="369" type="qcurve" smooth="yes"/>
			<point x="290" y="414"/>
			<point x="311" y="485"/>
			<point x="335" y="515" type="qcurve"/>
			<point x="133" y="515" type="line"/>
			<point x="121" y="482"/>
			<point x="108" y="407"/>
			<point x="108" y="364" type="qcurve" smooth="yes"/>
			<point x="108" y="176"/>
			<point x="347" y="-30"/>
			<point x="554" y="-30" type="qcurve" smooth="yes"/>
			<point x="760" y="-30"/>
			<point x="1008" y="169"/>
			<point x="1008" y="378" type="qcurve" smooth="yes"/>
			<point x="1008" y="400" type="line"/>
		</contour>
		<contour>
			<point x="562" y="1327" type="qcurve" smooth="yes"/>
			<point x="690" y="1327"/>
			<point x="802" y="1213"/>
			<point x="802" y="1128" type="qcurve" smooth="yes"/>
			<point x="802" y="1079"/>
			<point x="774" y="996"/>
			<point x="733" y="956" type="qcurve"/>
			<point x="952" y="956" type="line"/>
			<point x="967" y="993"/>
			<point x="984" y="1081"/>
			<point x="984" y="1133" type="qcurve" smooth="yes"/>
			<point x="984" y="1295"/>
			<point x="758" y="1486"/>
			<point x="562" y="1486" type="qcurve" smooth="yes"/>
			<point x="364" y="1486"/>
			<point x="130" y="1271"/>
			<point x="130" y="1084" type="qcurve" smooth="yes"/>
			<point x="130" y="1062" type="line"/>
			<point x="314" y="1062" type="line"/>
			<point x="314" y="1084" type="line" smooth="yes"/>
			<point x="314" y="1193"/>
			<point x="439" y="1327"/>
		</contour>
	</outline>
</glyph>
<glyph name="manat" format="2">
	<unicode hex="20BC"/>
	<advance width="1130"/>
	<outline>
		<contour>
			<point x="1022" y="916" type="qcurve" smooth="yes"/>
			<point x="1022" y="0" type="line"/>
			<point x="840" y="0" type="line"/>
			<point x="840" y="916" type="line" smooth="yes"/>
			<point x="840" y="1086"/>
			<point x="684" y="1256"/>
			<point x="545" y="1256" type="qcurve" smooth="yes"/>
			<point x="406" y="1256"/>
			<point x="250" y="1086"/>
			<point x="250" y="916" type="qcurve" smooth="yes"/>
			<point x="250" y="0" type="line"/>
			<point x="68" y="0" type="line"/>
			<point x="68" y="916" type="line" smooth="yes"/>
			<point x="71" y="1166"/>
			<point x="336" y="1416"/>
			<point x="545" y="1416" type="qcurve" smooth="yes"/>
			<point x="755" y="1416"/>
			<point x="1019" y="1166"/>
		</contour>
		<contour>
			<point x="625" y="0" type="line"/>
			<point x="465" y="0" type="line"/>
			<point x="465" y="1582" type="line"/>
			<point x="625" y="1582" type="line"/>
		</contour>
	</outline>
</glyph>
<glyph name="ruble" format="2">
	<unicode hex="20BD"/>
	<advance width="1024"/>
	<outline>
		<contour>
			<point x="446" y="615" type="qcurve" smooth="yes"/>
			<point x="30" y="615" type="line"/>
			<point x="30" y="764" type="line"/>
			<point x="446" y="764" type="line" smooth="yes"/>
			<point x="609" y="764"/>
			<point x="762" y="913"/>
			<point x="762" y="1033" type="qcurve" smooth="yes"/>
			<point x="762" y="1138"/>
			<point x="615" y="1304"/>
			<point x="446" y="1302" type="qcurve" smooth="yes"/>
			<point x="363" y="1302" type="line"/>
			<point x="363" y="0" type="line"/>
			<point x="188" y="0" type="line"/>
			<point x="188" y="1456" type="line"/>
			<point x="446" y="1456" type="line" smooth="yes"/>
			<point x="692" y="1456"/>
			<point x="954" y="1217"/>
			<point x="954" y="1035" type="qcurve" smooth="yes"/>
			<point x="954" y="835"/>
			<point x="692" y="616"/>
		</contour>
		<contour>
			<point x="724" y="420" type="line"/>
			<point x="724" y="270" type="line"/>
			<point x="30" y="270" type="line"/>
			<point x="30" y="420" type="line"/>
		</contour>
	</outline>
</glyph>
<glyph name="numero" format="2">
	<unicode hex="2116"/>
	<advance width="2171"/>
	<outline>
		<contour>
			<point x="170" y="0" type="line"/>
			<point x="170" y="1456" type="line"/>
			<point x="378" y="1456" type="line"/>
			<point x="881" y="432" type="line" smooth="yes"/>
			<point x="893" y="407"/>
			<point x="928" y="324"/>
			<point x="937" y="291" type="qcurve"/>
			<point x="945" y="291" type="line"/>
			<point x="942" y="326"/>
			<point x="942" y="418"/>
			<point x="942" y="450" type="qcurve" smooth="yes"/>
			<point x="942" y="1456" type="line"/>
			<point x="1121" y="1456" type="line"/>
			<point x="1121" y="0" type="line"/>
			<point x="913" y="0" type="line"/>
			<point x="405" y="1030" type="line" smooth="yes"/>
			<point x="390" y="1060"/>
			<point x="361" y="1124"/>
			<point x="351" y="1156" type="qcurve"/>
			<point x="343" y="1156" type="line"/>
			<point x="346" y="1122"/>
			<point x="347" y="1044"/>
			<point x="347" y="1010" type="qcurve" smooth="yes"/>
			<point x="347" y="0" type="line"/>
		</contour>
		<contour>
			<point x="1274" y="992" type="qcurve" smooth="yes"/>
			<point x="1274" y="1019" type="line" smooth="yes"/>
			<point x="1274" y="1219"/>
			<point x="1480" y="1473"/>
			<point x="1676" y="1473" type="qcurve" smooth="yes"/>
			<point x="1872" y="1473"/>
			<point x="2081" y="1219"/>
			<point x="2081" y="1019" type="qcurve" smooth="yes"/>
			<point x="2081" y="992" type="line" smooth="yes"/>
			<point x="2081" y="792"/>
			<point x="1884" y="539"/>
			<point x="1676" y="539" type="qcurve" smooth="yes"/>
			<point x="1468" y="539"/>
			<point x="1274" y="792"/>
		</contour>
		<contour>
			<point x="1456" y="1016" type="qcurve" smooth="yes"/>
			<point x="1456" y="991" type="line" smooth="yes"/>
			<point x="1456" y="864"/>
			<point x="1555" y="687"/>
			<point x="1676" y="687" type="qcurve" smooth="yes"/>
			<point x="1797" y="687"/>
			<point x="1899" y="864"/>
			<point x="1899" y="991" type="qcurve" smooth="yes"/>
			<point x="1899" y="1016" type="line" smooth="yes"/>
			<point x="1899" y="1143"/>
			<point x="1796" y="1325"/>
			<point x="1676" y="1325" type="qcurve" smooth="yes"/>
			<point x="1556" y="1325"/>
			<point x="1456" y="1143"/>
		</contour>
		<contour>
			<point x="1300" y="232" type="line"/>
			<point x="1300" y="414" type="line"/>
			<point x="2053" y="414" type="line"/>
			<point x="2053" y="232" type="line"/>
		</contour>
	</outline>
</glyph>
<glyph name="minus" format="2">
	<unicode hex="2212"/>
	<advance width="990"/>
	<outline>
		<contour>
			<point x="57" y="588" type="line"/>
			<point x="57" y="768" type="line"/>
			<point x="867" y="768" type="line"/>
			<point x="867" y="588" type="line"/>
		</contour>
	</outline>
</glyph>
<glyph name="approxequal" format="2">
	<unicode hex="2248"/>
	<advance width="990"/>
	<outline>
		<contour>
			<point x="121" y="703" type="qcurve"/>
			<point x="121" y="897" type="line"/>
			<point x="160" y="947"/>
			<point x="271" y="1004"/>
			<point x="326" y="1005" type="qcurve" smooth="yes"/>
			<point x="392" y="1006"/>
			<point x="469" y="964"/>
			<point x="522" y="934" type="qcurve" smooth="yes"/>
			<point x="572" y="904"/>
			<point x="643" y="865"/>
			<point x="705" y="865" type="qcurve" smooth="yes"/>
			<point x="760" y="865"/>
			<point x="865" y="932"/>
			<point x="904" y="991" type="qcurve"/>
			<point x="904" y="797" type="line"/>
			<point x="865" y="746"/>
			<point x="761" y="689"/>
			<point x="706" y="689" type="qcurve" smooth="yes"/>
			<point x="644" y="689"/>
			<point x="572" y="728"/>
			<point x="523" y="757" type="qcurve" smooth="yes"/>
			<point x="470" y="788"/>
			<point x="392" y="829"/>
			<point x="326" y="829" type="qcurve" smooth="yes"/>
			<point x="271" y="829"/>
			<point x="160" y="762"/>
		</contour>
		<contour>
			<point x="120" y="292" type="qcurve"/>
			<point x="120" y="486" type="line"/>
			<point x="159" y="537"/>
			<point x="270" y="593"/>
			<point x="325" y="594" type="qcurve" smooth="yes"/>
			<point x="391" y="595"/>
			<point x="468" y="552"/>
			<point x="521" y="522" type="qcurve" smooth="yes"/>
			<point x="571" y="492"/>
			<point x="642" y="454"/>
			<point x="704" y="454" type="qcurve" smooth="yes"/>
			<point x="759" y="454"/>
			<point x="864" y="521"/>
			<point x="903" y="580" type="qcurve"/>
			<point x="903" y="385" type="line"/>
			<point x="864" y="335"/>
			<point x="760" y="278"/>
			<point x="705" y="278" type="qcurve" smooth="yes"/>
			<point x="643" y="278"/>
			<point x="572" y="316"/>
			<point x="522" y="346" type="qcurve" smooth="yes"/>
			<point x="469" y="376"/>
			<point x="391" y="417"/>
			<point x="325" y="417" type="qcurve" smooth="yes"/>
			<point x="270" y="417"/>
			<point x="159" y="351"/>
		</contour>
	</outline>
</glyph>
<glyph name="notequal" format="2">
	<unicode hex="2260"/>
	<advance width="990"/>
	<outline>
		<contour>
			<point x="818" y="1172" type="line"/>
			<point x="683" y="880" type="line"/>
			<point x="659" y="849" type="line"/>
			<point x="475" y="462" type="line"/>
			<point x="473" y="438" type="line"/>
			<point x="320" y="117" type="line"/>
			<point x="184" y="178" type="line"/>
			<point x="302" y="426" type="line"/>
			<point x="323" y="450" type="line"/>
			<point x="501" y="824" type="line"/>
			<point x="509" y="861" type="line"/>
			<point x="682" y="1233" type="line"/>
		</contour>
		<contour>
			<point x="156" y="382" type="line"/>
			<point x="156" y="541" type="line"/>
			<point x="906" y="541" type="line"/>
			<point x="906" y="382" type="line"/>
		</contour>
		<contour>
			<point x="156" y="785" type="line"/>
			<point x="156" y="944" type="line"/>
			<point x="906" y="944" type="line"/>
			<point x="906" y="785" type="line"/>
		</contour>
	</outline>
</glyph>
<glyph name="lessequal" format="2">
	<unicode hex="2264"/>
	<advance width="990"/>
	<outline>
		<contour>
			<point x="888" y="224" type="line"/>
			<point x="172" y="604" type="line"/>
			<point x="172" y="744" type="line"/>
			<point x="888" y="1124" type="line"/>
			<point x="888" y="941" type="line"/>
			<point x="359" y="674" type="line"/>
			<point x="888" y="407" type="line"/>
		</contour>
		<contour>
			<point x="132" y="1" type="line"/>
			<point x="132" y="164" type="line"/>
			<point x="912" y="164" type="line"/>
			<point x="912" y="1" type="line"/>
		</contour>
	</outline>
</glyph>
<glyph name="greaterequal" format="2">
	<unicode hex="2265"/>
	<advance width="990"/>
	<outline>
		<contour>
			<point x="156" y="224" type="line"/>
			<point x="156" y="407" type="line"/>
			<point x="685" y="674" type="line"/>
			<point x="156" y="941" type="line"/>
			<point x="156" y="1124" type="line"/>
			<point x="872" y="744" type="line"/>
			<point x="872" y="604" type="line"/>
		</contour>
		<contour>
			<point x="912" y="1" type="line"/>
			<point x="132" y="1" type="line"/>
			<point x="132" y="164" type="line"/>
			<point x="912" y="164" type="line"/>
		</contour>
	</outline>
</glyph>
<glyph name="De.bgr" format="2">
	<advance width="1256"/>
	<outline>
		<contour>
			<point x="1074" y="-290" type="line"/>
			<point x="1074" y="0" type="line"/>
			<point x="182" y="0" type="line"/>
			<point x="182" y="-290" type="line"/>
			<point x="10" y="-290" type="line"/>
			<point x="10" y="154" type="line"/>
			<point x="1246" y="154" type="line"/>
			<point x="1246" y="-290" type="line"/>
		</contour>
		<contour>
			<point x="1171" y="0" type="line"/>
			<point x="981" y="0" type="line"/>
			<point x="658" y="1107" type="line" smooth="yes"/>
			<point x="648" y="1140"/>
			<point x="635" y="1202"/>
			<point x="630" y="1235" type="qcurve"/>
			<point x="622" y="1235" type="line"/>
			<point x="618" y="1202"/>
			<point x="605" y="1140"/>
			<point x="595" y="1107" type="qcurve" smooth="yes"/>
			<point x="268" y="0" type="line"/>
			<point x="85" y="0" type="line"/>
			<point x="535" y="1466" type="line"/>
			<point x="721" y="1466" type="line"/>
		</contour>
	</outline>
</glyph>
<glyph name="acutecomb.case" format="2">
	<advance width="1024"/>
	<outline>
		<contour>
			<point x="406" y="1659" type="line"/>
			<point x="608" y="2000" type="line"/>
			<point x="761" y="1900" type="line"/>
			<point x="526" y="1600" type="line"/>
		</contour>
	</outline>
	<anchor name="_top" x="512" y="1456"/>
	<anchor name="top" x="512" y="2000"/>
</glyph>
<glyph name="be.locl" format="2">
	<advance width="1016"/>
	<outline>
		<contour>
			<point x="267" y="562" type="qcurve" smooth="yes"/>
			<point x="267" y="470" type="line" smooth="yes"/>
			<point x="267" y="310"/>
			<point x="388" y="118"/>
			<point x="508" y="118" type="qcurve" smooth="yes"/>
			<point x="628" y="118"/>
			<point x="750" y="310"/>
			<point x="750" y="470" type="qcurve" smooth="yes"/>
			<point x="750" y="562" type="line" smooth="yes"/>
			<point x="750" y="727"/>
			<point x="634" y="914"/>
			<point x="508" y="914" type="qcurve" smooth="yes"/>
			<point x="382" y="914"/>
			<point x="267" y="722"/>
		</contour>
		<contour>
			<point x="85" y="500" type="qcurve" smooth="yes"/>
			<point x="85" y="532" type="line" smooth="yes"/>
			<point x="85" y="688"/>
			<point x="207" y="923"/>
			<point x="359" y="987" type="qcurve"/>
			<point x="359" y="991" type="line"/>
			<point x="240" y="1022"/>
			<point x="139" y="1141"/>
			<point x="139" y="1234" type="qcurve" smooth="yes"/>
			<point x="139" y="1344"/>
			<point x="309" y="1485"/>
			<point x="487" y="1485" type="qcurve" smooth="yes"/>
			<point x="569" y="1485" type="line" smooth="yes"/>
			<point x="655" y="1485"/>
			<point x="728" y="1506"/>
			<point x="737" y="1536" type="qcurve"/>
			<point x="886" y="1536" type="line"/>
			<point x="874" y="1426"/>
			<point x="732" y="1328"/>
			<point x="580" y="1328" type="qcurve" smooth="yes"/>
			<point x="497" y="1328" type="line" smooth="yes"/>
			<point x="377" y="1328"/>
			<point x="287" y="1271"/>
			<point x="287" y="1214" type="qcurve" smooth="yes"/>
			<point x="287" y="1139"/>
			<point x="433" y="1072"/>
			<point x="574" y="1049" type="qcurve" smooth="yes"/>
			<point x="759" y="1019"/>
			<point x="932" y="734"/>
			<point x="932" y="532" type="qcurve" smooth="yes"/>
			<point x="932" y="500" type="line" smooth="yes"/>
			<point x="932" y="247"/>
			<point x="701" y="-30"/>
			<point x="508" y="-30" type="qcurve" smooth="yes"/>
			<point x="315" y="-30"/>
			<point x="85" y="247"/>
		</contour>
	</outline>
</glyph>
<glyph name="breve.cyr.case" format="2">
	<advance width="1024"/>
	<outline>
		<contour>
			<point x="512" y="1751" type="qcurve" smooth="yes"/>
			<point x="602" y="1751"/>
			<point x="717.5210232099" y="1840.3711137103"/>
			<point x="755" y="1939" type="qcurve"/>
			<point x="904" y="1849" type="line"/>
			<point x="847" y="1726"/>
			<point x="639" y="1600"/>
			<point x="512" y="1600" type="qcurve" smooth="yes"/>
			<point x="385" y="1600"/>
			<point x="176" y="1725"/>
			<point x="120" y="1849" type="qcurve"/>
			<point x="269" y="1939" type="line"/>
			<point x="305.490572053" y="1841.3630639662"/>
			<point x="422" y="1751"/>
		</contour>
	</outline>
	<anchor name="_top" x="512" y="1456"/>
	<anchor name="top" x="512" y="1456"/>
</glyph>
<glyph name="breve.cyr" format="2">
	<advance width="1032"/>
	<outline>
		<contour>
			<point x="516" y="1375" type="qcurve" smooth="yes"/>
			<point x="586" y="1375"/>
			<point x="672.3603746758" y="1448.9539329654"/>
			<point x="706" y="1538" type="qcurve"/>
			<point x="855" y="1449" type="line"/>
			<point x="804" y="1330"/>
			<point x="629" y="1220"/>
			<point x="516" y="1220" type="qcurve" smooth="yes"/>
			<point x="402" y="1220"/>
			<point x="228" y="1330"/>
			<point x="177" y="1449" type="qcurve"/>
			<point x="326" y="1538" type="line"/>
			<point x="359.6396253242" y="1448.9539329654"/>
			<point x="446" y="1375"/>
		</contour>
	</outline>
	<anchor name="_top" x="516" y="1052"/>
	<anchor name="top" x="516" y="1052"/>
</glyph>
<glyph name="brevehookabovecomb" format="2">
	<advance width="1024"/>
	<outline>
		<contour>
			<point x="754" y="1540" type="qcurve"/>
			<point x="849" y="1486" type="line"/>
			<point x="814" y="1387"/>
			<point x="639" y="1220"/>
			<point x="513" y="1220" type="qcurve" smooth="yes"/>
			<point x="400" y="1220"/>
			<point x="219" y="1373"/>
			<point x="177" y="1487" type="qcurve"/>
			<point x="281" y="1540" type="line"/>
			<point x="316" y="1483"/>
			<point x="435" y="1384"/>
			<point x="514" y="1384" type="qcurve" smooth="yes"/>
			<point x="598" y="1384"/>
			<point x="718" y="1479"/>
		</contour>
		<contour>
			<point x="427" y="1590" type="line"/>
			<point x="427" y="1629" type="line" smooth="yes"/>
			<point x="427" y="1681"/>
			<point x="486" y="1751"/>
			<point x="562" y="1762" type="qcurve" smooth="yes"/>
			<point x="618" y="1770"/>
			<point x="658" y="1802"/>
			<point x="658" y="1843" type="qcurve" smooth="yes"/>
			<point x="658" y="1882"/>
			<point x="599" y="1918"/>
			<point x="545" y="1918" type="qcurve" smooth="yes"/>
			<point x="481" y="1918"/>
			<point x="369" y="1885"/>
			<point x="359" y="1877" type="qcurve"/>
			<point x="305" y="2002" type="line"/>
			<point x="340" y="2021"/>
			<point x="494" y="2062"/>
			<point x="576" y="2062" type="qcurve" smooth="yes"/>
			<point x="696" y="2062"/>
			<point x="821" y="1948"/>
			<point x="821" y="1852" type="qcurve" smooth="yes"/>
			<point x="821" y="1751"/>
			<point x="693" y="1632"/>
			<point x="550" y="1621" type="qcurve"/>
			<point x="550" y="1590" type="line"/>
		</contour>
	</outline>
	<anchor name="_top" x="512" y="1052"/>
</glyph>
<glyph name="caroncomb.case" format="2">
	<advance width="1024"/>
	<outline>
		<contour>
			<point x="437" y="1600" type="line"/>
			<point x="172" y="1920" type="line"/>
			<point x="339" y="1922" type="line"/>
			<point x="505" y="1758" type="line"/>
			<point x="665" y="1920" type="line"/>
			<point x="838" y="1920" type="line"/>
			<point x="581" y="1600" type="line"/>
		</contour>
	</outline>
	<anchor name="_top" x="512" y="1456"/>
	<anchor name="top" x="512" y="1922"/>
</glyph>
<glyph name="cent.rvrn" format="2">
	<advance width="935"/>
	<outline>
		<contour>
			<point x="490" y="282" type="qcurve" smooth="yes"/>
			<point x="587" y="282"/>
			<point x="692" y="398"/>
			<point x="692" y="506" type="qcurve"/>
			<point x="864" y="506" type="line"/>
			<point x="864" y="327"/>
			<point x="671" y="134"/>
			<point x="492" y="134" type="qcurve" smooth="yes"/>
			<point x="296" y="134"/>
			<point x="85" y="414"/>
			<point x="85" y="674" type="qcurve" smooth="yes"/>
			<point x="85" y="706" type="line" smooth="yes"/>
			<point x="85" y="966"/>
			<point x="300" y="1246"/>
			<point x="500" y="1246" type="qcurve" smooth="yes"/>
			<point x="675" y="1246"/>
			<point x="864" y="1053"/>
			<point x="864" y="874" type="qcurve"/>
			<point x="692" y="874" type="line"/>
			<point x="692" y="981"/>
			<point x="592" y="1097"/>
			<point x="499" y="1097" type="qcurve" smooth="yes"/>
			<point x="387" y="1097"/>
			<point x="267" y="910"/>
			<point x="267" y="736" type="qcurve" smooth="yes"/>
			<point x="267" y="644" type="line" smooth="yes"/>
			<point x="267" y="470"/>
			<point x="383" y="282"/>
		</contour>
		<contour>
			<point x="400" y="0" type="line"/>
			<point x="400" y="197" type="line"/>
			<point x="405" y="211" type="line"/>
			<point x="405" y="234" type="line"/>
			<point x="545" y="234" type="line"/>
			<point x="545" y="210" type="line"/>
			<point x="550" y="200" type="line"/>
			<point x="550" y="0" type="line"/>
		</contour>
		<contour>
			<point x="405" y="1146" type="line"/>
			<point x="405" y="1182" type="line"/>
			<point x="400" y="1192" type="line"/>
			<point x="400" y="1402" type="line"/>
			<point x="550" y="1402" type="line"/>
			<point x="550" y="1192" type="line"/>
			<point x="545" y="1179" type="line"/>
			<point x="545" y="1146" type="line"/>
		</contour>
	</outline>
</glyph>
<glyph name="circumflexgravecomb" format="2">
	<advance width="1024"/>
	<outline>
		<contour>
			<point x="569" y="1533" type="line"/>
			<point x="817" y="1220" type="line"/>
			<point x="663" y="1220" type="line"/>
			<point x="513" y="1379" type="line"/>
			<point x="364" y="1220" type="line"/>
			<point x="212" y="1220" type="line"/>
			<point x="457" y="1533" type="line"/>
		</contour>
		<contour>
			<point x="878" y="1433" type="line"/>
			<point x="579" y="1708" type="line"/>
			<point x="732" y="1813" type="line"/>
			<point x="983" y="1512" type="line"/>
		</contour>
	</outline>
	<anchor name="_top" x="512" y="1052"/>
</glyph>
<glyph name="circumflextildecomb.case" format="2">
	<advance width="1024"/>
	<outline>
		<contour>
			<point x="580" y="1890" type="line"/>
			<point x="845" y="1600" type="line"/>
			<point x="683" y="1598" type="line"/>
			<point x="512" y="1737" type="line"/>
			<point x="347" y="1600" type="line"/>
			<point x="179" y="1600" type="line"/>
			<point x="436" y="1890" type="line"/>
		</contour>
		<contour>
			<point x="159" y="2109" type="line"/>
			<point x="199" y="2181"/>
			<point x="323" y="2255"/>
			<point x="390" y="2255" type="qcurve" smooth="yes"/>
			<point x="425" y="2255"/>
			<point x="498" y="2233"/>
			<point x="534" y="2207" type="qcurve" smooth="yes"/>
			<point x="564" y="2185"/>
			<point x="630" y="2150"/>
			<point x="662" y="2150" type="qcurve" smooth="yes"/>
			<point x="702" y="2150"/>
			<point x="749" y="2190"/>
			<point x="770" y="2229" type="qcurve"/>
			<point x="864" y="2138" type="line"/>
			<point x="832" y="2064"/>
			<point x="718" y="1990"/>
			<point x="653" y="1990" type="qcurve" smooth="yes"/>
			<point x="604" y="1990"/>
			<point x="522" y="2025"/>
			<point x="492" y="2045" type="qcurve" smooth="yes"/>
			<point x="461" y="2066"/>
			<point x="397" y="2103"/>
			<point x="373" y="2103" type="qcurve" smooth="yes"/>
			<point x="337" y="2103"/>
			<point x="276" y="2048"/>
			<point x="257" y="2018" type="qcurve"/>
		</contour>
	</outline>
	<anchor name="_top" x="512" y="1456"/>
</glyph>
<glyph name="circumflextildecomb" format="2">
	<advance width="1024"/>
	<outline>
		<contour>
			<point x="569" y="1533" type="line"/>
			<point x="817" y="1220" type="line"/>
			<point x="663" y="1220" type="line"/>
			<point x="513" y="1379" type="line"/>
			<point x="364" y="1220" type="line"/>
			<point x="212" y="1220" type="line"/>
			<point x="457" y="1533" type="line"/>
		</contour>
		<contour>
			<point x="137" y="1739" type="line"/>
			<point x="170" y="1802"/>
			<point x="308" y="1900"/>
			<point x="375" y="1900" type="qcurve" smooth="yes"/>
			<point x="416" y="1900"/>
			<point x="491" y="1875"/>
			<point x="528" y="1851" type="qcurve" smooth="yes"/>
			<point x="562" y="1829"/>
			<point x="640" y="1785"/>
			<point x="678" y="1785" type="qcurve" smooth="yes"/>
			<point x="718" y="1785"/>
			<point x="788" y="1838"/>
			<point x="811" y="1874" type="qcurve"/>
			<point x="892" y="1776" type="line"/>
			<point x="854" y="1705"/>
			<point x="721" y="1633"/>
			<point x="664" y="1633" type="qcurve" smooth="yes"/>
			<point x="615" y="1633"/>
			<point x="521" y="1676"/>
			<point x="490" y="1693" type="qcurve" smooth="yes"/>
			<point x="456" y="1712"/>
			<point x="388" y="1746"/>
			<point x="359" y="1746" type="qcurve" smooth="yes"/>
			<point x="312" y="1746"/>
			<point x="231" y="1674"/>
			<point x="213" y="1647" type="qcurve"/>
		</contour>
	</outline>
	<anchor name="_top" x="512" y="1052"/>
</glyph>
<glyph name="diagonalbarO.rvrn" format="2">
	<advance width="623"/>
	<outline>
		<contour>
			<point x="3" y="-109" type="line"/>
			<point x="57" y="86" type="line"/>
			<point x="75" y="81" type="line"/>
			<point x="96" y="159" type="line"/>
			<point x="204" y="91" type="line"/>
			<point x="196" y="54" type="line"/>
			<point x="216" y="50" type="line"/>
			<point x="173" y="-109" type="line"/>
		</contour>
		<contour>
			<point x="452" y="1618" type="line"/>
			<point x="623" y="1618" type="line"/>
			<point x="570" y="1424" type="line"/>
			<point x="549" y="1428" type="line"/>
			<point x="527" y="1350" type="line"/>
			<point x="419" y="1418" type="line"/>
			<point x="429" y="1455" type="line"/>
			<point x="409" y="1460" type="line"/>
		</contour>
	</outline>
</glyph>
<glyph name="diagonalbaro.rvrn" format="2">
	<advance width="512"/>
	<outline>
		<contour>
			<point x="-88" y="-118" type="line"/>
			<point x="-4" y="89" type="line"/>
			<point x="14" y="84" type="line"/>
			<point x="43" y="156" type="line"/>
			<point x="142" y="86" type="line"/>
			<point x="131" y="55" type="line"/>
			<point x="151" y="51" type="line"/>
			<point x="77" y="-123" type="line"/>
		</contour>
		<contour>
			<point x="418" y="1144" type="line"/>
			<point x="589" y="1141" type="line"/>
			<point x="511" y="948" type="line"/>
			<point x="490" y="953" type="line"/>
			<point x="464" y="891" type="line"/>
			<point x="365" y="961" type="line"/>
			<point x="374" y="981" type="line"/>
			<point x="354" y="987" type="line"/>
		</contour>
	</outline>
</glyph>
<glyph name="dotaccentcombstack.case" format="2">
  <advance width="1024"/>
  <anchor x="512" y="1456" name="_top"/>
  <anchor x="512" y="1836" name="top"/>
  <outline>
    <contour>
      <point x="406" y="1732" type="qcurve" smooth="yes"/>
      <point x="406" y="1776"/>
      <point x="461" y="1836"/>
      <point x="512" y="1836" type="qcurve" smooth="yes"/>
      <point x="563" y="1836"/>
      <point x="618" y="1776"/>
      <point x="618" y="1732" type="qcurve" smooth="yes"/>
      <point x="618" y="1688"/>
      <point x="563" y="1628"/>
      <point x="512" y="1628" type="qcurve" smooth="yes"/>
      <point x="461" y="1628"/>
      <point x="406" y="1688"/>
    </contour>
  </outline>
</glyph>
<glyph name="eight.prop" format="2">
	<advance width="982"/>
	<outline>
		<contour>
			<point x="84" y="386" type="qcurve" smooth="yes"/>
			<point x="84" y="515"/>
			<point x="199" y="702"/>
			<point x="304" y="743" type="qcurve"/>
			<point x="304" y="747" type="line"/>
			<point x="210" y="791"/>
			<point x="124" y="968"/>
			<point x="124" y="1087" type="qcurve" smooth="yes"/>
			<point x="124" y="1267"/>
			<point x="333" y="1486"/>
			<point x="491" y="1486" type="qcurve" smooth="yes"/>
			<point x="649" y="1486"/>
			<point x="858" y="1267"/>
			<point x="858" y="1087" type="qcurve" smooth="yes"/>
			<point x="858" y="968"/>
			<point x="762" y="791"/>
			<point x="678" y="747" type="qcurve"/>
			<point x="678" y="743" type="line"/>
			<point x="788" y="697"/>
			<point x="898" y="516"/>
			<point x="898" y="386" type="qcurve" smooth="yes"/>
			<point x="898" y="188"/>
			<point x="666" y="-30"/>
			<point x="491" y="-30" type="qcurve" smooth="yes"/>
			<point x="316" y="-30"/>
			<point x="84" y="188"/>
		</contour>
		<contour>
			<point x="264" y="395" type="qcurve" smooth="yes"/>
			<point x="264" y="274"/>
			<point x="383" y="123"/>
			<point x="491" y="123" type="qcurve" smooth="yes"/>
			<point x="598" y="123"/>
			<point x="717" y="274"/>
			<point x="717" y="395" type="qcurve" smooth="yes"/>
			<point x="717" y="517"/>
			<point x="598" y="668"/>
			<point x="491" y="668" type="qcurve" smooth="yes"/>
			<point x="383" y="668"/>
			<point x="264" y="517"/>
		</contour>
		<contour>
			<point x="300" y="1078" type="qcurve" smooth="yes"/>
			<point x="300" y="966"/>
			<point x="400" y="822"/>
			<point x="491" y="822" type="qcurve" smooth="yes"/>
			<point x="581" y="822"/>
			<point x="682" y="966"/>
			<point x="682" y="1078" type="qcurve" smooth="yes"/>
			<point x="682" y="1190"/>
			<point x="581" y="1333"/>
			<point x="491" y="1333" type="qcurve" smooth="yes"/>
			<point x="400" y="1333"/>
			<point x="300" y="1190"/>
		</contour>
	</outline>
</glyph>
<glyph name="five.prop" format="2">
	<advance width="916"/>
	<outline>
		<contour>
			<point x="42" y="365" type="qcurve" smooth="yes"/>
			<point x="42" y="375" type="line"/>
			<point x="218" y="375" type="line"/>
			<point x="218" y="365" type="line" smooth="yes"/>
			<point x="218" y="253"/>
			<point x="342" y="123"/>
			<point x="445" y="123" type="qcurve" smooth="yes"/>
			<point x="549" y="123"/>
			<point x="680" y="303"/>
			<point x="680" y="465" type="qcurve" smooth="yes"/>
			<point x="680" y="626"/>
			<point x="549" y="796"/>
			<point x="446" y="796" type="qcurve" smooth="yes"/>
			<point x="369" y="796"/>
			<point x="248" y="730"/>
			<point x="201" y="676" type="qcurve"/>
			<point x="86" y="730" type="line"/>
			<point x="158" y="1456" type="line"/>
			<point x="797" y="1456" type="line"/>
			<point x="797" y="1292" type="line"/>
			<point x="308" y="1292" type="line"/>
			<point x="265" y="888" type="line"/>
			<point x="308" y="916"/>
			<point x="410" y="950"/>
			<point x="470" y="950" type="qcurve" smooth="yes"/>
			<point x="634" y="950"/>
			<point x="862" y="694"/>
			<point x="862" y="465" type="qcurve" smooth="yes"/>
			<point x="862" y="235"/>
			<point x="626" y="-30"/>
			<point x="445" y="-30" type="qcurve" smooth="yes"/>
			<point x="265" y="-30"/>
			<point x="42" y="195"/>
		</contour>
	</outline>
</glyph>
<glyph name="four.prop" format="2">
	<advance width="1000"/>
	<outline>
		<contour>
			<point x="600" y="0" type="line"/>
			<point x="600" y="398" type="line"/>
			<point x="600" y="448" type="line"/>
			<point x="600" y="1088" type="line"/>
			<point x="588" y="1088" type="line"/>
			<point x="234" y="496" type="line"/>
			<point x="665" y="496" type="line"/>
			<point x="729" y="496" type="line"/>
			<point x="951" y="496" type="line"/>
			<point x="951" y="344" type="line"/>
			<point x="36" y="344" type="line"/>
			<point x="36" y="466" type="line"/>
			<point x="629" y="1456" type="line"/>
			<point x="772" y="1456" type="line"/>
			<point x="772" y="0" type="line"/>
		</contour>
	</outline>
</glyph>
<glyph name="ghe.bgr" format="2">
	<advance width="884"/>
	<outline>
		<contour>
			<point x="804" y="310" type="line"/>
			<point x="804" y="305" type="line" smooth="yes"/>
			<point x="804" y="146"/>
			<point x="624" y="-30"/>
			<point x="438" y="-30" type="qcurve" smooth="yes"/>
			<point x="265" y="-30"/>
			<point x="80" y="129"/>
			<point x="80" y="274" type="qcurve" smooth="yes"/>
			<point x="80" y="410"/>
			<point x="233" y="559"/>
			<point x="372" y="603" type="qcurve" smooth="yes"/>
			<point x="512.1317191557" y="647.0413974489"/>
			<point x="600" y="731.3229166667"/>
			<point x="600" y="797" type="qcurve" smooth="yes"/>
			<point x="600" y="863.0629370629"/>
			<point x="519.4969325153" y="938"/>
			<point x="438" y="938" type="qcurve" smooth="yes"/>
			<point x="355" y="938"/>
			<point x="275" y="862"/>
			<point x="275" y="780" type="qcurve" smooth="yes"/>
			<point x="275" y="755" type="line"/>
			<point x="98" y="755" type="line"/>
			<point x="98" y="760" type="line" smooth="yes"/>
			<point x="98" y="921"/>
			<point x="280" y="1082"/>
			<point x="438" y="1082" type="qcurve" smooth="yes"/>
			<point x="618" y="1082"/>
			<point x="778" y="915.1546391753"/>
			<point x="778" y="793" type="qcurve" smooth="yes"/>
			<point x="778" y="668.1974110032"/>
			<point x="620.0750416544" y="524.0225124963"/>
			<point x="480" y="482" type="qcurve" smooth="yes"/>
			<point x="339" y="440"/>
			<point x="258" y="344.4170854271"/>
			<point x="258" y="273" type="qcurve" smooth="yes"/>
			<point x="258" y="198"/>
			<point x="354" y="114"/>
			<point x="438" y="114" type="qcurve" smooth="yes"/>
			<point x="522" y="114"/>
			<point x="626" y="212"/>
			<point x="626" y="305" type="qcurve" smooth="yes"/>
			<point x="626" y="310" type="line"/>
		</contour>
	</outline>
</glyph>
<glyph name="gravecomb.case" format="2">
  <advance width="1024"/>
  <anchor x="512.0" y="1456" name="_top"/>
  <anchor x="512.0" y="1974" name="top"/>
  <outline>
    <contour>
      <point x="468" y="1574" type="line"/>
      <point x="233" y="1874" type="line"/>
      <point x="386" y="1974" type="line"/>
      <point x="588" y="1633" type="line"/>
    </contour>
  </outline>
</glyph>
<glyph name="horizontalbarH" format="2">
	<advance width="1458"/>
	<outline>
		<contour>
			<point x="1392" y="1027" type="line"/>
			<point x="1170" y="1025" type="line"/>
			<point x="1170" y="1162" type="line"/>
			<point x="1402" y="1164" type="line"/>
		</contour>
		<contour>
			<point x="65" y="1025" type="line"/>
			<point x="56" y="1162" type="line"/>
			<point x="295" y="1162" type="line"/>
			<point x="295" y="1025" type="line"/>
		</contour>
		<contour>
			<point x="295" y="1035" type="line"/>
			<point x="295" y="1152" type="line"/>
			<point x="1170" y="1152" type="line"/>
			<point x="1170" y="1035" type="line"/>
		</contour>
	</outline>
</glyph>
<glyph name="hryvnia.rvrn" format="2">
  <advance width="1085"/>
  <outline>
    <contour>
      <point x="130" y="315" type="qcurve" smooth="yes"/>
      <point x="130" y="426"/>
      <point x="240" y="593"/>
      <point x="336" y="663" type="qcurve" smooth="yes"/>
      <point x="674" y="910" type="line" smooth="yes"/>
      <point x="728" y="949"/>
      <point x="792" y="1061"/>
      <point x="792" y="1128" type="qcurve" smooth="yes"/>
      <point x="792" y="1224"/>
      <point x="673" y="1327"/>
      <point x="562" y="1327" type="qcurve" smooth="yes"/>
      <point x="479" y="1327"/>
      <point x="369" y="1247"/>
      <point x="350" y="1172" type="qcurve" smooth="yes"/>
      <point x="344" y="1149" type="line"/>
      <point x="161" y="1175" type="line"/>
      <point x="168" y="1204" type="line" smooth="yes"/>
      <point x="200" y="1340"/>
      <point x="405" y="1486"/>
      <point x="562" y="1486" type="qcurve" smooth="yes"/>
      <point x="754" y="1486"/>
      <point x="961" y="1303"/>
      <point x="961" y="1133" type="qcurve" smooth="yes"/>
      <point x="961" y="1037"/>
      <point x="877" y="903"/>
      <point x="786" y="838" type="qcurve" smooth="yes"/>
      <point x="463" y="606" type="line" smooth="yes"/>
      <point x="369" y="538"/>
      <point x="299" y="410"/>
      <point x="299" y="329" type="qcurve" smooth="yes"/>
      <point x="299" y="232"/>
      <point x="433" y="128"/>
      <point x="558" y="129" type="qcurve" smooth="yes"/>
      <point x="669" y="130"/>
      <point x="794" y="235"/>
      <point x="799" y="332" type="qcurve" smooth="yes"/>
      <point x="800" y="352" type="line"/>
      <point x="982" y="325" type="line"/>
      <point x="979" y="293" type="line" smooth="yes"/>
      <point x="964" y="137"/>
      <point x="742" y="-30.0"/>
      <point x="551" y="-30.0" type="qcurve" smooth="yes"/>
      <point x="348" y="-30.0"/>
      <point x="130" y="149"/>
    </contour>
    <contour>
      <point x="40" y="688" type="line"/>
      <point x="40" y="827" type="line"/>
      <point x="1045" y="827" type="line"/>
      <point x="1045" y="688" type="line"/>
    </contour>
  </outline>
</glyph>
<glyph name="jdotless" format="2">
	<advance width="492"/>
	<outline>
		<contour>
			<point x="-50" y="-410" type="qcurve"/>
			<point x="-50" y="-265" type="line"/>
			<point x="-32" y="-271"/>
			<point x="29" y="-285"/>
			<point x="56" y="-285" type="qcurve" smooth="yes"/>
			<point x="104" y="-285"/>
			<point x="157" y="-213"/>
			<point x="157" y="-130" type="qcurve" smooth="yes"/>
			<point x="157" y="1052" type="line"/>
			<point x="335" y="1052" type="line"/>
			<point x="335" y="-90" type="line" smooth="yes"/>
			<point x="335" y="-270"/>
			<point x="210" y="-436"/>
			<point x="90" y="-436" type="qcurve" smooth="yes"/>
			<point x="56" y="-436"/>
			<point x="-28" y="-419"/>
		</contour>
	</outline>
	<anchor name="bottom" x="250" y="-436"/>
	<anchor name="top" x="250" y="1052"/>
</glyph>
<glyph name="nine.prop" format="2">
  <advance width="1028"/>
  <outline>
    <contour>
      <point x="76" y="1002" type="qcurve" smooth="yes"/>
      <point x="76" y="1218"/>
      <point x="312" y="1486"/>
      <point x="492" y="1486" type="qcurve" smooth="yes"/>
      <point x="673" y="1486"/>
      <point x="932" y="1182"/>
      <point x="932" y="842" type="qcurve" smooth="yes"/>
      <point x="932" y="812" type="line" smooth="yes"/>
      <point x="932" y="432"/>
      <point x="578" y="-30"/>
      <point x="253" y="-30" type="qcurve" smooth="yes"/>
      <point x="236" y="-30" type="line"/>
      <point x="236" y="123" type="line"/>
      <point x="253" y="123" type="line" smooth="yes"/>
      <point x="484" y="123"/>
      <point x="752" y="452"/>
      <point x="752" y="802" type="qcurve" smooth="yes"/>
      <point x="752" y="852" type="line" smooth="yes"/>
      <point x="752" y="1115"/>
      <point x="604" y="1333"/>
      <point x="492" y="1333" type="qcurve" smooth="yes"/>
      <point x="381" y="1333"/>
      <point x="259" y="1159"/>
      <point x="259" y="1002" type="qcurve" smooth="yes"/>
      <point x="259" y="846"/>
      <point x="381" y="675"/>
      <point x="492" y="675" type="qcurve" smooth="yes"/>
      <point x="597" y="675"/>
      <point x="758" y="846"/>
      <point x="758" y="1002" type="qcurve"/>
      <point x="826" y="1002" type="line"/>
      <point x="826" y="787"/>
      <point x="624" y="522"/>
      <point x="459" y="522" type="qcurve" smooth="yes"/>
      <point x="288" y="522"/>
      <point x="76" y="787"/>
    </contour>
  </outline>
</glyph>
<glyph name="seven.prop" format="2">
	<advance width="787"/>
	<outline>
		<contour>
			<point x="137" y="0" type="line"/>
			<point x="581" y="1304" type="line"/>
			<point x="-5" y="1304" type="line"/>
			<point x="-5" y="1456" type="line"/>
			<point x="769" y="1456" type="line"/>
			<point x="769" y="1354" type="line"/>
			<point x="325" y="0" type="line"/>
		</contour>
	</outline>
</glyph>
<glyph name="shcha.bgr" format="2">
	<advance width="1525"/>
	<outline>
		<contour>
			<point x="1332" y="-270" type="line"/>
			<point x="1332" y="0" type="line"/>
			<point x="1207" y="0" type="line"/>
			<point x="1200" y="120" type="line"/>
			<point x="1196" y="120" type="line"/>
			<point x="1150" y="54"/>
			<point x="1021" y="-20"/>
			<point x="942" y="-20" type="qcurve" smooth="yes"/>
			<point x="853" y="-20"/>
			<point x="728" y="64"/>
			<point x="696" y="152" type="qcurve"/>
			<point x="692" y="152" type="line"/>
			<point x="646" y="70"/>
			<point x="510" y="-20"/>
			<point x="420" y="-20" type="qcurve" smooth="yes"/>
			<point x="288" y="-20"/>
			<point x="138" y="152"/>
			<point x="138" y="279" type="qcurve" smooth="yes"/>
			<point x="138" y="1052" type="line"/>
			<point x="317" y="1052" type="line"/>
			<point x="317" y="308" type="line" smooth="yes"/>
			<point x="317" y="215"/>
			<point x="399" y="131"/>
			<point x="469" y="131" type="qcurve" smooth="yes"/>
			<point x="544" y="131"/>
			<point x="646" y="216"/>
			<point x="665" y="268" type="qcurve"/>
			<point x="665" y="1052" type="line"/>
			<point x="844" y="1052" type="line"/>
			<point x="844" y="306" type="line" smooth="yes"/>
			<point x="844" y="215"/>
			<point x="932" y="131"/>
			<point x="992" y="131" type="qcurve" smooth="yes"/>
			<point x="1057" y="131"/>
			<point x="1169" y="216"/>
			<point x="1192" y="268" type="qcurve"/>
			<point x="1192" y="1052" type="line"/>
			<point x="1370" y="1052" type="line"/>
			<point x="1370" y="145" type="line"/>
			<point x="1500" y="145" type="line"/>
			<point x="1500" y="-270" type="line"/>
		</contour>
	</outline>
</glyph>
<glyph name="six.prop" format="2">
	<advance width="985"/>
	<outline>
		<contour>
			<point x="77" y="614" type="qcurve" smooth="yes"/>
			<point x="77" y="644" type="line" smooth="yes"/>
			<point x="77" y="1024"/>
			<point x="431" y="1486"/>
			<point x="756" y="1486" type="qcurve" smooth="yes"/>
			<point x="773" y="1486" type="line"/>
			<point x="773" y="1333" type="line"/>
			<point x="756" y="1333" type="line" smooth="yes"/>
			<point x="525" y="1333"/>
			<point x="257" y="1004"/>
			<point x="257" y="654" type="qcurve" smooth="yes"/>
			<point x="257" y="604" type="line" smooth="yes"/>
			<point x="257" y="341"/>
			<point x="405" y="123"/>
			<point x="517" y="123" type="qcurve" smooth="yes"/>
			<point x="628" y="123"/>
			<point x="751" y="302"/>
			<point x="751" y="464" type="qcurve" smooth="yes"/>
			<point x="751" y="625"/>
			<point x="628" y="801"/>
			<point x="517" y="801" type="qcurve" smooth="yes"/>
			<point x="412" y="801"/>
			<point x="251" y="624"/>
			<point x="251" y="464" type="qcurve"/>
			<point x="184" y="464" type="line"/>
			<point x="184" y="683"/>
			<point x="385" y="954"/>
			<point x="550" y="954" type="qcurve" smooth="yes"/>
			<point x="722" y="954"/>
			<point x="933" y="683"/>
			<point x="933" y="464" type="qcurve" smooth="yes"/>
			<point x="933" y="244"/>
			<point x="697" y="-30"/>
			<point x="517" y="-30" type="qcurve" smooth="yes"/>
			<point x="337" y="-30"/>
			<point x="77" y="274"/>
		</contour>
	</outline>
</glyph>
<glyph name="three.prop" format="2">
  <advance width="1038"/>
  <outline>
    <contour>
      <point x="101" y="380" type="qcurve" smooth="yes"/>
      <point x="101" y="390" type="line"/>
      <point x="279" y="390" type="line"/>
      <point x="279" y="380" type="line" smooth="yes"/>
      <point x="279" y="258"/>
      <point x="406" y="123"/>
      <point x="511" y="123" type="qcurve" smooth="yes"/>
      <point x="616" y="123"/>
      <point x="741" y="258"/>
      <point x="741" y="400" type="qcurve" smooth="yes"/>
      <point x="741" y="541"/>
      <point x="598" y="684"/>
      <point x="478" y="684" type="qcurve" smooth="yes"/>
      <point x="377" y="684" type="line"/>
      <point x="377" y="834" type="line"/>
      <point x="469" y="834" type="line" smooth="yes"/>
      <point x="579" y="834"/>
      <point x="697" y="969"/>
      <point x="697" y="1091" type="qcurve" smooth="yes"/>
      <point x="697" y="1212"/>
      <point x="597" y="1333"/>
      <point x="511" y="1333" type="qcurve" smooth="yes"/>
      <point x="425" y="1333"/>
      <point x="314" y="1212"/>
      <point x="314" y="1100" type="qcurve" smooth="yes"/>
      <point x="314" y="1090" type="line"/>
      <point x="136" y="1090" type="line"/>
      <point x="136" y="1100" type="line" smooth="yes"/>
      <point x="136" y="1260"/>
      <point x="349" y="1486"/>
      <point x="511" y="1486" type="qcurve" smooth="yes"/>
      <point x="674" y="1486"/>
      <point x="881" y="1270"/>
      <point x="881" y="1100" type="qcurve" smooth="yes"/>
      <point x="881" y="1000"/>
      <point x="786" y="816"/>
      <point x="685" y="766" type="qcurve"/>
      <point x="685" y="762" type="line"/>
      <point x="795" y="730"/>
      <point x="927" y="540"/>
      <point x="927" y="401" type="qcurve" smooth="yes"/>
      <point x="927" y="200"/>
      <point x="691" y="-30"/>
      <point x="511" y="-30" type="qcurve" smooth="yes"/>
      <point x="331" y="-30"/>
      <point x="101" y="200"/>
    </contour>
  </outline>
</glyph>
<glyph name="tildecomb.case" format="2">
	<advance width="1024"/>
	<outline>
		<contour>
			<point x="105" y="1710" type="line"/>
			<point x="142" y="1779"/>
			<point x="293" y="1892"/>
			<point x="370" y="1892" type="qcurve" smooth="yes"/>
			<point x="416" y="1892"/>
			<point x="498" y="1862"/>
			<point x="540" y="1834" type="qcurve" smooth="yes"/>
			<point x="570" y="1816"/>
			<point x="667" y="1760"/>
			<point x="714" y="1760" type="qcurve" smooth="yes"/>
			<point x="760" y="1760"/>
			<point x="845" y="1817"/>
			<point x="871" y="1856" type="qcurve"/>
			<point x="939" y="1771" type="line"/>
			<point x="897" y="1689"/>
			<point x="758" y="1600"/>
			<point x="695" y="1600" type="qcurve" smooth="yes"/>
			<point x="642" y="1600"/>
			<point x="535" y="1649"/>
			<point x="503" y="1671" type="qcurve" smooth="yes"/>
			<point x="467" y="1696"/>
			<point x="384" y="1734"/>
			<point x="351" y="1734" type="qcurve" smooth="yes"/>
			<point x="298" y="1734"/>
			<point x="200" y="1655"/>
			<point x="180" y="1625" type="qcurve"/>
		</contour>
	</outline>
	<anchor name="_top" x="512" y="1456"/>
	<anchor name="top" x="512" y="1892"/>
</glyph>
<glyph name="tildecombstack.case" format="2">
	<advance width="1024"/>
	<outline>
		<contour>
			<point x="173" y="1667" type="line"/>
			<point x="213" y="1739"/>
			<point x="337" y="1813"/>
			<point x="404" y="1813" type="qcurve" smooth="yes"/>
			<point x="439" y="1813"/>
			<point x="512" y="1791"/>
			<point x="548" y="1765" type="qcurve" smooth="yes"/>
			<point x="578" y="1743"/>
			<point x="644" y="1708"/>
			<point x="676" y="1708" type="qcurve" smooth="yes"/>
			<point x="716" y="1708"/>
			<point x="763" y="1748"/>
			<point x="784" y="1787" type="qcurve"/>
			<point x="878" y="1696" type="line"/>
			<point x="846" y="1622"/>
			<point x="732" y="1548"/>
			<point x="667" y="1548" type="qcurve" smooth="yes"/>
			<point x="618" y="1548"/>
			<point x="536" y="1583"/>
			<point x="506" y="1603" type="qcurve" smooth="yes"/>
			<point x="475" y="1624"/>
			<point x="411" y="1661"/>
			<point x="387" y="1661" type="qcurve" smooth="yes"/>
			<point x="351" y="1661"/>
			<point x="290" y="1606"/>
			<point x="271" y="1576" type="qcurve"/>
		</contour>
	</outline>
	<anchor name="_top" x="512" y="1456"/>
	<anchor name="top" x="512" y="1813"/>
</glyph>
<glyph name="two.prop" format="2">
	<advance width="961"/>
	<outline>
		<contour>
			<point x="95" y="0" type="line"/>
			<point x="95" y="136" type="line"/>
			<point x="541" y="751" type="line" smooth="yes"/>
			<point x="621" y="856"/>
			<point x="702" y="1012"/>
			<point x="702" y="1105" type="qcurve" smooth="yes"/>
			<point x="702" y="1207"/>
			<point x="597" y="1333"/>
			<point x="503" y="1333" type="qcurve" smooth="yes"/>
			<point x="408" y="1333"/>
			<point x="259" y="1186"/>
			<point x="275" y="1030" type="qcurve" smooth="yes"/>
			<point x="275" y="1020" type="line"/>
			<point x="97" y="1020" type="line"/>
			<point x="97" y="1030" type="line" smooth="yes"/>
			<point x="97" y="1244"/>
			<point x="331" y="1486"/>
			<point x="503" y="1486" type="qcurve" smooth="yes"/>
			<point x="674" y="1486"/>
			<point x="884" y="1276"/>
			<point x="884" y="1115" type="qcurve" smooth="yes"/>
			<point x="884" y="996"/>
			<point x="769" y="798"/>
			<point x="667" y="658" type="qcurve" smooth="yes"/>
			<point x="299" y="155" type="line"/>
			<point x="918" y="155" type="line"/>
			<point x="918" y="0" type="line"/>
		</contour>
	</outline>
</glyph>
